<?xml version="1.0" encoding="UTF-8"?>
<svg id="Layer_1" data-name="Layer 1" xmlns="http://www.w3.org/2000/svg" viewBox="0 0 408.35 407.98">
  <defs>
    <style>
      .cls-1 {
        fill: #d7d6d9;
      }

      .cls-2 {
        fill: #fe6f43;
      }

      .cls-3 {
        fill: #fdfefe;
      }

      .cls-4 {
        fill: #fcd7a7;
      }

      .cls-5 {
        fill: #777;
      }

      .cls-6 {
        fill: #fe8f17;
      }

      .cls-7 {
        fill: #afbdc4;
      }

      .cls-8 {
        fill: #40c3fe;
      }

      .cls-9 {
        fill: #afee60;
      }

      .cls-10 {
        fill: #fcfefe;
      }

      .cls-11 {
        fill: #fbd743;
      }

      .cls-12 {
        fill: #64dc17;
      }

      .cls-13 {
        fill: #fcd744;
      }

      .cls-14 {
        fill: #faa908;
      }

      .cls-15 {
        fill: #fbaa08;
      }

      .cls-16 {
        fill: #fdfdfe;
      }

      .cls-17 {
        fill: #f3511e;
      }

      .cls-18 {
        fill: #00e4fe;
      }

      .cls-19 {
        fill: #fbd744;
      }

      .cls-20 {
        fill: #fec377;
      }

      .cls-21 {
        fill: #f9a808;
      }

      .cls-22 {
        fill: #fdc376;
      }

      .cls-23 {
        fill: #fcaa08;
      }

      .cls-24 {
        fill: #fefefd;
      }

      .cls-25 {
        fill: #fbd643;
      }

      .cls-26 {
        fill: #fec376;
      }

      .cls-27 {
        fill: #fefefe;
      }
    </style>
  </defs>
  <path d="M0,315.4c2.74-7.09,6.5-13.29,14.15-16.05,1.6-.58,1.52-2.07,1.65-3.34,2.86-29.02,25.08-54.41,55.02-60.76,6.69-1.42,13.45-1.59,20.23-1.44,2.44,.06,3.17-.52,2.98-3.1-1.84-24.66-3.6-49.33-5.23-74.01-.17-2.53-.78-3.4-3.41-3.28-4.9,.22-9.82,.06-15.05,.06,.47-3.72,1.91-6.94,2.94-10.27,2.77-8.99,5.64-17.96,8.33-26.98,.63-2.1,1.52-2.94,3.83-2.83,3.56,.17,8.08,1.16,10.46-.57,2.36-1.72,2.61-6.37,3.72-9.76,1.48-4.54,3-9.06,4.29-13.65,.67-2.4,1.76-3.24,4.39-3.22,18.76,.14,37.51-.01,56.27,.16,3.26,.03,3.87-.97,3.85-3.98-.13-21.15,0-42.3-.15-63.45-.02-2.8,.76-3.83,3.46-4.47,18.98-4.49,37.91-9.18,56.86-13.77,11.11-2.69,20.81,2.66,23.36,12.85,2.63,10.51-3.29,20-14.47,22.78-9.91,2.47-19.87,4.76-29.85,6.93-2.51,.55-3.38,1.46-3.35,4.13,.16,11.84,.17,23.68,0,35.51-.04,2.89,.84,3.46,3.56,3.44,18.76-.12,37.51,0,56.27-.14,2.73-.02,3.96,.71,4.73,3.34,2.05,6.99,4.44,13.89,6.59,20.86,.64,2.09,1.4,3.32,4,3.16,3.55-.23,8.09-1.15,10.44,.59,2.34,1.74,2.54,6.4,3.61,9.8,3.05,9.72,6.07,19.45,9.25,29.68h-24.29c-2.28,1.56-4.88,1.02-7.36,1.02-52.87,.03-105.73,.02-158.6,.02-.4,0-.8,0-1.2,0q-8.81,0-8.76,8.72c1.09,14.1,1.93,28.22,2.98,42.32,.42,5.66,1.05,11.33,1.03,17.01q0,10.2,9.89,10.2c9.31,0,18.62-.19,27.92,.04,17.48,.43,32.54,6.88,45.34,18.77,12.46,11.58,19.84,25.79,22.2,42.61,.37,2.66,1.99,4.08,4.13,5.45,8.01,5.11,12.28,12.28,11.72,22.03-.24,4.15-1.8,7.78-4.17,11.03-1.48,2.03-1.52,3.53-.09,5.67,6.03,9.07,5.71,18.65-.56,27.53-2.07,2.93-5,4.73-7.99,6.46-1.7,.98-2.99,2.17-3.43,4.15-2.56,11.52-9.06,20.21-19.01,26.43-6,3.64-12.55,4.85-19.48,4.47-39.64,0-79.26,0-118.88,0-18.74,1.9-34.67-13.75-38.52-29.67-.63-2.62-1.72-4.38-4.23-5.72-6.39-3.4-10.59-8.59-11.38-16.07v-7.98c.51-3.79,1.54-7.37,3.98-10.42,1.05-1.32,1.11-2.67-.04-3.91-2.74-2.94-3.3-6.69-3.93-10.41v-7.98Z"/>
  <path class="cls-5" d="M249.02,407.98c-.21-.22-.23-.46-.07-.72,1.45-1.56,3.4-1.36,5.23-1.36,43.36-.04,86.72-.04,130.07,0,1.83,0,3.77-.21,5.26,1.29,0,.26,0,.53-.01,.79H249.02Z"/>
  <path class="cls-5" d="M174.11,407.32c-.02,.22-.05,.44-.11,.66H52.68c-.01-.23-.05-.45-.1-.67,13.81-.04,27.62-.1,41.43-.12,26.18-.03,52.35-.04,78.53-.04,.52,0,1.05,.12,1.57,.18Z"/>
  <path d="M389.51,407.19c-46.85,.02-93.71,.05-140.56,.07-1.02-1.49-.38-3.3-.95-4.88-2.67-3.58-2.02-7.91-2.45-11.91-2.8-25.88-5.67-51.75-8.48-77.63-2.69-24.82-5.35-49.64-8.1-74.46-.46-4.14,.58-5.28,4.69-5.57,.66-.05,1.33-.04,1.99-.05q7.32-.1,7.33-7.62c0-17.94-.02-35.87,.02-53.81,.01-6.45,.72-7.16,7.03-7.19,7.44-.04,14.88-.04,22.32,0,1.84,.01,3.76-.22,5.3,1.19,1.62,.01,2.64,.34,2.54,2.46-.2,4.24,.06,8.51-.11,12.76-.08,2.14,.64,2.59,2.68,2.64,9,.19,9,.26,9-8.77s0-8.92,8.8-8.92c7.71,0,15.43,.25,23.12-.11,3.75-.17,4.52,1.11,4.25,4.47-.28,3.43,.05,6.91-.1,10.36-.09,2.13,.38,3,2.77,2.97,10.23-.13,20.47-.12,30.71,0,2.14,.02,2.67-.67,2.63-2.72-.12-6.91,.06-13.83-.1-20.73-.06-2.46,.62-3.13,3.1-3.09,9.83,.15,19.67,.17,29.51,0,2.78-.05,3.53,.67,3.52,3.48-.12,23.13,.02,46.26-.16,69.38-.03,3.57,.9,4.84,4.37,4.24,3.57-.61,4.51,.47,4.05,4.4-3,25.59-5.63,51.22-8.41,76.83-2.79,25.61-5.6,51.22-8.43,76.83-.57,5.14-1.26,10.26-1.89,15.39Z"/>
  <path class="cls-8" d="M277.65,165.33c-9.96,.05-19.92,.24-29.87,.08-3.02-.05-3.75,.79-3.73,3.76,.14,20.19,.01,40.38,.13,60.57,.02,3.01-.58,4.41-3.89,4.04-2.49-.28-5.06,.13-7.56-.1-2.74-.25-2.99,.97-2.74,3.26,4.18,37.59,8.33,75.19,12.43,112.79,1.91,17.54,3.72,35.1,5.57,52.65-3.39-.03-6.78-.07-10.17-.1-2.01-3.77-1.63-7.98-2.11-12.02-.89-7.46-2.04-14.9-2.24-22.38-1.87,4-4.85,7.23-8.35,9.88-3,2.27-4.79,5.09-6.12,8.55-2.35,6.08-5.2,11.93-10.67,15.98-5.4,0-10.8-.02-16.2-.03,7.41-5.22,13.4-11.56,16.76-20.2,3.1-7.99,3.25-7.93,9.61-13.02,9.55-7.64,11.09-21.32,3.25-30.9-1.53-1.87-1.4-2.8,.03-4.6,8.96-11.18,5.45-27.1-7.4-33.36-2.21-1.07-3.21-2.32-3.45-4.67-3.38-33.19-32.67-62.64-71.71-61.82-9.84,.21-19.69-.06-29.52,.09-2.65,.04-3.91-.52-3.76-3.41,.11-2.24-.23-4.5-.38-6.75,.77-.87,1.83-1.12,2.89-1.1,14.48,.2,29.02-1.18,43.43,.72,33.72,4.46,60.18,28.32,68.53,61.3,.74,2.94,.74,6.34,4.34,8.52-.5-6.79-1.19-13.08-1.92-19.37-1.76-15.18-3.27-30.4-4.98-45.59-.49-4.37,.5-5.46,4.95-5.65,1.59-.07,3.19,0,4.79-.03,4.68-.07,5.03-.36,5.06-4.97,.05-8.78,.01-17.55,.01-26.33,0-6.92,.02-13.83,0-20.75-.02-5.15-.27-5.41-5.4-5.43-22.74-.08-45.48-.05-68.22-.09-17.16-.03-34.31,.01-51.47,.06-2.08,0-4.3,.42-6.09-1.2-.15-3.28-2.16-7.45-.26-9.57,1.92-2.13,6.28-.64,9.55-.65,54.44-.05,108.87-.03,163.31-.03,1.46,0,2.91,.09,4.37,.14-.83,3.86-.69,7.79-.8,11.7Z"/>
  <path class="cls-18" d="M101.48,163.73c42.56,0,85.11,.06,127.67-.08,3.89-.01,4.86,1.1,4.82,4.9-.2,17.02-.16,34.04-.03,51.06,.02,3.07-.72,4.4-3.99,4.07-2.63-.26-5.33,.12-7.97-.1-3.14-.25-3.48,1.3-3.19,3.87,1.35,11.68,2.6,23.37,3.9,35.06,1.23,11.01,2.47,22.03,3.71,33.1-4.4-1.64-5.95-4.95-6.94-9.26-5.68-24.61-19.99-42.71-42.35-54.3-10.61-5.5-22.08-8.23-34.05-8.39-12.5-.16-25-.04-37.5-.04-1.36-19.97-2.72-39.93-4.09-59.9Z"/>
  <path class="cls-4" d="M30.14,286.48c7.2-21.85,22.33-34.85,44.61-39.71,3.09-.67,6.33-.91,9.49-.91,20.2-.05,40.41-.31,60.6,.13,23.84,.51,45.95,18.41,52.18,41.49-1.51,1.44-3.44,1.27-5.28,1.27-51.99,.03-103.99,.04-155.98-.04-2.01,0-4.7,.87-5.63-2.23Z"/>
  <path class="cls-27" d="M86.74,141.35c-.03-.55-.08-.69-.04-.81,1.56-4.92,1.78-11.31,5.08-14.32,3.03-2.75,9.41-.73,14.31-.73,57.06-.04,114.12,.01,171.19-.12,3.31,0,4.64,.94,5.36,4.05,.91,3.97,2.35,7.81,3.62,11.93H86.74Z"/>
  <path class="cls-12" d="M12.15,319.33c.97-6.16,4.59-9.49,10.71-9.5,60.36-.03,120.72-.03,181.08,0,6.13,0,9.89,3.47,10.66,9.5-1.36,1.49-3.2,1.8-5.07,2.01-1.59,.18-3.19,.14-4.78,.14-60.92,0-121.84,.01-182.76-.03-3.39,0-7,.58-9.84-2.13Z"/>
  <path class="cls-9" d="M12.15,319.33c4.72,1.03,9.5,.77,14.28,.77,57.7,0,115.4,0,173.1,0,5.04,0,10.09,.28,15.08-.77-.09,6.45-4.15,10.46-10.85,10.47-21.81,.04-43.62,.02-65.42,.02-38.3,0-76.59,.01-114.89-.01-7.04,0-11.05-3.79-11.29-10.48Z"/>
  <path class="cls-20" d="M30.14,286.48c1.21,1.55,2.93,.98,4.45,.98,54.15,.02,108.3,.02,162.45,.01q3.48,10.33-7.24,10.33c-52.59,0-105.18-.05-157.77,.09-3.9,.01-4.92-1.1-3.82-4.62,.71-2.25,.71-4.7,1.93-6.81Z"/>
  <path class="cls-4" d="M193.98,384.05c-4.36,6.66-10.74,10.06-18.43,11.14-2.88,.4-5.84,.35-8.76,.35-36.44,.02-72.88-.02-109.33,.04-9.67,.02-18.05-2.59-24.04-10.69,.55-2.37,2.58-2.04,4.16-2.06,15.11-.15,30.21-.1,45.32-.05,1.74,0,3.4,.5,4.99,1.2,.41-.02,.83-.04,1.24-.06,2.1-.93,4.3-1.2,6.58-1.19,12.32,.03,24.64,.03,36.96,0,2.42,0,4.74,.34,6.96,1.3,.27,0,.54-.02,.81-.03,2.49-1.03,5.08-1.29,7.77-1.28,13.25,.05,26.49,0,39.74,.04,2.07,0,4.29-.37,6.03,1.29Z"/>
  <path class="cls-1" d="M260.24,103.1c1.47,3.24,2.5,6.61,3.28,10.24H109.09c.91-3.63,1.85-7.03,3.37-10.25,1.55-1.31,3.45-1.27,5.31-1.27,45.73-.02,91.45-.02,137.18,0,1.86,0,3.75-.05,5.3,1.28Z"/>
  <path class="cls-13" d="M180.49,76c-.04-16.34-.07-32.68-.17-49.02-.01-1.66,.6-2.37,2.12-2.74,16.49-4,32.96-8.08,49.47-12.01,4.49-1.07,7.59,.82,8.31,4.53,.8,4.13-1.12,6.91-5.73,8-12.78,3.01-25.54,6.07-38.37,8.84-3.11,.67-3.89,1.87-3.85,4.95,.16,12.48,0,24.97-.04,37.46-3.91,1.82-7.82,1.81-11.74,0Z"/>
  <path class="cls-27" d="M260.24,103.1c-49.26,0-98.52,0-147.78,0,.06-3.77,1.85-4.91,5.69-4.9,45.47,.14,90.94,.14,136.41,0,3.84-.01,5.63,1.13,5.68,4.91Z"/>
  <path class="cls-15" d="M119.52,354.62c-5.86-4-11.72-8-18.43-12.59h77.72c-5.6,3.82-10.25,6.98-14.89,10.14-2.23,.94-4.56,1.22-6.96,1.21-7.26-.03-14.52,.11-21.77-.05-5.28-.12-10.49,.26-15.66,1.29Z"/>
  <path class="cls-22" d="M87.89,383.97c-16.66,.02-33.32,.03-49.97,.09-1.52,0-3.21-.58-4.5,.83-2.9-3.04-4.48-6.68-5.26-11.01,14.95,0,29.64,0,44.33-.02,1.13,0,2.03,.41,2.91,1.05,4.16,3.03,8.33,6.05,12.49,9.07Z"/>
  <path class="cls-22" d="M193.98,384.05c-17.85-.02-35.69-.04-53.54-.06,4.19-3.02,8.4-6.01,12.55-9.09,1.15-.86,2.35-1.05,3.72-1.05,13.02,.02,26.05,.08,39.07-.05,2.68-.03,3.28,.62,2.24,3.08-1.08,2.55-1.91,5.21-4.04,7.17Z"/>
  <path class="cls-23" d="M64.47,352.15c-4.65-3.16-9.29-6.32-13.94-9.49,.09-.28,.18-.55,.27-.83,9.46,0,18.92,0,28.37-.01,1.02,0,1.73,.55,2.49,1.08,6.6,4.65,13.17,9.35,19.83,13.93,1.84,1.26,2.05,2.12,.03,3.33-2.14,1.29-4.19,2.73-6.29,4.1-1.79,.69-3.03-.41-4.35-1.31-3.19-2.17-6.37-4.36-9.43-6.7-3.14-2.41-6.47-3.45-10.37-3.12-2.25,.19-4.53,.1-6.62-1Z"/>
  <path class="cls-26" d="M139.64,384.02c-16.84-.04-33.67-.07-50.51-.11,7.76-5.54,15.56-11.03,23.26-16.66,1.74-1.27,2.86-.54,4.22,.42,7.67,5.46,15.35,10.9,23.03,16.34Z"/>
  <path class="cls-13" d="M119.52,354.62c2.47-2.06,5.27-2.65,8.49-2.6,11.96,.18,23.93,.12,35.9,.15-7.42,5.33-14.86,10.64-22.26,16-1.1,.8-1.93,1.05-3.15,.16-6.3-4.62-12.65-9.15-18.99-13.71Z"/>
  <path class="cls-2" d="M15.27,344.92c4.98-4.11,11.5-4.41,16.67-.75,7.95,5.62,15.88,11.24,24.7,17.49h-17.55c-7.05-2.94-12.5-8.34-18.83-12.4-1.82-1.17-4.11-2.01-4.99-4.34Z"/>
  <path class="cls-2" d="M189.9,361.66h-18.03c3.43-2.46,6.14-4.42,8.87-6.36,5.41-3.84,10.83-7.67,16.26-11.5,4.91-3.47,10.86-2.73,15.23,1.9-1.76,2.79-4.76,4.08-7.3,5.87-4.92,3.48-9.59,7.36-15.02,10.09Z"/>
  <path class="cls-6" d="M15.27,344.92c8.18,5.23,16.03,10.94,23.82,16.74-5.44,.06-10.89,.07-16.33,.19-4.66,.1-7.94-2.08-9.83-6.13-1.9-4.06-.91-7.73,2.34-10.79Z"/>
  <path class="cls-6" d="M189.9,361.66c4.87-4.87,11-8.04,16.45-12.12,1.86-1.39,3.53-3.17,5.88-3.84,2.81,2.91,3.31,6.32,1.7,9.88-1.69,3.76-4.6,6.16-8.92,6.2-5.03,.04-10.07-.07-15.11-.12Z"/>
  <path class="cls-11" d="M64.47,352.15c8.94-1.5,16.49,1.15,23.19,7.18,2.19,1.97,4.63,3.95,7.58,4.94-.17,.2-.31,.44-.51,.6q-5.98,4.7-12.22,.29c-6.03-4.3-12.03-8.66-18.04-13Z"/>
  <path class="cls-15" d="M180.49,76c3.91,0,7.82,0,11.74,0,.04,.4,.11,.79,.12,1.19,.18,9.94,.19,9.88-9.78,9.14-1.76-.13-2.31-.7-2.23-2.36,.12-2.65,.11-5.31,.15-7.97Z"/>
  <path class="cls-18" d="M208.34,402.28c4.84-6.46,9.22-13.16,11.5-21.04,.29-1,1.48-1.85,2.42-2.52,4.67-3.32,8.49-7.39,11.93-12.42,1.21,11.99,2.42,23.98,3.64,35.98-9.83,0-19.66,0-29.49,0Z"/>
  <path class="cls-17" d="M318.88,395.5c-18.62,0-37.24-.05-55.86,.06-2.61,.02-3.63-.57-3.92-3.37-2.18-21.01-4.57-42-6.87-62.99-2.56-23.37-5.11-46.75-7.66-70.12-.17-1.59-.28-3.18-.43-4.76-.83-8.53-.82-8.24,7.95-8.65,4.49-.21,6.44,1.17,7.86,5.46,4.32,13.1,9.27,26,13.75,39.05,.99,2.89,2.36,3.74,5.38,3.73,26.73-.13,53.46-.15,80.2,.02,3.34,.02,4.52-1.15,5.53-4.08,4.67-13.55,9.67-26.99,14.34-40.53,.94-2.73,2.19-3.86,5.09-3.58,2.63,.26,5.33,.23,7.97,0,2.72-.22,3.04,1,2.78,3.29-3.13,27.85-6.2,55.71-9.27,83.58-2.18,19.81-4.41,39.61-6.38,59.44-.31,3.15-1.54,3.53-4.2,3.52-18.75-.09-37.5-.05-56.26-.05Z"/>
  <path class="cls-19" d="M304.03,271.56c-.07-7.97-.18-15.94-.19-23.91-.03-22.07,.05-44.13-.07-66.2-.02-3.06,.68-4.49,3.92-3.96,2.56,.42,5.26-.72,7.75,.63,.43,1.71,.2,3.44,.2,5.16,.02,27.65,.01,55.3,.01,82.95,0,6.32-.39,6.7-6.7,6.56-1.73-.04-3.48-.03-4.92-1.23Z"/>
  <path class="cls-13" d="M328.06,271.55c-.05-24.95-.09-49.91-.12-74.86,0-.37,.23-.74,.35-1.11,2.76-.58,5.56-.01,8.32-.3,2.63-.28,3.06,.95,3.04,3.25-.09,11.55-.04,23.09-.04,34.64,0,11.68-.12,23.36,.08,35.04,.06,3.38-1.24,4.63-4.33,4.56-2.48-.06-5.08,.54-7.29-1.2Z"/>
  <path class="cls-25" d="M280.27,243.59c-.04-15.29-.07-30.58-.16-45.88-.01-1.8,.39-2.84,2.41-2.56,2.95,.41,6.03-.86,8.89,.71,.57,1.27,.29,2.62,.29,3.93,.02,22.55,.01,45.09,.01,67.64,0,.8,.03,1.59-.02,2.39-.04,.61,.13,1.4-.69,1.62-.74,.2-1.25-.32-1.69-.81-.44-.5-.76-1.09-.98-1.72-2.9-8.37-6.7-16.45-8.06-25.32Z"/>
  <path class="cls-13" d="M376.05,223.62c-.04-17.4-.04-34.8-.19-52.2-.02-2.47,1-2.72,3.06-2.75,8.99-.13,9-.19,8.98,8.73-.03,15.41-.08,30.81-.13,46.22-3.91,1.86-7.82,1.86-11.73,0Z"/>
  <path class="cls-13" d="M352.06,258.76c-.05-20.41-.1-40.82-.14-61.23,0-.88-.27-2.19,.98-2.25,3.3-.15,6.63-.17,9.93,0,1.54,.08,1.07,1.6,1.06,2.55-.01,9.94-.08,19.88-.12,29.82-1.77,10.16-6.3,19.41-9.62,29.06-.32,.93-.69,2.1-2.09,2.05Z"/>
  <path class="cls-13" d="M256.28,223.62c-.05-14.46-.05-28.92-.2-43.38-.03-2.45,.99-2.74,3.06-2.77,9-.14,9.01-.2,8.99,8.74-.03,12.47-.09,24.94-.14,37.41-3.9,1.88-7.81,1.84-11.71,0Z"/>
  <path class="cls-15" d="M352.06,258.76c4.34-9.52,7.17-19.6,10.93-29.33,.23-.6,.52-1.19,.78-1.78,.05,9.14,.07,18.27,.16,27.41,.02,1.66-.64,3.09-1.16,4.58-2.33,6.6-4.68,13.2-7.06,19.79-.43,1.19-.66,2.67-2.56,2.39-1.95-.29-1.2-1.81-1.2-2.8-.02-6.75,.06-13.5,.11-20.25Z"/>
  <path class="cls-15" d="M280.27,243.59c3.38,9.12,6.76,18.23,10.14,27.35,.33-.04,.66-.08,.99-.11,0-24.99,0-49.98,0-74.96,.83,1.07,.42,2.31,.42,3.46,.01,26.17,0,52.34-.08,78.5,0,1.41,1.19,4.06-1.73,3.89-2.62-.15-6.05,1.88-7.55-2.66-1.46-4.45-2.56-8.81-2.38-13.56,.27-7.29,.15-14.6,.19-21.91Z"/>
  <path class="cls-14" d="M304.03,271.56c3.55-.27,8.11,1.48,10.39-.72,2.48-2.4,.8-7.05,.81-10.71,.09-25.75,.04-51.5,.05-77.24,0-1.59,.1-3.18,.15-4.77,.88,1.05,.45,2.29,.45,3.44,.01,32.11-.05,64.22,.04,96.33,0,3.04-.63,4.1-3.89,4.02-8.33-.2-8.34-.03-8.2-8.38,.01-.66,.12-1.31,.19-1.97Z"/>
  <path class="cls-14" d="M328.06,271.55c3.54-.29,8.06,1.49,10.39-.76,2.36-2.28,.76-6.82,.77-10.35,.09-20.21-.03-40.41,.12-60.62,.03-3.37-1-4.5-4.28-4.18-2.23,.22-4.51-.03-6.77-.07,3.22-1.08,6.53-.26,9.8-.44,2.4-.13,1.84,1.77,1.84,3.11,.03,9.56,.02,19.12,.02,28.68-.01,17.13-.09,34.26,.02,51.38,.02,2.73-.62,3.62-3.49,3.6-8.74-.08-8.75,.05-8.58-8.77,0-.53,.11-1.05,.16-1.58Z"/>
  <path class="cls-21" d="M256.28,223.62c3.9,0,7.81,0,11.71,0,0,4.31,0,8.62,0,12.94-1.29-3.82-4.5-3.03-7.19-2.74-3.79,.42-5.33-.8-4.72-4.68,.28-1.8,.14-3.67,.19-5.51Z"/>
  <path class="cls-14" d="M376.05,223.62c3.91,0,7.82,0,11.73,0,.04,.52,.12,1.04,.13,1.57,.14,9.2-.74,9.9-10.14,8.6-1.64-.23-1.9-.96-1.86-2.3,.07-2.62,.1-5.25,.14-7.87Z"/>
  <path class="cls-3" d="M151.72,177.5c-9.57,0-19.14-.07-28.71,.05-2.38,.03-3.18-.64-3.21-3.12-.13-8.94-.23-8.94,8.51-8.94,17.01,0,34.03,.07,51.04-.07,3.08-.03,4.13,.73,4.07,3.96-.16,8.12,0,8.12-8.17,8.12-7.84,0-15.68,0-23.53,0Z"/>
  <path class="cls-10" d="M203.32,165.48c8.05,0,7.93,0,8.03,8.24,.04,2.87-.6,4.1-3.71,3.84-3.29-.28-6.62-.04-9.93-.08-.87,0-2.16,.26-2.2-1.05-.12-3.3-.12-6.61,.03-9.91,.06-1.26,1.34-1.02,2.22-1.03,1.85-.04,3.71-.01,5.56-.01Z"/>
  <path class="cls-24" d="M100.85,277.87c-6.7-.08-5.79,.8-5.8-6.46-.01-6.47-.71-5.48,6.74-5.51,6.14-.02,5.18-.57,5.21,6.65,.03,6.13,.51,5.25-6.15,5.32Z"/>
  <path class="cls-24" d="M119.69,271.72c.08-6.72-.78-5.81,6.45-5.81,6.46,0,5.49-.8,5.51,6.73,.02,6.16,.63,5.19-6.63,5.22-6.18,.03-5.26,.53-5.34-6.13Z"/>
  <path class="cls-27" d="M83,264.9c-.09,6.69,.8,5.75-6.5,5.76-6.43,0-5.45,.77-5.47-6.77-.02-6.09-.66-5.15,6.68-5.17,6.13-.02,5.2-.54,5.29,6.19Z"/>
  <path class="cls-24" d="M149.5,270.68c-6.69-.08-5.76,.78-5.77-6.48-.01-6.43-.73-5.46,6.76-5.48,6.12-.02,5.16-.59,5.19,6.67,.03,6.13,.5,5.22-6.18,5.3Z"/>
  <path d="M319.1,305.82c17.95,0,35.9,.06,53.85-.06,2.91-.02,3.68,.4,3.3,3.68-2.7,23.22-5.14,46.46-7.52,69.72-.33,3.23-1.22,4.43-4.78,4.41-29.91-.17-59.83-.15-89.74-.03-3.24,.01-4.18-.92-4.51-4.16-2.35-23.25-4.88-46.49-7.57-69.71-.38-3.31,.38-3.95,3.53-3.92,17.82,.14,35.63,.07,53.45,.07Z"/>
  <path class="cls-7" d="M319.36,317.82c13.56,0,27.12,.08,40.68-.07,2.82-.03,3.2,.86,2.91,3.4-1.85,15.7-3.63,31.4-5.22,47.12-.26,2.61-1.07,3.26-3.58,3.25-23.26-.09-46.53-.08-69.79-.01-2.34,0-3.42-.33-3.7-3.08-1.59-15.86-3.4-31.69-5.24-47.52-.29-2.46,.32-3.17,2.87-3.14,13.69,.13,27.38,.06,41.08,.06Z"/>
  <path class="cls-27" d="M319.37,350.56c-6.66-.09-5.69,.81-5.69-6.57,0-6.36-.84-5.37,6.85-5.39,6.04-.01,5.07-.75,5.09,6.75,.02,6.06,.69,5.13-6.25,5.22Z"/>
  <path class="cls-16" d="M295.43,350.56c-6.68-.09-5.74,.78-5.74-6.53,0-6.41-.81-5.42,6.81-5.44,6.06-.01,5.12-.76,5.14,6.7,.02,6.12,.6,5.18-6.21,5.27Z"/>
  <path class="cls-27" d="M348.8,344.47c-.09,6.88,.84,6.07-5.8,6.07-6.28,0-5.35,.74-5.36-6.48-.01-6.29-.74-5.45,5.98-5.47,5.95-.01,5.11-.61,5.19,5.88Z"/>
</svg>