<?xml version="1.0" encoding="UTF-8"?>
<svg id="Layer_1" data-name="Layer 1" xmlns="http://www.w3.org/2000/svg" viewBox="0 0 383.14 353.74">
  <defs>
    <style>
      .cls-1 {
        fill: #375e7d;
      }

      .cls-2 {
        fill: #dcd9eb;
      }

      .cls-3 {
        fill: #fee4c0;
      }

      .cls-4 {
        fill: #2b4d66;
      }

      .cls-5 {
        fill: #3bc2a3;
      }

      .cls-6 {
        fill: #febb84;
      }

      .cls-7 {
        fill: #00a786;
      }

      .cls-8 {
        fill: #fdba84;
      }

      .cls-9 {
        fill: #fdbb84;
      }

      .cls-10 {
        fill: #a6a1d1;
      }

      .cls-11 {
        fill: #fdd0a2;
      }

      .cls-12 {
        fill: #bdb8dc;
      }

      .cls-13 {
        fill: #925d38;
      }

      .cls-14 {
        fill: #010101;
      }

      .cls-15 {
        fill: #7f4d2a;
      }

      .cls-16 {
        fill: #fefefe;
      }
    </style>
  </defs>
  <path d="M171.53,348.24c-1.1,4.34-2.38,5.39-7.09,5.4-13.09,.04-26.17,.01-39.26,.01-37.64,0-75.28-.08-112.92,.09-5.47,.02-9.61-1.4-12.26-6.32v-36.66c2.09-5.18,5.9-7.17,11.47-6.94,7.47,.3,14.95,.07,22.76,.07-1.48-4.18-1.99-8.32-1.76-12.53,.09-1.64-.59-2.17-2.19-2.14-3.61,.08-7.23,.11-10.85-.02-7.68-.26-13.29-5.95-13.41-13.69-.11-6.73-.1-13.47,0-20.2,.11-7.72,5.58-13.43,13.28-13.93,1.86-.12,3.74-.03,5.61-.03,4.05,0,7.95,.97,9.42-5.18,1.07-4.46,5.94-6.14,10.64-5.99,2.39,.07,3.7-.54,4.86-2.83,5.85-11.58,15.05-19.23,27.54-22.99,13.57-4.09,27.05-8.43,40.63-12.49,2.45-.73,3.01-1.81,3.25-4.31,.51-5.22-1.32-8.56-5.35-11.97-10.5-8.88-18.36-19.92-23.68-32.65-.74-1.78-1.68-2.54-3.51-2.62-3.01-.13-5.9-.94-8.7-2.01-15.9-6.08-18.45-18.57-15.36-32.48,1.46-6.58,8.16-10.99,15.17-11.25,2.22-.08,4.45-.01,6.78-.01-1.09-8.85-2.41-17.34-3.13-25.88-1.32-15.82,1.85-30.27,14.16-41.49,5.26-4.79,11.52-7.76,18.32-9.65,1.33-.37,2.64-.58,3.56-1.78,6.73-8.73,16.24-12.71,26.62-14.37,22.98-3.68,44.91-.45,64.07,13.44,18.35,13.3,26.78,32.21,27.72,54.63,.32,7.61-.05,15.21-.87,22.77-.19,1.78,.11,2.53,2.05,2.34,1.6-.16,3.24-.08,4.86,0,8.89,.46,15.57,7.33,15.73,16.28,.06,3.6,.38,7.24-.42,10.81-2.21,9.73-11.19,17.09-22.9,18.43-2.93,.33-4.47,1.33-5.67,4.12-5.55,12.92-13.97,23.77-24.61,32.91-3.03,2.6-4.89,9.43-3.55,13.05,.44,1.19,1.52,1.21,2.39,1.48,9.14,2.84,18.31,5.57,27.42,8.48,1.74,.56,2.51,.33,3.55-1.22,4.26-6.38,10.37-9.45,18.03-9.45,12.47,0,24.94,.04,37.4-.04,3.08-.02,5.3,1.02,6.58,3.87,1.25,5.05-.9,8.08-6.27,8.45-4.72,.32-9.46,.09-14.2,.11-7.1,.02-14.2-.01-21.3,.01-7.64,.03-10.37,2.36-12.04,9.93-2.82,12.77-5.28,25.62-7.93,38.43-3.23,15.61-6.55,31.21-9.54,46.87-.32,1.67-1.13,3.36-.21,5.08,1.13,1.15,2.58,.79,3.91,.8,38.63,.07,77.25-.03,115.87-.09,5.16,0,5.37-.2,6.39-5.2,5.61-27.46,11.24-54.93,16.93-82.37,.28-1.34,.56-2.68,.78-4.04,1.01-6.3-1.41-9.27-7.73-9.34-9.84-.1-19.69,.07-29.53-.07-4.58,.05-9.18,.28-13.74-.11-4.5-.38-6.62-3.06-5.88-6.97,.79-3.99,3.31-5.39,7.26-5.36,14.46,.11,28.93,.42,43.37-.08,12.08-.42,21.04,11.27,18.66,22.9-5.47,26.69-10.93,53.37-16.39,80.06-.42,2.07-.85,4.14-1.26,6.22q-1.06,5.37,4.56,5.37c1.5,0,2.99-.04,4.49,.03,5.28,.24,8.88,3.72,8.94,9.05,.12,10.59,.12,21.19-.01,31.78-.06,4.97-3.49,8.36-8.39,8.81-.87,.08-1.74,.1-2.61,.1-59.33,0-118.67,0-178,0-5.4,0-6.63-.89-7.83-5.45-1.32-3.05,.55-4.7,2.78-6.04,1.75-1.05,3.8-1.16,5.8-1.17,47.99-.03,95.97-.07,143.96,.02,.25,0,.5,.04,.74,.06,8.82-.16,17.64,0,26.46-.08,4.43-.04,4.71-.31,4.74-4.6,.04-5.34-.07-10.69,.04-16.03,.06-2.89-1.15-3.96-3.97-3.96-9.07,0-18.14,.13-27.21-.05-1.99,.2-3.99,.1-5.98,.1-104.45,0-208.89,0-313.34,0-8.23,0-7.75-.4-7.77,7.71-.01,4.24,.07,8.48-.02,12.71-.06,2.8,.99,4.22,3.91,4.07,1.37-.07,2.74,0,4.11,0,46.49,0,92.98,0,139.47,0,2.49,0,5-.16,7.42,.62,3.5,1.12,4.75,3.14,4.19,6.65Z"/>
  <path class="cls-13" d="M339.7,342.2c-1.61,.05-3.23,.14-4.84,.14-46.79,0-93.58,0-140.37,0-5.74,0-7.25,1.09-8.29,5.85-4.89,.01-9.78,.02-14.67,.04-.97-4.59-2.53-5.88-7.53-5.88-17.83-.03-35.66-.01-53.49-.01-31.79,0-63.59-.04-95.38,.07-3.05,.01-4.09-.72-3.98-3.89,.24-6.85,.13-13.71,.04-20.57-.03-2.04,.51-3.09,2.71-2.81,.61,.08,1.25,.01,1.87,.01,106.61,0,213.21,0,319.82,0,1.37,0,2.74,.09,4.11,.14,1.03,1.07,1.16,2.43,1.18,3.8,.07,6.43,.07,12.86,0,19.29-.01,1.38-.18,2.72-1.17,3.81Z"/>
  <path class="cls-2" d="M313.42,194.78c1.04,4.54,2.55,5.83,7,5.9,4.18,.07,8.35,.12,12.53,.17,1.94,4.06,1.65,8.52,1.79,12.77,.69,22.15-2.73,43.68-10.57,64.45-2.95,7.83-6.86,15.2-11.03,22.44-1.32,2.28-3.01,3.21-5.75,3.2-26.65-.1-53.31-.06-79.96-.07-.97,0-2,.25-2.91-.35,1.11-9.52,3.56-18.78,5.43-28.15,4.27-21.46,8.8-42.88,13.2-64.32,1.52-7.42,4.73-10.11,12.36-10.12,11.71-.02,23.43,0,35.14-.01,5.57,0,7.35-1.85,7.26-7.38,.9,1.43,2.27,1.56,3.8,1.53,3.9-.07,7.8-.04,11.7-.05Z"/>
  <path class="cls-5" d="M193.84,277.87c-5.23,.05-10.46,.07-15.69,.15-8.06,.12-12.21,4.22-12.23,12.26-.01,3.97-.48,7.98,.78,11.87,.45,1.4-.3,1.78-1.52,1.74-.62-.02-1.25,0-1.87,0-20.31,0-40.63,0-60.94,0h-3.62c2.13-5,1.77-9.87,1.78-14.71,.01-15.08,.02-30.16,0-45.23-.01-9.52-4.38-13.81-14.02-13.83-7.98-.01-15.95-.02-23.93-.03-.24,0-.49-.09-1.12-.22,2.68-5.23,6.74-8.93,11.67-11.6,7.28-3.94,15.45-5.46,23.24-7.99,7.33-2.38,14.73-4.57,22.09-6.86,1.3-.4,2.55-1.14,3.08,1.08,3.47,14.39,14.39,20.2,27.43,23.1,13.97,3.11,27.46,1.26,40.24-5.32,1.11,.8,1.34,2.06,1.64,3.26,3.94,15.92,5.31,32.09,4.78,48.45-.05,1.53-.31,2.99-1.78,3.87Z"/>
  <path class="cls-3" d="M142.2,179.83c-22.33-11.2-37.67-28.19-42.97-53.06-1.53-7.18-.3-14.66-.52-22-.06-2,1.61-2.06,2.75-2.49,5.81-2.2,11.68-4.22,17.09-7.36,5.28-3.06,9.7-6.97,12.51-12.47,.7-1.37,1.2-2.11,3.02-1.36,10.99,4.56,22.54,4.59,34.17,4.15,11.43-.44,22.88-1.69,34.3,.27,1.34,.23,2.65,.65,3.97,.98,1.07,1.25,1,2.76,1,4.26,.01,4.23-.13,8.47,.03,12.7,.78,20.87-8.15,37.84-21.48,52.9-9.76,11.03-21.78,18.82-35.9,23.29-2.71,.86-5.28,1.19-7.96,.19Z"/>
  <path class="cls-1" d="M205.63,74.42c-12.9-1.56-25.82-1.13-38.74-.25-6.35,.43-12.71,.17-18.99-.75-14.87-2.16-20.48-7.74-22.66-23.25-1-7.13-.86-14.4,.63-21.55,1.12-5.41,4.51-9.01,9.11-11.67,5.37-3.11,11.29-4.72,17.37-5.25,13.15-1.14,26.09-.04,38.42,5.19,11.93,10.69,16.06,24.83,17.47,40.06,.43,4.7,.2,9.47,0,14.2-.07,1.49,.41,3.9-2.6,3.27Z"/>
  <path class="cls-12" d="M224.52,303.28c27.3-.01,54.61-.07,81.91,.02,2.69,0,4.28-.8,5.68-3.12,10.7-17.72,17.14-36.98,19.93-57.35,1.58-11.52,2.78-23.18,1-34.88-.35-2.32-.08-4.73-.1-7.1,10.71-.06,21.42-.2,32.13-.13,4.77,.03,7.62,4.56,6.52,10.04-2.21,10.97-4.48,21.93-6.74,32.9-3.89,18.88-7.84,37.75-11.6,56.66-.53,2.66-1.3,3.65-4.22,3.65-40.38-.09-80.75-.03-121.13-.05-1.12,0-2.48,.7-3.39-.63Z"/>
  <path class="cls-7" d="M193.84,277.87c1.36-7.64,.75-15.33,.37-22.99-.55-11.02-2.86-21.79-5-32.58,6.22-4.64,11.4-10.03,12.81-18.07,.32-1.8,1.55-1.24,2.59-.93,8.2,2.52,16.38,5.12,24.6,7.57,1.89,.56,2.22,1.53,1.86,3.28-4.24,20.45-8.45,40.91-12.61,61.38-.36,1.78-1.08,2.53-2.96,2.51-7.22-.11-14.45-.11-21.67-.15Z"/>
  <path class="cls-11" d="M142.2,179.83c9.33-.13,17.37-4.26,24.88-9.01,20.31-12.83,33.47-30.96,38.86-54.55,.45-1.98,.57-3.91,.57-5.89,0-7.96,0-15.92,0-23.88,4.2,.97,7.9,2.94,11.12,5.76,4.63,4.07,7.73,8.62,7.34,15.42-.57,10.02,.72,20.21-3.49,29.78-10.17,23.06-26.52,39.37-51.2,46.37-9.86,2.79-19.15,.43-28.07-3.99Z"/>
  <path class="cls-2" d="M50.11,303.3c-4.17-.88-6.26-3.82-6.29-7.7-.17-17.69-.09-35.39-.07-53.08,0-.2,.26-.4,.4-.6,3.81-.76,7.66-.26,11.5-.33,5.72-.09,11.44-.03,17.16-.02,4.16,0,4.65,.32,4.68,4.28,.11,16.79,.18,33.57-.04,50.36-.06,4.87-1.35,7.96-7.63,7.5-6.55-.47-13.14,.35-19.7-.41Z"/>
  <path class="cls-4" d="M113.74,41.39c-.33,11.17,1.4,21.83,8.2,31.11,.87,1.19,.31,2.16-.07,3.13-1.55,3.99-4.46,6.87-8.05,9.03-4.39,2.64-9.14,4.53-13.98,6.17-1.19,.41-2.37,1.07-2.57-1.13-.84-9.64-3.29-19.15-2.91-28.88,.44-11.04,4.03-20.71,13.51-27.37,.81-.57,1.67-1.08,2.52-1.6,2.47-1.52,3.61-1.05,3.37,2.07-.18,2.48-.04,4.98-.04,7.47Z"/>
  <path class="cls-4" d="M205.63,74.42c1.46-.21,1.6-1.23,1.65-2.46,.67-15.21-.64-30-8.36-43.65-2.33-4.13-5.85-7.33-8.16-11.43,20.77,8.52,31.99,24.28,35.29,46.19,1.05,6.96,.49,13.9,.68,21.96-6.49-5.76-13.54-8.74-21.11-10.61Z"/>
  <path class="cls-15" d="M339.7,342.2c0-8.97,0-17.93-.01-26.9,9.82-.04,19.63-.04,29.45-.17,2.11-.03,2.8,.68,2.77,2.78-.1,7.21-.09,14.42,0,21.62,.03,2.07-.62,2.84-2.76,2.81-9.82-.12-19.63-.11-29.45-.15Z"/>
  <path class="cls-12" d="M50.11,303.3c6.72-.02,13.44-.04,20.16-.06,4.14-.01,5.97-1.49,5.99-5.73,.12-17.68,.02-35.36,.1-53.03,0-2.42-1.3-2.51-3.09-2.5-9.71,.01-19.42-.03-29.13-.06,.7-1.1,1.81-.59,2.71-.59,13.07-.02,26.13,.08,39.2-.02,2.63-.02,3.36,.78,3.34,3.36-.1,16.43-.01,32.85-.07,49.28-.02,6.64-3.27,9.86-9.86,9.93-8.59,.08-17.17,.06-25.76,.06-1.23,0-2.51,.18-3.6-.64Z"/>
  <path class="cls-11" d="M187.1,209.09c-4.15,4.74-9.79,6.53-15.66,7.69-10.12,1.99-20.03,1.27-29.38-3.35-7.01-3.46-10.78-8.96-9.57-17.12,3.4-.44,5.82,1.89,8.57,3.18,9.94,4.68,20.23,6.05,30.96,3.68,3.78-.83,7.32-2.45,10.95-3.78,3.85-1.41,4.96-.61,5.12,3.52,.08,2.12,.19,4.26-.98,6.18Z"/>
  <path class="cls-6" d="M187.1,209.09c-.01-2.37-.11-4.74-.02-7.1,.1-2.63-.86-2.96-3.13-1.95-7.67,3.4-15.52,5.72-24.14,5.32-8.98-.42-16.94-3.55-24.67-7.7-.88-.47-1.77-.91-2.66-1.36v-8.27c3.87,1.62,7.48,3.21,11.15,4.65,15.03,5.92,29.52,3.86,43.66-3.09,3.98-1.96,4.01-1.96,3.97,2.41-.03,3.24-.03,6.48-.31,9.7-.26,2.92-1.48,5.49-3.85,7.38Z"/>
  <path class="cls-10" d="M196.67,289.24c5.47,0,10.94,.07,16.41-.03,2.05-.04,2.58,.49,2.03,2.57-.83,3.11-1.41,6.3-1.9,9.49-.33,2.2-1.42,2.72-3.53,2.68-7.95-.12-15.91-.01-23.87-.06-6.05-.04-8.6-2.62-8.71-8.62q-.11-6.02,5.77-6.02c4.6,0,9.2,0,13.8,0Z"/>
  <path class="cls-16" d="M32.45,265.53c0,3.36-.11,6.72,.04,10.07,.09,2.01-.64,2.56-2.54,2.47-2.98-.14-5.97-.11-8.95-.02-2.66,.08-3.86-1-3.82-3.74,.09-5.97,.09-11.93,0-17.9-.04-2.71,1.15-3.87,3.79-3.83,2.98,.04,5.97,.11,8.95-.03,1.95-.09,2.63,.58,2.56,2.54-.12,3.48-.03,6.96-.03,10.44Z"/>
  <path class="cls-8" d="M235.52,128.71c.73-7,.47-13.96,.55-20.91,0-.7-.12-1.45,.74-1.91,5.13-2.78,11.65,1.05,11.7,6.91,.08,10.07-3.42,14.46-12.99,15.92Z"/>
  <path class="cls-9" d="M87.95,128.57c-10.32-.9-16.17-9.85-12.68-19.19,1.09-2.91,3.41-3.61,6.26-3.63,5.96-.03,5.93-.09,5.97,5.74,.03,5.69-.24,11.38,.45,17.08Z"/>
  <path d="M302.98,235.19c10.41,.01,18.74,8.27,18.6,18.4-.15,10.59-9.39,19.53-20.16,19.5-10.37-.03-18.66-8.28-18.56-18.46,.11-10.61,9.27-19.46,20.13-19.44Z"/>
  <path d="M163.32,164.17c-6.22,0-11.08-1.95-15.16-5.75-2.63-2.45-2.9-5.51-.87-7.97,2.02-2.46,5.06-2.7,7.97-.63,6.08,4.31,8.74,4.32,14.77,.04,2.94-2.09,5.96-1.88,7.99,.54,2.04,2.43,1.81,5.55-.79,8-4.06,3.83-8.93,5.75-13.91,5.78Z"/>
  <path class="cls-14" d="M139.17,114.48c0,.75,.03,1.49,0,2.24-.17,3.66-2.51,6.14-5.7,6.07-3.18-.07-5.38-2.54-5.51-6.26-.05-1.36-.05-2.73,0-4.1,.13-3.79,2.22-6.11,5.52-6.16,3.31-.05,5.53,2.27,5.69,5.98,.03,.74,0,1.49,0,2.24Z"/>
  <path class="cls-14" d="M186.27,114.51c0-.99-.07-1.99,.01-2.98,.28-3.17,2.04-5.03,5.22-5.22,3.22-.19,5.26,1.57,5.79,4.61,.38,2.17,.3,4.47,.09,6.68-.3,3.09-2.97,5.31-5.81,5.17-2.97-.15-5.09-2.4-5.3-5.66-.06-.87,0-1.74,0-2.61,0,0,0,0,.01,0Z"/>
  <path class="cls-5" d="M301.35,261.84c-4.03-.09-7.24-3.19-7.26-7.01-.02-4.53,4.39-8.58,9.15-8.4,4.02,.15,7.22,3.37,7.09,7.16-.14,4.43-4.41,8.35-8.99,8.25Z"/>
</svg>