<?xml version="1.0" encoding="UTF-8"?>
<svg id="Layer_1" data-name="Layer 1" xmlns="http://www.w3.org/2000/svg" viewBox="0 0 383.17 295.28">
  <defs>
    <style>
      .cls-1 {
        fill: #fdddce;
      }

      .cls-2 {
        fill: #fbc0ab;
      }

      .cls-3 {
        fill: #fccfbe;
      }
    </style>
  </defs>
  <path d="M100.23,257.5c-4.86-.27-6.96-1.53-7.2-6.23-.51-10.28-5.35-16.87-14.07-22.4-11.61-7.35-21.02-17.54-28.55-29.11-8.88-13.64-21.19-20.47-37.39-20.58-6.74-.05-10.36-4.37-13.02-9.89v-49.39c2.58-7.16,7.57-10.27,15.27-10.71,9.29-.53,16.4-5.52,19.65-14.38,5.31-14.43,12.72-27.52,22.81-39.1,1.09-1.26,1.34-2.42,1.07-4.06-1.7-10.33-2.79-20.75-3.47-31.19-1.01-15.67,12.81-24.96,27.06-18.28,8.77,4.11,17.45,8.45,26.1,12.81,1.93,.97,3.48,1.13,5.56,.24C143.93,2.54,175.1-1.44,207.3,1.51c3.1,.28,5.02,1.6,6.33,4.35,7.08,14.94,14.17,29.87,21.37,44.75,1.58,3.27,.78,5.87-1.06,8.68-22.05,33.47-44.02,67-66.1,100.45-1.49,2.25-1.6,3.87-.35,6.33,14.72,29.05,29.29,58.17,43.89,87.27,3.7,7.37,1.71,10.68-6.57,10.92-1.37,.04-2.74,.08-4.11,.1q-7.9,.13-9.83,7.6c-1.19,4.57-2.31,9.17-3.68,13.69-1.82,6.02-6.11,9.49-12.34,9.53-20.82,.12-41.65,.12-62.47,0-6.78-.04-11.38-4.16-12.85-10.83-.29-1.34-.46-2.7-.8-4.03-.93-3.71,.29-6.33,3.81-7.86,3.88-1.26,6.16-.07,7.66,4.03q2.32,6.29,8.9,6.29c4.74,0,9.47,0,14.21,0,4.91,0,4.94,0,6.07-4.64,1.87-7.63,3.63-15.28,5.47-22.91,1.46-6.05,4.45-7.98,10.58-6.88,12.27,2.22,24.6,3.89,37.12,3.75,4.27-.05,4.41-.24,2.44-4.18-12.14-24.31-24.29-48.62-36.45-72.93-1.13-2.25-2.34-4.64-5.27-2.59-6.5,4.54-14.03,5.66-21.55,6.75-5.67,.82-10.53,2.6-13.76,7.76-1.16,1.86-3.01,3.32-4.73,4.76-2.71,2.29-6,2.31-8.5,.15-2.6-2.24-3.31-5.56-1.13-8.37,3.89-5.01,8.03-9.86,12.91-13.98,1.28-1.08,2.92-1.36,4.51-1.69,4.39-.91,8.8-1.86,13.24-2.43,7.71-.99,13.95-5.13,20.44-8.78,1.23-.69,1.98-1.87,2.73-3.02,20.73-31.72,41.51-63.41,62.45-94.99,2.07-3.12,2.68-5.74,.97-9.28-5.42-11.22-10.8-22.46-16.15-33.72-.8-1.68-2.08-2.32-3.87-2.4-24.61-1.11-48.8,.97-72.17,9.4-.23,.08-.47,.18-.71,.25-2.27,.65-2.58,1.47-.56,3.08,4.33,3.45,7.92,7.51,10.37,12.58,3.48,7.22,4.59,14.67,3,22.53-.8,3.98-2.38,5.45-6.78,6.22-5.07-1.4-6.92-3.43-6.13-8.54,1.77-11.52-3.29-19.46-12.45-25.48-12.12-7.96-25.23-14.06-38.43-19.92-5.66-2.51-9.72,.25-9.28,6.31,1.09,15.01,2.29,30,6.41,44.62,5.36,19.03,25.57,23.15,39.04,16.22,5.54-2.85,7.97-2.18,10.87,2.68,.64,4.55-.34,6.67-4.87,8.92-8.97,4.46-18.35,6.04-28.3,3.74-12.64-2.92-21.8-9.93-27.06-21.92-1.77-4.05-2.01-4.01-4.47-.36-4.89,7.27-9.01,14.97-11.95,23.22-5.22,14.64-15.63,22.75-30.83,24.71-3.41,.44-4.4,1.72-4.37,4.94,.11,11.97,.11,23.93,0,35.9-.03,3.09,.95,4.46,4.2,4.7,11.54,.85,22.24,4.05,31.46,11.46,4.34,3.49,7.84,7.65,10.95,12.18,9.88,14.38,22.2,26.22,37.12,35.26,3.45,2.09,5.6,4.74,6.25,8.75,.86,5.29,2.4,10.46,2.9,15.81,.38,4.1-1.05,6.03-4.83,7.07Z"/>
  <path class="cls-1" d="M134.25,66.67c3.82-.82,5.35-3.19,5.84-7.08,1.76-14.05-3.18-25.11-14.16-33.73-.69-.54-1.37-1.08-2.04-1.63-.09-.07-.13-.2-.39-.6,8.09-3.52,16.5-5.79,25.01-7.69,17.39-3.88,35.01-4.72,52.76-3.78,2.35,.12,3.48,1.03,4.43,3.06,5.65,12.04,11.37,24.04,17.19,35.99,.95,1.95,.76,3.29-.41,5.06-21.64,32.84-43.22,65.72-64.77,98.62-1.07,1.63-2.51,2.61-4.08,3.66-9.5,6.34-20.34,8.39-31.32,9.98-3.48,.5-6.29,1.79-8.56,4.65-2.63,3.31-5.67,6.29-8.47,9.47-2.69,3.07-2.72,6.29-.19,8.58,2.47,2.23,6.17,2.14,8.44-1.17,5.79-8.45,13.75-12.36,23.73-12.88,6.29-.33,11.64-3.34,16.93-6.38,1.67-.96,2.64-1.16,3.69,.94,13.33,26.69,26.75,53.33,40.13,79.99,.15,.3,.14,.69,.26,1.3-8.44,.47-16.72-.07-24.96-1-6.43-.73-12.81-1.83-19.21-2.83-4.83-.76-7.01,.57-8.13,5.26-2.08,8.71-4.19,17.41-6.1,26.15-.57,2.61-1.61,3.59-4.42,3.49-6.47-.25-12.98-.36-19.44,.02-4.11,.24-5.72-1.08-6.21-5.14-.62-5.15-2.32-6.36-7.3-6.52-.76-4.99-1.53-9.98-2.29-14.97,3.53-1.72,4.65-4.46,3.81-8.29-1.17-5.34-2.12-10.74-3.17-16.11-.43-2.18-1.51-3.86-3.49-5.04-16.86-10.06-30.31-23.52-41.51-39.67-9.6-13.83-23.93-19.78-40.5-20.33-3.32-.11-4.24-1.19-4.21-4.39,.15-12.96,.13-25.92,0-38.88-.03-3,.86-4.03,3.99-4.29,14.71-1.24,25.23-8.54,30.56-22.52,3.52-9.23,7.8-18.02,13.54-26.07,.91-1.28,1.61-2.79,3.27-3.7,.46,1.23,.88,2.36,1.3,3.48,9.39,24.74,37.81,29.24,56.08,19,3.07-1.72,4.06-4.17,3.56-7.46-1.02-1.75,0-3,1.01-4.28,2.6-3.27,5.17-6.56,6.77-10.48,.54-1.32,1.24-2.49,3.01-1.8Z"/>
  <path class="cls-1" d="M211.01,125.94c2.08-.15,2.81-1.86,3.62-3.31,2.49-4.44,6.27-8.14,7.66-13.22,5.01,1.15,7.77-1.63,10.21-5.48,8.21-12.94,16.86-25.6,25.15-38.49,2.82-4.38,3.1-4.37,7.61-1.57,1.69,1.05,3.3,2.4,5.11,3.08,6.3,2.37,7.32,7.54,7.4,13.23,.1,6.47,.11,12.94,.72,19.4,.27,2.8,1.03,5.09,3.14,6.89,8.93,7.58,17.81,15.2,26.72,22.81,2.5,2.14,5.74,2.03,7.43,.09,1.78-2.04,1.34-4.68-1.49-7.14-7.8-6.79-15.75-13.4-23.51-20.24-1.02-.9-2.25-1.71-2.59-3.12-2.03-8.27-1.44-9.8,6.83-8.86,5.07,.58,10.13,1.27,15.24,1.35,3.61,.06,5.55-1.25,5.82-3.87,.28-2.68-1.2-4.5-4.85-5.01-6.4-.9-12.85-1.49-19.31-1.97-3.95-.29-4.71-.88-5.36-4.75-.19-1.11-.33-2.25-.2-3.35,.58-4.9-1.77-7.94-5.9-10.21-5.02-2.76-9.76-6.01-14.65-9-2.23-1.36-3.79-3.15-4.84-5.5-4.49-10.01-9.44-19.79-14.07-29.73-.52-1.11-1.42-2.37-.61-3.5,.84-1.17,2.31-.6,3.51-.39,13.94,2.39,27.4,6.4,40.41,11.96,.23,.1,.45,.22,.67,.33,4.33,2.12,8.64,4.45,13.53,1.48,4.74,2.11,9.16,4.81,13.56,7.52-.55,5.19,2.69,7.96,6.44,10.68,5.09,3.69,9.99,7.66,13.99,12.6,5.48,8.5,10.58,17.2,14.01,26.77,3.8,10.64,5.91,21.52,6.34,32.87,1.08,28.68-8.83,53.3-27.14,74.78-8.92,10.46-19.06,19.8-31.04,26.73-6.61,3.83-10.09,8.89-11.04,16.56-1.83,14.71-4.27,29.35-6.43,44.02-.2,1.36-.29,2.75-1.5,3.69-3.64,1.28-7.39,.63-11.09,.53-2.42-.06-2.88-2.08-3.27-3.93-1.37-6.59-2.66-13.19-3.99-19.79-.25-1.22-.48-2.45-.8-3.65-1.18-4.48-2.92-5.77-7.53-5.27-4.08,.44-8.14,1.09-12.24,1.47-2.45,.23-4.08-.68-5.16-2.81-.51-1-1.04-1.99-1.54-2.99-13.33-26.64-26.58-53.32-40.04-79.89-1.74-3.44-1.72-6.1,.55-9.24,4.6-6.36,8.51-13.2,13.02-19.62,2.96-4.22,5.18-8.12,1.48-12.92Z"/>
  <path d="M211.01,125.94c4.17,3.22,4.58,5.37,1.71,9.78-5.37,8.24-10.71,16.5-16.23,24.64-1.34,1.98-1.58,3.46-.45,5.68,14.15,27.95,28.21,55.95,42.19,83.98,1.06,2.13,2.15,2.87,4.53,2.47,4.29-.72,8.64-1.17,12.98-1.57,4.73-.44,6.7,1.07,7.61,5.64,1.56,7.81,3.18,15.6,4.59,23.44,.52,2.9,1.54,4.48,4.83,4.1,2.83-.33,5.71-.19,8.57-.26,3.12-1.92,6.57-.85,9.87-1,4.5-.2,4.64-.11,5.33-4.38,2.05-12.68,4.29-25.33,6.09-38.04,.65-4.61,2.84-7.37,6.71-9.55,11.47-6.45,22.01-14.2,31.11-23.74,15.34-16.09,25.74-34.79,29.23-56.99,3.82-24.36-1.63-46.76-14.24-67.68-5.17-8.58-11.87-15.99-18.01-23.82-5.04-5.47-10.83-10.07-16.86-14.37-3.31-2.36-4.39-5.16-2.59-8.91,2.58-2.39,5.31-3.07,8.38-.83,26.39,19.2,46.05,43.35,53.68,75.68,8.3,35.16-.24,66.76-22,95.14-1.37,1.78-2.48,3.48-2.85,5.88-2.88,18.97-4.88,38.04-7.29,57.06-.67,5.31-1.3,10.63-2.14,15.92-1.04,6.51-6.01,10.98-12.64,11.01-20.94,.11-41.88,.11-62.83-.02-6.72-.04-11.42-4.21-12.83-10.85-1.32-6.21-2.7-12.41-3.67-18.67-.43-2.75-1.59-3.17-3.94-2.82-3.94,.59-7.91,.98-11.86,1.49-3.23,.41-5.44-.76-6.94-3.75-15.75-31.44-31.54-62.85-47.38-94.24-1.49-2.95-1.02-5.37,.73-7.99,6.36-9.52,12.68-19.07,18.85-28.71,1.92-3.01,4.26-4.39,7.77-3.7Z"/>
  <path d="M304.42,27.83c-2.67,3.16-5.66,3.27-9.29,1.52-14.88-7.19-30.56-11.87-46.85-14.55-.46-.08-.94-.11-1.9-.21,3.97,8.3,8.22,16.05,11.41,24.22,3.38,8.65,8.54,15.19,17.1,18.93,.68,.3,1.24,.85,1.92,1.15,7.65,3.34,12.38,8.46,10.9,17.51-.36,2.21,.83,2.95,3.02,3.1,6.71,.47,13.41,1.1,20.1,1.82,4.66,.5,6.92,2.93,6.44,6.51-.47,3.43-3.08,5.01-7.62,4.6-6.08-.56-12.17-1.01-18.23-1.74-2.83-.34-3.17,.65-3.13,3.22,.06,3.66,1.38,6.15,4.24,8.47,7.55,6.12,14.83,12.57,22.21,18.9,3.62,3.11,4.27,6.18,1.92,8.96-2.3,2.72-5.67,2.59-9.18-.41-8.81-7.52-17.58-15.11-26.44-22.57-2.36-1.99-3.52-4.19-3.59-7.35-.2-8.47-.79-16.93-1.04-25.4-.06-2.17-.89-3.35-2.68-4.37-3.35-1.91-6.68-3.89-9.82-6.11-2.21-1.57-3.29-1.37-4.82,1.01-9.02,14.03-18.22,27.94-27.4,41.87-2.8,4.25-4.84,4.75-9.37,2.53-2.45-2.96-1.99-5.78,.04-8.84,9.63-14.51,19.11-29.12,28.78-43.61,1.34-2.01,1.45-3.51,.39-5.68-6.36-13.07-12.54-26.22-18.83-39.32-1.23-2.56-2.32-5.05-.33-7.68,1.84-2.44,4.35-2.31,7.09-2.02,21.08,2.24,41.21,7.9,60.44,16.78,4.68,2.16,5.44,3.62,4.55,8.78Z"/>
  <path class="cls-3" d="M134.25,66.67c-.72,.18-1.44,.29-1.75,1.14-1.78,4.83-4.75,8.91-8.17,12.68-.74,.82-.87,1.73-.87,2.74-3.13-4.05-4.85-4.48-9.17-2.3-18.25,9.21-36.07,1.44-41.67-18.22-3.12-10.96-4.07-22.27-5.25-33.54-.36-3.47-.79-6.94-.91-10.43-.18-5.57,4.83-9.34,9.83-6.98,13.71,6.46,27.7,12.43,40.31,21.04,9.21,6.29,14.07,14.49,12.24,26.04-.76,4.77,.5,6.18,5.41,7.82Z"/>
  <path class="cls-2" d="M160.13,283.82q-9.68,.86-7.51-8.51c.9-3.87,2.03-7.7,2.71-11.61,.41-2.36,1.45-2.73,3.53-2.35,6.61,1.19,13.28,2.06,20,2.38,2.05,.1,2.56,.84,1.88,2.81-.96,2.8-1.68,5.68-2.51,8.52-3.53-1.74-7.45-1.39-11.18-2.02-2.53-.43-3.4,1.29-4.03,3.35-.78,2.54-.7,5.43-2.89,7.43Z"/>
  <path class="cls-3" d="M160.13,283.82c.75-3,1.55-5.99,2.22-9.02,.36-1.65,1.24-3.06,2.88-2.89,4.05,.42,8.18,.36,12.1,1.64,.42,.14,.61,.99,.91,1.51q-1.39,8.96-10.38,8.95c-2.58,0-5.15-.13-7.73-.2Z"/>
  <path d="M79.64,136.99c-6.7-.23-12.66-2.34-17.56-7.03-2.72-2.61-2.97-5.8-.74-8.23,2.15-2.34,5.37-2.67,7.95-.21,5.51,5.27,14.53,5.68,20.55-.07,2.55-2.44,5.88-2.02,7.95,.35,2.04,2.33,1.84,5.56-.65,8.01-4.85,4.75-10.81,6.87-17.5,7.17Z"/>
  <path class="cls-3" d="M337.44,58.62c40.67,38.81,47.17,97.78,9.52,142.73-10.59,12.65-23.32,22.74-37.73,30.69-3.42,1.89-4.96,4.33-5.53,8.13-2.07,13.9-4.46,27.75-6.64,41.63-.28,1.76-1.01,2.29-2.67,2.24-4.35-.13-8.7-.15-13.05-.22,1-6.21,2.06-12.42,2.98-18.65,1.59-10.76,3.02-21.55,4.66-32.31,.97-6.41,5.18-10.24,10.49-13.61,22.31-14.19,39.73-32.68,50.39-57.29,7.02-16.2,9.11-33.09,7.62-50.32-1.56-18.09-7.96-34.75-18.3-49.79-.68-.99-1.74-1.85-1.74-3.23Z"/>
  <path class="cls-3" d="M339.81,239.87c-1.62,13.81-3.24,27.63-4.85,41.44-.22,1.93-1.14,2.8-3.18,2.74-4.84-.16-9.68-.17-14.52-.24-.87-4.92,1.05-9.55,1.52-14.33,.44-4.44,1.51-8.82,2.13-13.24,.82-5.91,3.68-10.44,8.75-13.63,2.42-1.52,4.57-3.44,6.95-5.02,.89-.59,1.96-1.61,3-.82,.95,.73,.49,2.03,.21,3.11Z"/>
  <path class="cls-2" d="M339.81,239.87c-.09-.85-.18-1.71-.32-3.1-5.12,3.91-10.73,6.71-14.64,11.52-3.16,3.89-2.9,9.05-3.83,13.73-1.45,7.23-1.88,14.63-3.76,21.79-9.58,.87-9.49,.88-7.91-8.27,1.76-10.17,3.32-20.38,4.98-30.56,.24-1.45,.23-2.97,1.8-3.87,9.08-5.18,17.48-11.33,26.23-18.94-.95,6.58-1.75,12.14-2.56,17.7Z"/>
</svg>