<?xml version="1.0" encoding="UTF-8"?>
<svg id="Layer_1" data-name="Layer 1" xmlns="http://www.w3.org/2000/svg" viewBox="0 0 361.67 383.13">
  <defs>
    <style>
      .cls-1 {
        fill: #fedf2f;
      }

      .cls-2 {
        fill: #b4dbfe;
      }

      .cls-3 {
        fill: #fcde2e;
      }

      .cls-4 {
        fill: #8ac9fe;
      }

      .cls-5 {
        fill: #fe7e86;
      }

      .cls-6 {
        fill: #e9b800;
      }

      .cls-7 {
        fill: #fe636e;
      }

      .cls-8 {
        fill: #fac600;
      }

      .cls-9 {
        fill: #fd7e86;
      }

      .cls-10 {
        fill: #daecfe;
      }
    </style>
  </defs>
  <path d="M34.9,383.13c-6.4-1.57-12.69-3.35-18.1-7.37C5.21,367.18-.01,355.57,0,341.29c.05-53.61,.02-107.22,.02-160.84,0-17.58,.07-35.16-.02-52.74-.09-17.99,7.18-31.96,22.29-41.83,3.33-2.18,6.67-4.38,9.8-6.84,11.05-8.68,14.22-20.52,13.36-33.93-.09-1.36-.84-1.45-1.89-1.73-8.95-2.39-13.55-8.33-13.66-17.57-.03-2.87-.08-5.74,0-8.6C30.22,6.97,37.34,.02,47.62,.02,86.4-.01,125.17,0,163.94,0c22.32,0,44.63,0,66.95,0,11.29,0,18.17,6.8,18.31,18.05,.04,3.12,.1,6.24-.05,9.35-.36,7.88-5.27,14.06-12.9,15.84-2.08,.48-2.4,1.25-2.52,3.14-1.03,15.89,4.98,28.05,18.63,36.48,4.97,3.07,9.87,6.32,13.92,10.64,8.77,9.35,12.86,20.44,12.82,33.26-.1,28.3-.03,56.6-.03,84.91,0,16.08,.09,32.17-.07,48.25-.03,3.24,.57,4.38,4.15,4.34,19.7-.2,39.4-.11,59.09-.09,11.78,0,19.22,7.27,19.34,18.98,.09,8.6,0,17.21,.03,25.81,.02,3.44-.94,6.15-4.65,7.11-4.75,.99-7.18-.7-7.39-5.58-.3-6.98-.07-13.96-.11-20.95-.01-1.87,.07-3.74-.11-5.61-.52-5.38-2.48-7.28-7.91-7.31-16.58-.08-33.17-.03-49.75-.03-31.67,0-63.35,0-95.02,0-1.25,0-2.49,.06-3.74-.09-8.83,.15-17.66,0-26.5,.08-6.37,.06-8.36,1.96-8.38,8.22-.06,25.88-.05,51.76,0,77.64,.01,6.3,1.99,8.23,8.3,8.3,8.83,.1,17.67-.09,26.5,.09,9.34-.22,18.68-.08,28.01-.09,38.97-.02,77.94,0,116.91,0,1.49,0,2.99,.04,4.48-.04,4.43-.23,6.26-1.84,6.95-6.25,.48-3.09,.21-6.22,.24-9.33,.06-6.1-.19-12.21,.11-18.3,.24-4.86,2.65-6.55,7.4-5.57,3.28,.84,4.61,3.13,4.62,6.33,.01,9.31,.2,18.63-.07,27.93-.24,8.29-4.6,13.9-12.39,16.82-.53,.2-1.28,0-1.46,.83H34.9Z"/>
  <path class="cls-5" d="M356.98,331.22c-5.02,.31-6.54,1.86-6.56,6.96-.04,8.6,.04,17.19-.04,25.79-.05,5.42-2.49,7.91-7.69,7.92-49.59,.02-99.17,0-148.76,0-.37,0-.74-.07-1.11-.11-1.31-.92-1.81-2.31-2.12-3.79-.82-3.93-.56-7.89-.36-11.85,.05-1,.38-1.95,1.35-2.5,.84-.32,1.71-.17,2.58-.19,3.62-.07,5.23-1.48,5.56-5.1,.29-3.22,.1-6.47,.11-9.7,.02-10.08-.04-20.16,.03-30.24,.03-4.88,.78-5.55,5.67-5.67,1.49-.04,2.99,.04,4.48-.09,2.7-.22,4.94-1.25,5.48-4.15,.55-2.96-1.55-4.19-3.9-5.07-4.55-1.12-9.17-.42-13.75-.5-7.63-.13-7.92-.29-7.77-8.05,.06-3.32-.23-6.81,2.65-9.36,1.24-.04,2.49-.12,3.73-.12,48.22,0,96.44,0,144.66,0,7.1,0,9.19,2.04,9.2,9.05,.02,8.22-.02,16.45,.02,24.67,.03,5.11,1.55,6.66,6.56,6.95-2.29,3.78-.53,7.93-1.04,11.87-.15,1.19-.26,2.5,1.03,3.3Z"/>
  <path class="cls-10" d="M149.56,82.43c-2.13-4.34-3.77-5.12-8.26-3.92-28.8,7.69-47.39,34.57-44.56,64.58,.18,1.95-.54,2.55-2.07,3.26-24.93,11.62-38.29,33.51-36.49,60.78,1.1,16.7,8.68,30.41,21.31,41.34,.94,.81,1.93,1.57,2.89,2.37,.05,.04-.02,.21-.08,.67H47.77c-2.05,.72-2.33-.79-2.58-2.15-.29-1.6-.17-3.23-.17-4.85,0-39.35,.16-78.7-.08-118.04-.1-15.89,6.54-27.71,19.42-36.47,4.94-3.35,10.13-6.4,14.29-10.77,7.25-7.61,11.36-16.52,11.3-27.21-.01-2.67-.71-5.51,1.06-7.98,1.24-.08,2.47-.22,3.71-.22,41.27-.01,82.55,.03,123.82-.09,3.3,0,4.25,.77,4.09,4.11-.94,19.29,7.12,33.91,23.36,44.18,2.1,1.33,4.13,2.79,6.17,4.21,10.36,7.21,15.68,17.09,15.68,29.76,0,21.7,0,43.39,0,65.09,0,22.94-.06,45.89,.07,68.83,.02,3.21-.54,4.34-4.12,4.32-32.79-.16-65.59-.09-98.38-.12-2.64,0-5.52,1.27-7.66,.65-2.04-.58-1.44-4.49-3.02-6.56-1.15-1.5-2.41-2.84-3.84-4.1,.29-1.27,1.52-1.51,2.36-2.13,18.68-13.86,27.43-32.37,25.77-55.6-.17-2.37,.77-2.96,2.46-3.74,34.16-15.65,46.64-55.93,27.05-87.76-8.48-13.77-20.85-22.48-36.46-26.64-3.97-1.06-6.08,.94-7.61,4.17-4.97,1.66-9.93,1.68-14.9,0Z"/>
  <path class="cls-2" d="M91.02,44.06c.05,8.07,.41,16.12-3.16,23.78-4.04,8.67-10.38,15.05-18.35,20.03-8.42,5.27-16.1,11.25-20.11,20.79-1.93,4.61-3.34,9.27-3.33,14.39,.08,41.38,.03,82.76,.08,124.14,0,1.53-.99,3.67,1.62,4.33-9.41,3.04-12.28,6.98-12.29,16.9,0,2.62,.14,5.24-.03,7.85-.5,8.14,2.98,13.62,10.67,16.39,1.48,1.69,1.1,3.76,1.11,5.72,.03,14.71,.21,29.42-.05,44.12-.18,9.82,3.15,17.99,9.97,25.01,.18,.35,.45-.4,.1-.04-.1,.1-.21,.03-.29-.23-1.3-4.01-.81-8.08-.29-12.13,.08-.62,.54-1.11,1.28-1.12,0,5.24,0,10.47,.02,15.71,0,1.08,.42,2.29-1.46,2.23-6.97-.22-14.01,.69-20.92-.42-13.83-2.21-23.03-12.45-24.2-26.42-.16-1.86-.16-3.74-.16-5.6,0-69.96,.13-139.92-.11-209.88-.05-15.46,5.5-27.22,18.75-35.37,4.55-2.8,9.02-5.79,12.86-9.6,10.04-9.99,14.54-22.14,13.84-36.17-.18-3.63,.6-4.9,4.55-4.74,9.95,.4,19.93,.26,29.89,.34Z"/>
  <path class="cls-1" d="M125.53,153.29c19.16,1.46,37.49,18.58,41.65,38.89,5.8,28.31-14.21,55.91-42.9,59.16-.61,.07-1.24,0-1.86-.02-8.49-2.43-14.4-8.47-19.36-15.14-13.13-17.64-15.25-36.95-6.64-57.15,4.51-10.57,11.99-18.84,21.92-24.78,2.26-1.35,4.69-1.48,7.2-.96Z"/>
  <path class="cls-8" d="M165,86.08c1.39,2.15,3.63,2.88,5.92,3.57,19.4,5.81,33.57,22.5,35.32,41.58,1.97,21.48-8.29,40.48-26.85,50.13-2.54,1.32-3.55,1.08-4.45-1.62-1.58-4.75-4.14-9.05-7.08-13.08-1.02-1.4-1.18-1.97,.57-2.95,6.3-3.52,9.69-8.91,9.05-16.26-.69-7.93-5.6-12.47-12.8-14.86-4.01-1.33-8.16-2.3-11.68-4.78-3.51-2.47-3.38-5.34,.33-7.55,3.64-2.16,7.2-1.38,10.6,.59,1.28,.74,2.4,1.77,3.62,2.63,2.8,1.98,5.64,1.77,7.71-.52,2.1-2.33,1.93-5.6-.56-8.02-2.43-2.36-5.22-4.32-8.43-5.39-2.1-.7-2.9-1.65-2.87-3.95,.04-4.05-2.31-6.55-5.6-6.56-3.31,0-5.55,2.46-5.48,6.57,.04,2.26-.79,3.14-2.8,4.04-6.12,2.74-10.02,7.48-10.36,14.34-.32,6.44,3.57,10.61,8.63,13.86,3.92,2.52,8.34,3.8,12.74,5.16,2.78,.86,5.55,1.94,5.81,5.48,.19,2.53-1.11,4.34-3.29,5.39-2.8,1.35-5.43,1.77-8.29-.5-7.12-5.65-15.43-8.86-24.2-10.94-.7-1.09-.86-2.3-.87-3.56-.06-22.55,11.58-42.39,31.44-51.93,1.2-.58,2.39-1.43,3.86-.89Z"/>
  <path class="cls-2" d="M76.82,11.35c1.24-.04,2.49-.12,3.73-.12,49.76,0,99.51,0,149.27,0,6.59,0,8.15,1.55,8.17,8.11,0,2.49,.08,4.99-.05,7.48-.18,3.28-1.77,5.35-5.29,5.48-1.21,.43-2.47,.23-3.71,.23-49.33,.01-98.66,.01-147.99,0-5.22,0-5.66-.35-6.45-5.47-.59-3.84-.59-7.69,.14-11.53,.31-1.61,.74-3.17,2.18-4.2Z"/>
  <path class="cls-7" d="M192.01,353.94c-1.45,6.02-.97,11.96,.8,17.84-9.59,.04-19.18,.14-28.77,.1-4.41-.02-7.1-2.58-7.11-6.94-.06-27.53-.06-55.06,0-82.6,.01-4.36,2.7-6.92,7.11-6.94,9.59-.04,19.18,.06,28.77,.1-1.66,4.4-1.55,8.98-1.55,13.57,0,2.11,.77,2.84,2.84,2.79,4.85-.1,9.69-.05,14.54-.01,1.21,0,2.51-.37,3.58,.56-1.3,1.6-3.15,1.27-4.84,1.29-7.58,.06-15.16,.02-22.75,.03-1.24,0-2.49-.03-3.73,.03-3.83,.19-5.92,1.75-5.87,4.34,.06,2.49,2.31,4.22,5.92,4.5,1.98,.16,3.98,.04,5.96,.15,2.56,.15,3.83,1.47,3.94,4.01,.05,1.24,.07,2.48,.07,3.73,0,7.83-.05,15.66,.02,23.49,.06,6.66-.57,13.37,1.06,19.95Z"/>
  <path class="cls-8" d="M125.53,153.29c-5.72-.51-9.61,3.28-13.35,6.46-23.09,19.63-26.48,53.4-7.79,76.84,4.9,6.15,11.1,10.95,18.03,14.74-26.03,2.34-49.76-16.91-52.99-42.99-3.26-26.32,15.09-50.98,40.94-55.03,5.05-.79,10.1-1.2,15.16-.02Z"/>
  <path class="cls-6" d="M165,86.08c-6.53,2.85-12.67,6.46-17.64,11.51-7.57,7.7-13.04,16.75-15.19,27.55-1.14,5.72-1.65,11.49-1.61,17.32-6.8-1.14-13.62-1.64-20.45-.41-2.62,.47-2.49-1.11-2.57-2.81-1.11-22.53,13.69-43.22,35.57-49.53,3.83-1.1,6.74-2.68,6.45-7.27,4.97-.48,9.93-.46,14.9,0,.18,1.22,.36,2.44,.54,3.65Z"/>
  <path class="cls-8" d="M143.73,263.29c.23,.08,.55,.08,.69,.24,1.41,1.62,1.86,15.29,.6,16.93-.77,1-1.84,1.2-2.98,1.2-20.25-.06-40.5-.13-60.75-.2-2.3-5.41-1.17-11.01-.81-16.53,.15-2.27,2.25-1.87,3.83-1.87,11.72,0,23.43-.06,35.15,.02,8.09,.05,16.19-.34,24.27,.23Z"/>
  <path class="cls-4" d="M76.82,11.35c-1.87,6.06-1.85,12.18-.78,18.38,.29,1.69,1.06,2.41,2.69,2.38,1-.02,1.99,0,2.99,0,48.69,0,97.38,0,146.08,0,1.62,0,3.23,.11,4.84,.17-1.17,.64-2.44,.34-3.66,.34-59.65,0-119.31-.01-178.96-.03-7.49,0-8.9-1.44-8.91-9-.01-12.21,.16-12.39,12.18-12.37,7.84,.01,15.69,.08,23.53,.12Z"/>
  <path class="cls-10" d="M57.95,353.99c-1.4,3.35-.31,6.86-.62,10.29-.12,1.31-.02,2.64-.02,4.84-6.94-6.67-11.01-13.85-11.12-22.67-.22-17.92-.07-35.85-.07-53.78,3.23,.08,6.46,.27,9.69,.21,1.85-.04,2.26,.58,2.2,2.37-.16,4.6-.79,9.36,.13,13.76,1.19,5.67,1.22,10.91,.02,16.6-.98,4.64-.17,9.66-.14,14.51,0,.62-.11,1.4,.21,1.83,3.06,4.12,1.24,8.07-.28,12.05Z"/>
  <path class="cls-1" d="M103.75,353.26c13.18-.05,26.36-.06,39.54-.2,2.09-.02,2.4,.77,2.42,2.6,.05,5.33-.64,10.7,1.07,16.12h-43.02c-.87-.82-1.18-1.91-1.1-3.01,.36-5.17-1.31-10.49,1.1-15.51Z"/>
  <path class="cls-3" d="M145.36,293.29c.54,6.02,.43,12.05,.06,18.07-7.08,.68-14.18,.18-21.26,.28-5.98,.09-11.97-.07-17.95,.06-2.4,.05-3.48-.92-3.58-3.19-.18-4.11-.21-8.23,.01-12.33,.09-1.68,.49-3.24,2.76-3.21,13.32,.2,26.64-.39,39.96,.32Z"/>
  <path class="cls-8" d="M103.74,323.27c13.28-.06,26.56-.1,39.84-.21,1.64-.01,2.14,.56,2.11,2.15-.12,5.33-.14,10.67-.2,16-1.29,.72-2.68,.35-4.02,.36-11.56,.03-23.13-.1-34.69,.09-3.24,.05-4.38-1.29-4.19-4.12,.32-4.76-1.25-9.68,1.15-14.27Z"/>
  <path class="cls-8" d="M145.36,293.29c-12.59,.02-25.18,.15-37.76,0-3.18-.04-4.13,.96-3.92,4.03,.24,3.47,.22,6.99,0,10.46-.18,2.82,.82,3.61,3.6,3.59,12.71-.12,25.42-.02,38.14,0-1.03,1.09-2.35,.5-3.51,.5-22.32,.03-44.63,.02-66.95,0-5.38,0-5.8-.43-5.81-5.69,0-2.62,0-5.24,0-7.86,.02-4.98,.41-5.4,5.28-5.41,11.47-.03,22.94-.03,34.41-.04,10.97,0,21.94-.02,32.91,.02,1.2,0,2.49-.44,3.61,.4Z"/>
  <path class="cls-6" d="M143.73,263.29c-19.25,.05-38.5,.2-57.76,.05-3.71-.03-5.08,.81-4.76,4.7,.36,4.44,.08,8.94,.08,13.41-10.33,.07-20.66,.13-30.99,.2-2.46,.01-3.64-1.18-3.6-3.69,.06-3.61,.12-7.23-.02-10.83-.12-3.29,1.44-4.39,4.53-4.37,10.34,.07,20.67,0,31.01,0,19.3,0,38.61-.01,57.91,0,1.2,0,2.5-.39,3.6,.51Z"/>
  <path class="cls-6" d="M103.74,323.27c0,4.73,.15,9.46-.06,14.18-.13,2.9,.71,3.87,3.74,3.83,12.69-.16,25.38-.07,38.07-.07-.87,1.42-2.24,.66-3.34,.66-22.56,.04-45.13,.02-67.69,0-4.87,0-5.29-.44-5.31-5.39-.01-3.24,.04-6.48,0-9.72-.03-2.47,1.04-3.7,3.57-3.68,10.34,.08,20.68,.13,31.02,.19Z"/>
  <path class="cls-8" d="M103.75,353.26c0,6.17,0,12.35,0,18.52-10.32,.04-20.64,.07-30.95,.13-2.47,.01-3.66-1.18-3.65-3.64,.02-3.85,.02-7.71,0-11.56-.01-2.48,1.16-3.62,3.65-3.6,10.32,.08,20.63,.11,30.95,.16Z"/>
  <path d="M312.58,354.61c-5.62-.19-10.61-1.52-14.97-4.71-2.95-2.16-3.66-5.12-2.02-7.8,1.7-2.77,4.97-3.51,8.16-1.5,4.15,2.62,8.5,3.5,13.18,2.05,2.86-.89,5.17-2.44,5.48-5.85,.33-3.65-1.82-5.51-4.82-6.65-2.2-.84-4.49-1.45-6.74-2.17-2.86-.91-5.57-2.14-8.11-3.73-6.12-3.83-10.29-8.82-8.94-16.58,1.32-7.57,6.34-12.05,13.39-14.05,9.29-2.63,17.14,.67,23.88,7.02,2.35,2.22,2.29,5.52,.28,7.73-2.02,2.23-5.08,2.51-7.74,.46-2.48-1.91-4.92-3.75-8.06-4.52-2.31-.57-4.48-.35-6.56,.59-2.1,.95-3.89,2.36-4.12,4.9-.22,2.41,1.67,3.45,3.29,4.57,3.97,2.73,8.71,3.55,13.11,5.21,11.75,4.42,16.16,17.04,9.29,26.59-4.48,6.22-11,8.15-17.99,8.47Z"/>
  <path d="M246.77,323.6c0-7.98-.03-15.96,0-23.93,.02-5.31,1.9-7.15,7.22-7.17,4.74-.02,9.47-.07,14.21,.02,9.95,.19,17.93,8.37,17.95,18.29,.02,9.71-7.81,17.96-17.53,18.41-2.49,.12-5,.22-7.47-.02-2.76-.27-3.31,.85-3.23,3.37,.18,5.35,.11,10.72,.03,16.08-.05,3.87-2.18,6.12-5.54,6.11-3.32-.01-5.59-2.3-5.63-6.11-.1-8.35-.03-16.7-.03-25.05Z"/>
  <path d="M192.01,353.94c-1.78-1.78-2.28-3.92-2.27-6.43,.09-13.56-.01-27.13,.09-40.69,.02-2.37-.52-3.38-3.05-3.14-2.22,.21-4.48,.1-6.71,.03-3.97-.13-6.55-2.41-6.53-5.69,.01-3.29,2.57-5.48,6.59-5.5,10.7-.06,21.4-.07,32.1-.09,3.34,.85,5.3,2.88,4.78,6.44-.53,3.57-3.12,4.84-6.47,4.86-2.24,.02-4.5,.18-6.72-.04-2.41-.24-2.87,.73-2.85,2.95,.1,13.69,.07,27.39,.04,41.08-.02,6.11-3.17,8.26-8.98,6.24Z"/>
  <path d="M224.88,323.28c0-8.09-.03-16.19,.01-24.28,.02-4.16,2.07-6.49,5.53-6.48,3.46,0,5.64,2.36,5.65,6.45,.05,16.44,.05,32.88,0,49.31-.01,4.11-2.17,6.45-5.63,6.48-3.47,.02-5.54-2.31-5.56-6.46-.04-8.34-.01-16.69-.01-25.03Z"/>
  <path d="M139.02,214.17c-.01,7.14-4.23,12.98-11.64,15.67-2.24,.81-3.45,1.61-3.33,4.35,.17,3.6-2.15,5.9-5.23,6.01-3.18,.11-5.83-2.25-5.77-5.98,.05-2.81-1.03-3.89-3.49-4.6-1.63-.47-3.18-1.44-4.6-2.41-2.97-2.02-3.7-5.07-2.03-7.75,1.66-2.66,4.84-3.53,7.83-1.72,3.13,1.89,6.39,2.66,9.98,2.3,4.01-.4,6.7-2.52,7.02-5.49,.44-4.06-2.33-5.46-5.44-6.43-4.63-1.44-9.29-2.8-13.41-5.49-11.44-7.45-10.91-21.21,1.2-27.5,2.25-1.17,2.91-2.41,2.89-4.81-.03-3.82,2.27-6.26,5.42-6.36,3.27-.11,5.68,2.4,5.65,6.44-.02,2.3,.81,3.24,2.91,3.86,3.51,1.04,6.54,3.05,9.15,5.6,2.53,2.46,2.77,5.65,.75,8-2.08,2.42-5.1,2.59-8.02,.5-1.61-1.15-3.21-2.38-4.95-3.31-2.02-1.08-4.31-1.37-6.55-.83-2.51,.61-4.81,1.85-5.31,4.63-.48,2.63,1.9,3.57,3.62,4.66,3.29,2.09,7.1,2.91,10.75,4.13,8.29,2.78,12.59,8.48,12.58,16.51Z"/>
  <path class="cls-9" d="M257.99,311c0-8.3,.03-8.32,10.41-7.24,5.03,.52,7.96,5.7,5.74,10.2-1.12,2.27-3.02,3.75-5.52,3.95-2.97,.24-5.97,.06-8.95,.13-1.32,.03-1.73-.58-1.69-1.81,.06-1.74,.01-3.48,.01-5.22Z"/>
</svg>