<?xml version="1.0" encoding="UTF-8"?>
<svg id="Layer_1" data-name="Layer 1" xmlns="http://www.w3.org/2000/svg" viewBox="0 0 383.11 383.15">
  <defs>
    <style>
      .cls-1 {
        fill: #b2e49e;
      }

      .cls-2 {
        fill: #94d5a3;
      }

      .cls-3 {
        fill: #f1ba87;
      }

      .cls-4 {
        fill: #5f6c75;
      }

      .cls-5 {
        fill: #4e5a61;
      }

      .cls-6 {
        fill: #db4955;
      }

      .cls-7 {
        fill: #080808;
      }

      .cls-8 {
        fill: #cbf39e;
      }

      .cls-9 {
        fill: #202020;
      }

      .cls-10 {
        fill: #de646e;
      }

      .cls-11 {
        fill: #f1d0a4;
      }

      .cls-12 {
        fill: #d62f3c;
      }

      .cls-13 {
        fill: #010101;
      }
    </style>
  </defs>
  <path d="M.7,229.65c1.44-5.59,5.79-9.55,11.32-9.62,12.96-.16,25.93-.21,38.89,.02,6.97,.12,11.18,5.4,12.22,14.65,7.52-4.87,15.38-8.78,23.93-11.14,2.12-.58,1.42-2.37,1.42-3.74,.03-19.7,.02-39.4,.02-59.09,0-11.22-.05-22.44,.04-33.66,.02-2.29-.23-3.35-3.01-3.74-7.97-1.12-13.67-8-13.75-16.2-.1-11.34-.1-22.69,0-34.03,.08-9.43,6.96-16.54,16.48-16.74,3.04-.06,3.62-1.06,3.78-3.8,.47-8.19,.28-16.48,2.4-24.5,1.38-5.23,3.33-6.37,8.71-5.51,3.58,1.79,4.61,3.74,3.47,7.83-1.83,6.55-1.54,13.3-2.13,19.96-.38,4.23,.27,4.66,4.61,4.68,16.9,.08,33.8-.09,50.69,.08,9.82-.28,8.89,1.79,9.02-8.99,0-.61,0-1.22,0-1.83-.18-4.06,.8-7.9,2.75-11.38,1.31-2.34,1.31-3.98-.91-5.66-1.37-1.03-2.46-2.42-3.78-3.54-11.64-9.12-24.68-13.06-39.43-10.73-2.38,.24-4.57,1.14-6.84,1.8-3.56,1.04-5.77-.14-7.33-3.7-.88-4.95-.11-6.73,4.62-8.21,19.32-6.03,37.09-2.2,53.57,8.94,3.52,2.38,6.7,5.19,9.52,8.38,1.09,1.23,1.92,1.91,3.74,.98,3.71-1.91,7.79-2.51,11.96-2.35,6.96,.27,14.29-1.54,20.79,.96,5.9,2.27,8.76,.06,12.77-3.55,14.76-13.26,32.26-18.26,51.89-15.31,17.74,2.67,31.01,18.15,32.05,37.08,.28,5.1,.69,10.2,.86,15.31,.07,2.12,.54,2.95,2.95,3.03,10.77,.36,17.23,7.16,17.26,17.9,.04,10.47,.03,20.95,0,31.43-.03,10.02-4.92,15.94-14.9,17.85-1.44,.28-1.96,.74-1.84,2.09,.03,.37,0,.75,0,1.12,0,30.8,.02,61.6-.04,92.4,0,2.11,.41,2.94,2.76,3.24,11.15,1.43,19.91,6.95,25.71,16.6,1.67,2.77,3.47,3.87,6.59,4.22,11.2,1.27,19.87,6.88,25.85,16.41,7.06,11.25,3.82,23.87-7.85,30.28-20.38,11.2-40.84,22.24-61.27,33.34-1.86,1.01-3.7,2.04-5.57,3.02-4.27,2.24-5.77,2-9.2-1.4-2.17-3.24-1.77-5.68,1.67-8.15,4.26-3.06,9.1-5.12,13.69-7.62,18.02-9.83,36.06-19.62,54.1-29.4,5.45-2.96,6.95-7.01,4.74-12.35-6.15-11.22-19.36-15.7-30.78-9.81-14.82,7.65-29.33,15.9-43.95,23.93-16.91,9.3-33.85,18.54-50.77,27.81-3.93,2.15-7.91,4.22-11.79,6.47-7.7,4.47-15.37,4.36-23.12,.25-19.36-10.26-38.79-20.4-58.21-30.54-4.53-2.36-8.96-4.89-13.51-7.21-3.95-2.01-5.46-5.72-3.95-8.9,1.69-3.56,5.01-4.55,9.55-2.85,11.1,5.91,22.27,11.71,33.42,17.53,12.26,6.4,24.63,12.6,36.71,19.31,10.23,5.68,15.42,.77,17.03-8.85,1.72-9.14-2.61-18.64-11.09-23.9-6.56-4.07-13.44-7.61-20.26-11.2-11.79-6.2-23.49-12.58-35.39-18.59-9.52-4.81-19.63-6.86-30.15-7.86-8.22-.78-16.43-.85-24.62-.56-12.9,.46-25.04,3.9-36.07,10.83-6.97,3.16-9.22,8.32-9.04,16.11,.53,23.53,.19,47.09,.2,70.63,0,5.52,.03,5.62,5.2,7.63,22.99,8.94,45.74,18.48,68.87,27.05,28.46,10.55,56.02,7.81,82.56-6.55,17.75-9.6,35.4-19.37,53.21-28.85,4.48-2.38,7.3-1.59,9.19,2.37,1.2,3.37,.53,6.22-2.72,7.95-21.44,11.44-42.38,23.83-64.3,34.35-10.35,4.96-21.46,7.7-32.96,8.58-.52,.04-.96,.12-1.11,.71h-11.22c-1.5-.61-2.99-.61-4.49,0h-5.24c-16.03-.63-30.41-7.01-44.97-12.81-15.87-6.32-31.78-12.53-47.62-18.93-3.92-1.58-4.3-1.31-4.38,2.78-.04,2.12,.09,4.24-.07,6.36-.52,7.05-6.04,12.85-13.1,13.04-12.84,.33-25.69,.32-38.52,0-6.89-.17-11.64-5.07-11.82-11.42,0-14.25,0-28.49,0-42.73-.08-3.55,1.79-5.21,5.21-5.36,4.88,.81,6.69,2.88,6.75,8.16,.11,10.6,.02,21.19,.04,31.79,.01,6.11,.16,6.26,6.3,6.26,8.6,.01,17.2,.02,25.81,0,5.78-.01,5.87-.12,5.97-5.8,.01-.75,.09-1.49,.07-2.24-.24-14.45-.08-28.91-.1-43.36-.03-23.43,0-46.85-.02-70.28,0-5.93-.21-6.09-6.05-6.14-7.72-.06-15.45,.14-23.17-.1-8.74,.39-8.83-1.73-8.81,9,.03,16.78,.05,33.56-.02,50.34-.02,5.68-1.67,7.7-6.64,8.63-4.19-.63-4.87-1.32-5.34-5.37,0-20.43,0-40.85,.01-61.27,0-1.35-.31-2.74,.3-4.05Z"/>
  <path class="cls-7" d="M.62,295.97c-.21-.12-.42-.24-.62-.36,0-21.95,0-43.9,0-65.84,.23-.04,.47-.08,.7-.12-.03,22.11-.05,44.21-.08,66.32Z"/>
  <path class="cls-7" d="M0,318.8c.21-.11,.42-.23,.63-.34,.03,14.87,.05,29.73,.08,44.6-.23-.04-.47-.08-.7-.11,0-14.72,0-29.43,0-44.15Z"/>
  <path class="cls-9" d="M166.11,383.15c1.5-1.18,2.99-1.08,4.49,0h-4.49Z"/>
  <path class="cls-3" d="M282.91,331.56c-3.52-3.36-4.94-3.58-9.24-1.25-18.48,10.01-36.83,20.28-55.46,30-26.91,14.03-54.72,15.42-83.01,4.48-23.18-8.97-46.23-18.3-69.38-27.35-2.38-.93-3.04-2.15-3.03-4.64,.1-26.17,.15-52.34-.03-78.51-.03-3.79,.98-6.41,4.1-8.39,1.88-1.19,3.47-2.84,5.62-3.61,1.67,1.63,1.08,3.75,1.08,5.66,.04,24.56,.13,49.12-.06,73.67-.03,4.53,1.4,7.08,5.67,8.77,21.44,8.48,42.3,18.43,64.05,26.09,25.83,9.1,50.78,5.73,74.58-7.52,16.77-9.33,33.74-18.29,50.61-27.44,19.94-10.81,39.92-21.53,59.82-32.4,12.8-6.99,25.66-13.85,38.46-20.83,1.19-.65,2.4-1.36,3.84-1.34,2.65,5.67,1.17,10.09-4.7,13.3-15.05,8.22-30.14,16.36-45.21,24.55-7.1,3.85-14.2,7.71-21.28,11.59-4.21,2.31-4.89,3.86-3.83,8.44-4.2,2.25-8.4,4.49-12.6,6.74Z"/>
  <path class="cls-6" d="M113.29,11.05c2.08,3.08,4.77,3.91,8.24,2.39,1.79-.78,3.64-1.5,5.67-1.35,.27,1.67-1.01,2.42-2,3.32-6.45,5.92-10.02,13.21-10.43,22-.06,1.25-.26,2.47-.43,3.71-.74,5.45,.66,7.17,6.08,7.22,7.84,.08,15.69-.07,23.53,.05,5.21,.08,10.45-.54,15.64,.43,.41,.19,.74,.48,.98,.86,.73,2.2,1.03,4.36-.47,6.4-18.16,.04-36.31,.07-54.47,.16-1.88,0-2.71-.42-2.52-2.5,.75-8.15,.2-16.44,2.64-24.39,.93-3.05-.72-4.94-2.62-6.82,2.19-4.88,6.69-7.72,10.13-11.49Z"/>
  <path class="cls-13" d="M54.44,67.84c-.15,4.06-4.23,6.83-7.76,5.05-4.2-2.12-8.25-4.61-12.11-7.3-2.57-1.78-3-4.58-1.25-7.27,1.61-2.48,4.13-3.5,6.8-2.09,4.16,2.21,8.13,4.78,12.12,7.29,1.59,1,2.06,2.72,2.21,4.33Z"/>
  <path class="cls-13" d="M374.69,61.56c-.23,1.99-1.22,3.61-3.06,4.73-3.4,2.06-6.74,4.23-10.2,6.17-3.24,1.82-6.51,.96-8.1-1.9-1.52-2.74-.69-5.7,2.36-7.67,3.45-2.22,6.91-4.43,10.52-6.37,4.03-2.17,8.62,.6,8.48,5.04Z"/>
  <path class="cls-13" d="M359.8,107.01c.45,.15,1.32,.32,2.06,.72,3.72,1.98,7.47,3.91,11.08,6.08,2.93,1.76,3.7,5.04,2.11,7.7-1.58,2.65-4.41,3.54-7.42,2.03-3.77-1.89-7.46-3.94-11.1-6.05-2.59-1.5-3.46-3.92-2.55-6.72,.81-2.5,2.75-3.72,5.81-3.76Z"/>
  <path class="cls-13" d="M35.79,84.55c2.24,0,4.48-.11,6.71,.03,3.23,.2,5.44,2.5,5.38,5.5-.07,3.22-1.92,5.38-4.96,5.51-4.83,.21-9.7-.02-14.51-.48-2.82-.27-4.31-2.53-4.3-5.27,0-2.92,1.6-5.04,4.62-5.41,2.32-.28,4.71-.06,7.06-.06,0,.06,0,.12,0,.18Z"/>
  <path class="cls-13" d="M370.87,95.74c-1.99,0-3.98,.09-5.97-.02-3.47-.19-5.75-2.46-5.77-5.59-.02-3.13,2.24-5.41,5.72-5.58,3.97-.19,7.95-.32,11.93-.32,3.67,0,6.19,2.37,6.21,5.55,.02,3.02-2.25,5.3-5.79,5.58-2.1,.16-4.22,.03-6.33,.03v.34Z"/>
  <path class="cls-13" d="M37.66,124.31c-3.35-.12-5.22-1.32-6.07-3.58-.9-2.39-.56-4.92,1.71-6.33,4.1-2.54,8.34-4.91,12.68-7.01,2.34-1.13,4.7-.26,6.28,1.87,1.46,1.97,1.87,4.48,.19,6.21-4.3,4.43-10.12,6.41-14.79,8.85Z"/>
  <path class="cls-11" d="M370.52,266.95c-5.62,4.16-12.03,6.93-18.12,10.25-25.98,14.18-52.09,28.12-78.14,42.17-17.84,9.63-35.79,19.04-53.42,29.05-11.94,6.78-24.37,12.04-38,13.42-11.99,1.21-24.11,1.04-35.78-2.84-15.94-5.29-31.09-12.57-46.65-18.81-7.95-3.19-15.77-6.73-23.74-9.87-3.02-1.19-4.16-2.95-4.15-6.15,.05-27.29,0-54.59-.04-81.88,9.53-6.35,20.21-9.73,31.45-10.62,15.81-1.25,31.62-.78,47.14,3.16,6.82,1.73,12.95,5.07,19.1,8.31,16.17,8.53,32.32,17.08,48.39,25.79,9.92,5.37,14.93,16.01,12.58,25.93-2.84,2.92-5.84,1.42-8.53-.03-4.05-2.19-8.2-4.17-12.25-6.35-16.75-9-33.66-17.69-50.54-26.44-7.2-3.74-10.59-2.95-14.94,3.75-.46,.7-.78,1.63-1.93,1.38-4.64-1.48-7.96-.35-8.85,3.19-.93,3.71,1.21,5.72,4.26,7.31,19.06,9.93,38.09,19.93,57.13,29.9,4.73,2.48,9.51,4.89,14.18,7.48,7.52,4.16,14.85,3.97,22.36-.16,34.73-19.13,69.49-38.19,104.26-57.23,11.39-6.23,23.6-4.29,31.46,4.91,1.12,1.31,2.3,2.63,2.75,4.37Z"/>
  <path class="cls-1" d="M306.79,223.02c-22.13,10.91-43.42,23.38-65.2,34.95-1.19,.63-2.45,1.12-3.68,1.67-.61-1.18-.32-2.45-.32-3.67-.02-39.61-.01-79.22-.01-118.83,0-4.66,.32-5.08,5.08-5.09,19.8-.06,39.61-.06,59.41,0,4.76,.02,5.07,.41,5.07,5.09,0,27.4,0,54.81-.01,82.21,0,1.22,.3,2.5-.33,3.67Z"/>
  <path class="cls-6" d="M225.84,259.48c-1.52,.26-2.44-.75-3.48-1.31-12.84-6.86-25.63-13.82-38.52-20.58-2.23-1.17-2.89-2.47-2.88-4.89,.08-35.14,.09-70.28,0-105.41,0-2.87,.64-3.81,3.67-3.76,12.71,.18,25.42,.11,38.13,.04,2.16-.01,3.35,.18,3.35,2.92-.09,43.86-.06,87.72-.07,131.58,0,.47-.12,.93-.18,1.41Z"/>
  <path class="cls-1" d="M169.11,229.69c-8.04-3.55-16.21-6.66-24.99-7.89-7.87-1.1-15.77-1.61-23.7-1.93-2.97-.49-5.97-.25-8.95-.17-2.29,.06-3.15-1.02-3.34-3.05-.12-1.24-.11-2.49-.11-3.74,0-24.19,0-48.37,0-72.56,0-1.12-.03-2.25,.08-3.36,.33-3.47,1.43-4.56,4.91-4.89,.74-.07,1.49-.07,2.24-.07,16.21,0,32.41-.03,48.62,.01,5.41,.02,5.59,.26,5.59,5.71,0,29.3,0,58.6-.02,87.89,0,1.35,.33,2.74-.33,4.05Z"/>
  <path class="cls-4" d="M20.96,231.29c9.09-.03,18.19-.03,27.28-.13,2.3-.03,3.43,.67,3.42,3.18-.08,39.37-.12,78.73-.16,118.1-1.16,1.2-2.69,1.2-4.18,1.21-6.1,.06-12.2,.14-18.3-.02-6.68-.17-9.24-2.73-9.25-9.45-.07-35.98-.04-71.97-.02-107.95,0-1.73-.11-3.52,1.2-4.95Z"/>
  <path class="cls-8" d="M320.38,68.08c2.55,.67,3.64,2.51,3.64,4.96,0,10.09-.07,20.18-.11,30.27-1.42,1.34-3.21,1.21-4.94,1.21-21.91,.03-43.81,.05-65.72,0-6.05-.02-7.48-1.48-7.53-7.54-.07-8.09-.08-16.18,.01-24.27,.05-4.55,.48-4.91,4.87-4.91,22.16,0,44.31,0,66.47,0,1.11,0,2.24-.22,3.31,.28Z"/>
  <path class="cls-10" d="M203.91,67.45c6.47,0,12.95,.08,19.42-.04,2.12-.04,2.76,.61,2.75,2.73-.09,13.2-.09,26.4,0,39.59,.02,2.18-.72,2.7-2.78,2.69-13.2-.08-26.4-.08-39.59,0-2.1,.01-2.76-.58-2.75-2.72,.09-13.2,.09-26.4,0-39.59-.01-2.16,.7-2.74,2.78-2.7,6.72,.11,13.45,.04,20.17,.04Z"/>
  <path class="cls-10" d="M258.13,13.48c12.72-4.22,30.11-3.13,38.92,8.47,5.22,6.87,6.25,14.67,6.06,22.88,.59,4.96,.27,5.7-3.64,5.74-16.56,.16-33.11,.18-49.67,0-.62,0-1.24-.14-1.83-.33-1.9-.71-1.95-2.39-2.04-4.02-.31-5.39-1.18-10.67-3.33-15.65-.96-2.22-.69-4.09,.86-5.87,4.12-4.74,8.79-8.76,14.66-11.22Z"/>
  <path class="cls-10" d="M160.11,49.43c-13.69,0-27.38,.03-41.07,0-4.49,0-6.28-1.7-6.01-6.08,.57-9.22,1.82-18.23,8.26-25.66,1.81-2.1,4.4-3.25,5.91-5.59,15.17-2.47,28.63,1.31,40.44,11.1,.35,1.07-.13,1.96-.68,2.77-4.03,5.94-5.14,12.73-5.79,19.66-.13,1.33,.1,2.76-1.05,3.8Z"/>
  <path class="cls-5" d="M20.96,231.29c0,37.89-.02,75.78-.01,113.67,0,5.46,1.91,7.45,7.38,7.49,7.73,.06,15.45,0,23.18,0,.37,11.26,.75,8.89-8.57,9.03-9.22,.14-18.44-.07-27.65,.09-3.1,.05-4.14-.97-4.1-4.08,.14-11.96,.07-23.92,.05-35.88-.01-4.51-1.62-6.21-6.13-6.69,.99-5.14,1.01-10.27-.01-15.4,4.52-.5,6.13-2.18,6.14-6.66,.02-18.63,0-37.26,.01-55.89q0-5.76,5.63-5.76c1.36,0,2.73,.06,4.09,.09Z"/>
  <path class="cls-2" d="M169.11,229.69c0-30.78-.06-61.57,.06-92.35,.01-3.3-.87-4.21-4.17-4.17-17.07,.17-34.15,.17-51.22,0-3.71-.04-4.62,1.26-4.6,4.77,.12,25.8,.11,51.6,0,77.39-.01,3.04,.74,4.23,3.93,4.04,2.41-.14,4.96-.68,7.32,.51-6.21,.43-12.46-.39-18.65,.75-2.61,.48-2.03-1.47-2.04-2.83-.03-10.1-.01-20.19-.01-30.29,0-20.07,.06-40.13-.06-60.2-.02-2.87,.63-3.79,3.67-3.77,20.94,.14,41.88,.14,62.81,0,2.96-.02,3.71,.77,3.7,3.71-.1,33.03-.04,66.05-.07,99.08,0,1.11,.73,2.48-.66,3.36Z"/>
  <path class="cls-1" d="M127.84,112.39c-12.59,0-25.18,.01-37.78,0-5.35,0-7.06-1.75-7.07-7.2-.02-10.22-.02-20.45,0-30.67,.01-5.11,1.87-7.04,6.96-7.04,25.56-.03,51.12,.01,76.67-.06,2.3,0,3.25,.4,3.22,3.01-.14,12.96-.12,25.93,0,38.9,.02,2.44-.63,3.15-3.1,3.12-12.96-.12-25.93-.06-38.9-.06Z"/>
  <path class="cls-1" d="M320.38,68.08c-23.05,.02-46.1,.12-69.15,0-3.37-.02-4.51,.8-4.41,4.32,.26,8.71,.18,17.44,.04,26.16-.06,3.59,1.41,4.81,4.91,4.8,24.05-.09,48.09-.05,72.14-.05,.47,7.61-.89,9.08-8.41,9.08-8.35,0-16.7-.02-25.05,0-4.88,.02-6.25,1.11-7.64,5.88-4.26,2.06-8.69,1.14-13.08,.72-1.16-.11-1.41-1.25-1.74-2.18-1.18-3.27-3.62-4.48-6.98-4.45-6.97,.06-13.95-.08-20.92,.07-2.36,.05-2.89-.72-2.88-2.97,.1-12.95,.1-25.91,0-38.86-.02-2.3,.4-3.23,3.01-3.22,25.66,.09,51.31,.04,76.97,.04,1.09,0,2.26-.26,3.19,.64Z"/>
  <path class="cls-3" d="M142.97,267.17c1.43-1.03,1.25-2.91,2.27-4.2,3.25-4.13,8.61-5.3,13.34-2.83,15.43,8.07,30.89,16.11,46.31,24.2,5.94,3.12,11.82,6.37,17.73,9.55,2.72,1.47,5.51,2.29,8.54,.96,.01,2.71-1.11,5.1-2.4,7.35-2.54,4.42-7.61,6.09-12.27,3.66-24.54-12.82-49.01-25.78-73.51-38.7Z"/>
  <path class="cls-11" d="M246.08,268.52c15.66-8.6,31.31-17.21,46.97-25.8,4.25-2.33,8.41-4.84,12.8-6.87,8.62-4,17.04-3.77,24.94,2.03,.22,1.89-1.44,2.12-2.53,2.72-22.68,12.64-45.56,24.91-68.26,37.51-1.85,1.02-3.72,2.01-5.69,2.78-2.48,.97-4.6,.48-5.35-2.24-.93-3.39-3.67-6.27-2.87-10.14Z"/>
  <path class="cls-3" d="M246.08,268.52c1.14,3.01,2.49,5.96,3.35,9.04,.97,3.47,2.75,3.59,5.51,2.09,7.41-4.03,14.88-7.93,22.29-11.97,9.47-5.16,18.91-10.37,28.33-15.62,8.43-4.69,16.82-9.46,25.23-14.19,2.89,1.45,4.7,3.94,6.42,6.52-31.42,17.21-62.76,34.38-94.56,51.8,.91-8.1-.23-15.42-3.88-22.24-.7-1.3,.08-1.77,1.02-2.25,2.1-1.06,4.19-2.13,6.29-3.19Z"/>
  <path class="cls-2" d="M267.98,116.81c.86,1.2,2.01,1.53,3.47,1.5,3.78-.1,7.57-.03,11.35-.03,.95,4.09,3.57,5.58,7.67,5.38,4.6-.22,9.22,.04,13.83-.09,2.15-.06,3.07,.4,3.06,2.84-.06,31.53-.03,63.06-.02,94.59,0,.71,.23,1.52-.56,2.02-.02-28.43-.1-56.86,.04-85.29,.02-3.58-.91-4.6-4.53-4.57-20.07,.18-40.15,.16-60.22,.01-3.27-.02-4.21,.8-4.2,4.15,.11,40.77,.06,81.55,.05,122.32-1.29-.79-.64-2.06-.65-3.08-.03-43.02,.02-86.04-.07-129.06,0-3,.6-4.11,3.82-3.98,6.6,.26,13.21,.09,19.82,.07,5.26-.02,6.87-1.56,7.15-6.79Z"/>
  <path class="cls-10" d="M181.15,49.43c-.21-2.86-.44-5.75,.22-8.55,1.48-6.26,7.02-10.7,13.55-10.84,5.23-.11,10.47-.04,15.7-.02,9.57,.03,15.35,5.77,15.41,15.32,0,1.37-.09,2.73-.14,4.1-1.41,1.33-3.2,1.2-4.91,1.2-11.64,.03-23.28,.03-34.91,0-1.72,0-3.51,.13-4.91-1.2Z"/>
  <path class="cls-6" d="M246.93,49.43c17.15,0,34.3-.12,51.44,.12,3.82,.05,5.23-1.06,4.74-4.72,1.03,3.15,.44,6.42,.78,9.62,.21,2-1.22,1.78-2.45,1.78-18.18-.04-36.36-.08-54.53-.13-1.44-1.98-1.21-4.07-.44-6.2,.15-.16,.31-.31,.46-.47Z"/>
  <path class="cls-6" d="M181.15,49.43c14.91,0,29.83,0,44.74,0q.41,6.79-6.29,6.79c-11.34,0-22.69-.18-34.02,.1-3.78,.09-5.28-.89-4.58-4.66,.13-.73,.11-1.49,.15-2.23Z"/>
  <path class="cls-6" d="M258.13,13.48c-5,3.94-10.52,7.27-14.42,12.51-.83,1.11-1.2,1.89-.57,3.27,2.9,6.4,3.98,13.17,3.79,20.16,0,0-.06,.06-.06,.06-1.95,1.52-4.21,1.04-6.4,.98-2.1-.06-3.11-1.07-2.93-3.29,.1-1.21,.2-2.46-.18-3.66-.32-4.38-1.36-8.56-3.71-12.32-.66-1.05-.87-1.85,.13-2.9,6.78-7.15,14.55-12.65,24.35-14.82Z"/>
  <path class="cls-6" d="M160.11,49.43c0-9.46,1.53-18.49,7.53-26.23,.68,.51,1.41,.98,2.04,1.55q4.48,4.05,2.14,9.48c-1.29,2.97-1.93,6.08-2.14,9.3-.07,.24-.13,.47-.19,.71-.48,1.92,1.2,4.64-1.19,5.7-2.56,1.14-5.5,1.23-8.13-.45l-.06-.06Z"/>
  <path class="cls-12" d="M237.36,43.52c1.61,1.63-.95,4.86,1.84,5.72,2.02,.62,4.36,.18,6.56,.22,.37,0,.73,.02,1.1,.04,.01,2.2,.03,4.4,.05,6.61q-9.68,.55-9.68-8.89c0-1.23,.08-2.46,.13-3.69Z"/>
  <path class="cls-12" d="M160.17,49.49c.37-.01,.73-.03,1.1-.04,2.2-.04,4.54,.4,6.56-.22,2.79-.85,.23-4.09,1.85-5.71,.04,1.23,.13,2.46,.13,3.69q0,9.43-9.68,8.89c.02-2.2,.03-4.4,.05-6.61Z"/>
  <path class="cls-8" d="M126.26,103.31c-9.72,0-19.43-.12-29.14,.06-3.55,.07-5.08-1.32-5.08-4.73,0-9.22,.04-18.43-.03-27.65-.02-2.05,.62-2.88,2.77-2.87,20.92,.05,41.85,.05,62.77,0,1.96,0,2.61,.75,2.6,2.65-.06,9.59-.03,19.18-.02,28.77,0,2.96-1.69,3.8-4.35,3.78-9.84-.05-19.68-.02-29.52-.02Z"/>
</svg>