<?xml version="1.0" encoding="UTF-8"?>
<svg id="Layer_1" data-name="Layer 1" xmlns="http://www.w3.org/2000/svg" viewBox="0 0 383.73 383.57">
  <defs>
    <style>
      .cls-1 {
        fill: #484854;
      }

      .cls-2 {
        fill: #bb6c59;
      }

      .cls-3 {
        fill: #5c5d68;
      }

      .cls-4 {
        fill: #dedcdf;
      }

      .cls-5 {
        fill: #bcbecd;
      }

      .cls-6 {
        fill: #aaabb9;
      }

      .cls-7 {
        fill: #5d5e68;
      }

      .cls-8 {
        fill: #fdeb95;
      }

      .cls-9 {
        fill: #e7e7e7;
      }

      .cls-10 {
        fill: #444;
      }

      .cls-11 {
        fill: #efedef;
      }

      .cls-12 {
        fill: #fdfdfd;
      }

      .cls-13 {
        fill: #f8af4d;
      }

      .cls-14 {
        fill: #515151;
      }

      .cls-15 {
        fill: #89def7;
      }

      .cls-16 {
        fill: #5d5e69;
      }

      .cls-17 {
        fill: #fefefe;
      }
    </style>
  </defs>
  <path d="M.18,321.32v-11.22c.67-4.43,1.64-8.75,3.83-12.75,1.37-2.49,.97-5.35,.97-8.08,0-83.37,0-166.75,0-250.12,0-4.49-.06-8.97,.02-13.46,.17-10.12,5.16-17.44,13.46-22.77C22.18,.53,26.41,.1,30.67,.1,137.72,.08,244.78,.16,351.84,0c15.39-.02,25.77,13.65,25.73,25.3,0,1.74,.02,3.49,.02,5.23,0,85.62,.02,171.23-.05,256.85,0,4.47,.76,8.51,2.84,12.54,5.33,10.34,5.26,31.24-7.31,42.55-4.56,4.11-4.39,4.34-.03,8.6,7.58,7.4,11.04,16.39,10.46,26.96-.13,2.38-.6,4.51-3.47,4.96-1.33,.04-2.66,.01-3.98,.02-3.22,.14-4.38-1.94-4.99-4.61-.31-10.06-4.24-17.89-13.99-21.82-9.65-3.89-18.81-2.86-27.09,3.63-5.75,4.51-7.41,10.96-7.97,17.85-.09,3.07-2.02,4.54-4.7,5.34h-3.74c-2.74-.74-4.27-2.52-4.63-5.33-.24-9.6-3.93-17.3-13.04-21.22-10.01-4.3-19.75-3.43-28.34,3.68-5.43,4.49-7.08,10.89-7.63,17.64,0,3.15-1.95,4.56-4.71,5.24h-3.74c-2.86-.65-4.07-2.69-4.54-5.36-.98-13.07-7.34-21.08-19-23.17-10.18-1.83-18.95,.96-25.57,9.23-2.32,2.9-3.33,6.36-3.71,9.98-.18,1.74-.45,3.44-.84,5.13-.62,2.03-1.38,3.92-4.02,3.79-1.42,0-2.84,0-4.26,0-2.65,.14-3.46-1.7-4.07-3.76-.24-1.34-.62-2.65-.76-4.02-1.12-11.12-8.57-19.05-19.71-20.54-8.53-1.14-16.23,.7-22.58,7.07-4.57,4.59-5.86,10.2-6.08,16.31-.44,3.09-2.12,4.94-5.29,5.32h-3.74c-2.43-.92-3.91-2.55-3.95-5.26-.8-11.24-5.73-19.5-17.08-22.67-14.29-4-31.71,3.16-31.93,22.65-.38,3.2-2.33,4.8-5.38,5.28h-3.74c-2.23-1.11-3.9-2.64-3.94-5.36-.89-23.83-25.8-28.36-39.27-19.29-7,4.72-9.38,11.55-9.76,19.49-.57,2.5-1.47,4.69-4.56,4.77-1.18,0-2.36,0-3.54,0-2.54,.32-3.34-1.43-4-3.35v-7.48c.86-9.89,5.82-17.49,13.31-23.64,1.66-1.37,1.35-2.26-.09-3.52-2.44-2.12-4.7-4.43-6.72-6.99-3.89-4.92-5.88-10.55-6.5-16.72Z"/>
  <path class="cls-9" d="M.18,379.65c1.14,1.1,1.66,2.92,3.59,3.1,.32,.08,.45,.19,.38,.36-.07,.19-.15,.28-.24,.28-3.16,.67-4.41-.58-3.74-3.74Z"/>
  <path class="cls-14" d="M193.98,382.7c-.14,.22-.17,.45-.08,.69h-4.49c.09-.24,.06-.47-.08-.69,1.55,0,3.09,0,4.64,0Z"/>
  <path class="cls-10" d="M3.92,383.39c-.06-.21-.11-.42-.15-.64,1.36,0,2.72,.02,4.07,.02,.01,.23-.05,.43-.19,.61H3.92Z"/>
  <path class="cls-10" d="M375.67,383.39c-.14-.18-.2-.39-.19-.62,1.37,0,2.74,0,4.11,0,.01,.23-.05,.43-.19,.61h-3.74Z"/>
  <path class="cls-8" d="M144.54,135.23c4.51-.93,5.76-2.28,5.79-6.74,.06-7.23,.07-14.45,0-21.68-.05-4.85-2.06-6.87-6.81-6.88-23.55-.02-47.1-.02-70.65,0-4.79,0-6.78,2.01-6.83,6.82-.05,4.48,0,8.97,0,13.67-1.16-.56-1.16-1.61-1.4-2.39-4.99-16.01-9.94-32.04-14.91-48.06-.53-1.71-.77-3.05,.85-4.6,6.82-6.57,13.49-13.29,20.11-20.07,1.4-1.43,2.4-1.49,4.1-.53,51.95,29.37,103.93,58.7,155.94,87.96,1.82,1.03,2.29,2.18,2.29,4.11-.05,29.53-.06,59.06,0,88.59,0,2.26-.31,3.21-2.96,3.19-25.54-.11-51.09-.12-76.63,0-2.83,.01-3.13-1.01-3.12-3.42,.09-21.31,.06-42.61,.04-63.92,0-5.11-.92-6.25-5.82-7.56-2.21-3.64-.92-7.65-1.11-11.48-.12-2.36-.67-4.93,1.13-7.04Z"/>
  <path class="cls-11" d="M288.15,279.45c-14.37-.5-25.95,4.78-34.28,16.71-1.14-.13-1.32-1.11-1.79-1.72-14.97-19.75-43.39-19.97-58.55-.4-1.13,1.46-1.59,2.87-3.53,.4-15.95-20.35-43.93-19.89-59.38,.85-.22,.3-.44,.6-.73,.99-14.57-18.05-32-21.71-52.63-10.22,0-14.98,.01-29.76-.02-44.55,0-1.3,.43-1.82,1.72-1.72,.87,.06,1.74,0,2.62,0,56.34,0,112.67,0,169.01,0,5.44,0,6.6-.91,7.75-5.95,4.93-1.89,9.85-1.88,14.78,0,1.21,4.99,2.35,5.91,7.27,5.96,2.59,.03,5.17,.08,7.76,.13,1.28,1.28,1.19,2.94,1.2,4.53,.05,10.16,.05,20.31,0,30.47,0,1.59,.13,3.26-1.18,4.53Z"/>
  <path class="cls-17" d="M93.38,42.33c28.6,0,56.01-.01,83.43,.02,2.73,0,5.27-.18,6.65-3.04,1.96-4.07-.62-8.12-5.36-8.17-7.82-.09-15.65-.02-24.35-.02,6.4-6.63,12.3-12.74,18.2-18.85,.83-.86,1.87-.52,2.83-.52,11.22-.02,22.43-.02,33.65-.01,1.22,0,2.41-.16,3.44,.92,5.7,6,11.46,11.95,17.73,18.47-7.6,0-14.4-.01-21.2,0-4.56,.01-6.86,1.82-6.97,5.42-.11,3.74,2.32,5.79,6.99,5.79,24.92,.01,49.85,0,74.77,0h4.81c-1.96,1.08-2.95,1.66-3.97,2.18-31.75,16.21-63.5,32.41-95.24,48.65-1.85,.95-3.31,1.3-5.39,.12-29.18-16.57-58.43-33.02-87.66-49.5-.49-.28-.96-.6-2.35-1.46Z"/>
  <path class="cls-15" d="M317.28,119.58c0-4.54,.04-8.72-.01-12.89-.06-4.76-2.07-6.75-6.9-6.75-23.55-.02-47.1-.02-70.65,0-4.58,0-6.64,2.01-6.73,6.57-.09,4.69-.02,9.38-.02,14.65-11.93-6.73-23.36-13.17-35.36-19.93,6.24-3.19,12-6.14,17.76-9.08,30.66-15.65,61.34-31.27,91.95-47.02,2.33-1.2,3.54-.97,5.3,.86,6.4,6.64,12.97,13.11,19.54,19.58,1.35,1.33,2.05,2.49,1.39,4.53-5.23,16.2-10.35,32.43-15.51,48.65-.06,.19-.28,.32-.75,.83Z"/>
  <path class="cls-5" d="M273.12,233.83c-4.93,0-9.86,0-14.78,0-.85-3.94-3.28-5.41-7.27-5.32-6.87,.16-6.87,.01-6.87-7.01,0-35.47,.05-70.94-.09-106.41-.01-3.37,.89-4.08,4.11-4.03,13.06,.23,26.13,.16,39.2,.19,1.33,.59,1.75,1.77,1.76,3.05,.06,4.71,.57,9.44-.36,14.12-1.53,2.25-3.11,.55-4.54-.07-7-3.02-13.86-2.98-20.34,1.2-9.03,5.83-11.9,17.53-6.75,26.61,5.19,9.15,16.88,12.77,26.68,8.35,1.51-.68,3.06-2.65,4.9-.44,.63,5.54,1.31,11.09-.42,16.56-2.07,1.5-3.79-.01-5.56-.71-14.19-5.63-28.26,4.05-28.05,19.32,.16,11.87,11.98,21.36,23.6,18.95,2.08-.43,4.09-1.07,6.04-1.91,1.23-.53,2.48-1.31,3.88-.41,1.54,4.21,1.72,8.4-.12,12.56-2.47,.04-4.96,.27-7.41,.09-4.07-.3-6.7,1.2-7.61,5.3Z"/>
  <path class="cls-17" d="M48.58,104.15c3.04,9.78,6.09,19.55,9.13,29.33,.74,2.37,1.33,4.8,2.24,7.11,5.2,13.17,6.42,26.79,6.21,40.91-.54,35.76-.31,71.54-.42,107.31,0,1.3,.43,2.69-.54,4.2-4.51-5.08-9.67-9.06-16.01-11.26-1.96-.68-1.23-2.23-1.24-3.44-.06-9.47-.03-18.94-.03-28.42V104.25c.22-.03,.44-.07,.66-.1Z"/>
  <path class="cls-5" d="M121.33,228.44c-13.94,.04-27.89,.03-41.83,.19-2.69,.03-2.25-1.54-2.25-3.12,0-19.3,0-38.6,0-57.9,0-17.68,.07-35.36-.07-53.04-.02-2.77,.62-3.54,3.45-3.5,13.32,.2,26.64,.15,39.96,.19,.7,.34,1.38,.82,1.45,1.59,.45,5.41,1.25,10.84-.53,16.18-1.88,1.2-3.3-.24-4.81-.91-9.92-4.41-21.41-.79-26.41,8.61-4.24,7.96-3.09,15.62,2.2,22.7,4.15,5.55,13.63,8.26,21.02,6.22,1.8-.5,3.52-1.22,5.21-2.01,1.13-.53,2.35-1.08,3.25,.44,.62,5.55,1.32,11.09-.43,16.57-1.74,1.33-3.31,.23-4.87-.42-4.47-1.87-8.97-2.6-13.81-1.35-10.71,2.77-17.23,13.65-14.56,24.61,2.51,10.29,13.54,16.98,23.97,14.53,1.82-.43,3.58-1.02,5.31-1.75,1.23-.52,2.47-1.31,3.88-.41,1.55,4.21,1.72,8.4-.12,12.57Z"/>
  <path class="cls-17" d="M334.66,105.77v3.72c0,56.04-.03,112.09,.08,168.13,0,2.92-.74,4.38-3.52,5.44-5.64,2.15-9.91,6.32-14.37,11.41,0-1.91,0-2.97,0-4.04,.14-43.09,.29-86.18,.44-129.27,0-1.24-.09-2.55,.28-3.7,5.43-17.25,10.92-34.48,16.4-51.72,.23,0,.46,.02,.69,.02Z"/>
  <path class="cls-6" d="M121.33,228.44c-.47-4.2,1.04-8.53-.85-12.63-.18-1.93,1.38-2.82,2.43-3.96,7.27-7.86,7.29-19.23,.05-27.06-1.07-1.16-2.55-2.07-2.66-3.91,1.3-.81,1.02-2.13,1.02-3.32,0-4.78-.04-9.57-.06-14.35-.06-1.42,1-2.21,1.77-3.15,7.55-9.3,7.15-19.85-1.07-28.57-.63-.67-1.75-1.13-1.3-2.4,1.1-5.94,1.16-11.88-.06-17.81,5.35-.04,10.7,0,16.05-.15,1.97-.05,2.57,.61,2.53,2.55-.12,4.98,.06,9.96-.07,14.93-.1,3.89,1.53,6.14,5.43,6.63,0,6.17-.01,12.35-.02,18.52-4.21,.76-5.47,3.39-5.44,7.49,.12,21.25,0,42.5,.13,63.75,.02,2.99-.83,3.81-3.72,3.65-4.71-.27-9.43-.15-14.15-.19Z"/>
  <path class="cls-6" d="M288.07,129.39c-.25-6.04,.88-12.14-.66-18.13,5.22-.04,10.45,.06,15.67-.17,2.55-.11,3.05,.81,3.03,3.16-.09,18.54-.05,37.08-.05,55.63,0,18.42-.06,36.84,.07,55.25,.02,2.73-.57,3.69-3.45,3.52-4.84-.29-9.7-.16-14.55-.2-.42-4.19,.94-8.49-.77-12.6-.31-1.39,.83-1.94,1.57-2.72,8.52-8.94,8.62-19.87,.28-28.91-.91-.98-2.1-1.82-2-3.4,1.57-1.24,.88-2.98,.9-4.5,.08-4.33,0-8.66,0-12.99-.18-1.44,.89-2.23,1.68-3.14,7.23-8.38,7.42-18.42,.54-27.08-.9-1.13-2.27-2-2.25-3.7Z"/>
  <path class="cls-16" d="M11.41,315.64c.09-12.43,9.68-22.95,22.61-24.82,11.11-1.61,23.27,6.25,26.77,17.23,.6,1.89,.89,2.94-1.73,3.68-13.52,3.8-22.43,12.52-26.22,26.09-.79,2.83-1.9,2.72-4.1,1.98-10.27-3.45-17.4-13.32-17.32-24.16Z"/>
  <path class="cls-2" d="M371.92,314.82c-.07,11.72-7.27,21.65-17,24.88-2.06,.68-3,.44-3.67-1.86-4.05-13.95-13.14-22.83-27.29-26.34-2.05-.51-2.17-1.39-1.53-3.16,3.52-9.78,10.36-15.79,20.6-17.27,9.28-1.34,17.04,1.85,23.11,9.21,3.83,4.64,5.62,9.86,5.78,14.54Z"/>
  <path class="cls-16" d="M284.67,290.7c10.88,.05,20.75,7.3,23.97,17.46,.66,2.07,.58,2.99-1.87,3.63-8.31,2.17-15.19,6.66-20.23,13.72-1.13,1.59-1.76,1.84-3.15,0-5.32-7.06-12.2-12-20.96-13.9-2.35-.51-2.61-1.49-1.92-3.59,3.31-10.01,13.48-17.36,24.16-17.32Z"/>
  <path class="cls-1" d="M99.14,327.16c-2.91-3.03-5.27-6.57-8.75-9.05-4.21-3.01-8.68-5.4-13.74-6.47-2.45-.51-2.59-1.55-1.9-3.67,3.27-10.04,13.36-17.33,24.17-17.29,10.65,.04,20.93,7.61,23.93,17.64,.38,1.27,1.11,2.44-.97,3.24-13.84,5.35-14.41,5.79-22.74,15.6Z"/>
  <path class="cls-1" d="M222.62,290.69c10.73,.04,20.46,6.99,23.95,17.08,.68,1.97,.99,3.31-1.85,4.04-8.2,2.11-14.98,6.57-20.02,13.49-.93,1.28-1.5,2.52-3.12,.36-5.48-7.3-12.56-12.32-21.65-14.15-2.26-.45-1.8-1.84-1.35-3.34,3.01-10,13.34-17.52,24.04-17.47Z"/>
  <path class="cls-13" d="M160.55,290.71c10.82-.05,20.86,7.16,24.19,17.31,.67,2.04,.78,3.13-2,3.81-8.25,2.01-14.96,6.65-20,13.51-1.26,1.72-1.81,2.19-3.29,.15-5.24-7.22-12.27-11.95-21.01-13.87-2.59-.57-2.42-1.76-1.77-3.7,3.33-10.01,13.18-17.15,23.88-17.2Z"/>
  <path class="cls-13" d="M67.77,358.37c-5.81-8.42-13.17-13.83-22.69-16.07-2.65-.62-1.33-2.17-.88-3.42,3.24-9.07,9.67-14.81,19.03-16.61,9.49-1.83,17.73,1.07,24.19,8.44,.98,1.11,1.81,2.38,2.56,3.66,3.67,6.23,3.51,6.65-3.16,8.96-7.92,2.75-14.11,7.75-19.06,15.04Z"/>
  <path class="cls-13" d="M315.55,358.33c-5.77-8.35-13.03-13.71-22.4-15.96-1.59-.38-1.94-.79-1.53-2.47,2.47-10.02,12.81-17.91,23.94-18.08,11.26-.17,21.84,7.45,24.59,17.7,.31,1.15,.78,2.25-.91,2.6-10.02,2.05-17.69,7.61-23.68,16.22Z"/>
  <path class="cls-2" d="M278.4,340.32c.21,1.55-.78,1.69-1.81,1.92-8.84,2.04-16.02,6.67-21.39,13.99-1.15,1.57-1.72,2.02-3.12,.11-5.17-7.1-12.07-11.82-20.62-13.89-2.18-.53-2.11-1.45-1.64-3.12,2.83-10.07,13.22-17.56,24.36-17.49,10.98,.07,21.35,7.66,23.95,17.53,.1,.36,.19,.72,.25,.95Z"/>
  <path class="cls-2" d="M130,321.84c10.8-.02,20.3,6.6,23.9,16.56,.77,2.13,1.16,3.36-1.95,4.06-8.56,1.93-15.46,6.74-20.66,13.81-1.26,1.71-1.84,1.84-3.11,.06-5.06-7.04-11.89-11.66-20.26-13.79-2.49-.64-2.5-1.59-1.83-3.63,3.32-10.06,13.02-17.04,23.92-17.06Z"/>
  <path class="cls-16" d="M192.25,321.91c10.69,.05,19.89,6.5,23.58,16.42,.82,2.21,1,3.43-2.04,4.12-8.44,1.92-15.19,6.74-20.39,13.58-1.6,2.1-2.18,1.81-3.62-.13-4.9-6.59-11.37-11.16-19.34-13.21-2.98-.77-3.12-1.98-2.19-4.43,3.83-10.08,13.04-16.41,24-16.36Z"/>
  <path class="cls-16" d="M309.8,378.22c-16.87,.05-33.74,.1-50.62,.15,.21-13.46,8.29-22.89,21.23-24.78,12.8-1.87,24.52,4.71,28.17,15.82,.94,2.86,1.53,5.77,1.21,8.81Z"/>
  <path class="cls-1" d="M186.32,379.03c-1.2-1.32-2.79-.79-4.21-.8-15.51-.05-31.02-.05-46.54-.06-.95-13.02,8.52-22.89,21.12-24.58,14.02-1.88,25.67,5.61,28.66,18.1,.57,2.39,.66,4.89,.97,7.34Z"/>
  <path class="cls-2" d="M62.09,378.24c-16.86,0-33.73,0-50.59-.01-.29-14.39,10.06-24.7,24.91-24.81,15.34-.11,25.78,9.98,25.68,24.82Z"/>
  <path class="cls-16" d="M124.14,378.36c-16.87-.05-33.74-.1-50.61-.15-.31-13.42,8.98-23.72,22.31-24.72,14.87-1.12,25.92,6.98,27.86,20.43,.21,1.47,.3,2.96,.44,4.44Z"/>
  <path class="cls-1" d="M247.75,378.17c-15.51,.01-31.02,.02-46.54,.06-1.43,0-3.01-.52-4.22,.79,.31-2.45,.4-4.95,.97-7.33,2.98-12.43,14.74-19.82,28.7-18.15,12.67,1.51,21.36,11.66,21.08,24.63Z"/>
  <path class="cls-2" d="M371.82,378.22c-16.86,0-33.73,.01-50.59,.01-.12-14.8,10.37-24.92,25.7-24.82,14.86,.1,25.17,10.38,24.89,24.81Z"/>
  <path class="cls-4" d="M288.15,279.45c0-13.18,0-26.35-.01-39.53,5.1-.04,10.21-.04,15.31-.15,1.54-.03,2.2,.33,2.19,2.04-.08,14.32-.07,28.64-.1,42.97,0,.2-.21,.39-.54,.97-5.07-3.52-10.87-5.13-16.84-6.3Z"/>
  <path class="cls-1" d="M18.82,21.35c4.98-10.31,15.6-12.85,23.95-5.3,6.64,6.01,12.74,12.62,19.12,18.92,1.23,1.21,1.34,2.2,.05,3.43-3.43,3.25-6.8,6.55-10.2,9.84-1.61-.29-2.49-1.58-3.53-2.62-5.39-5.34-10.8-10.66-16.08-16.1-3.11-3.21-6.57-5.67-11.02-6.57-.99-.2-1.96-.45-2.3-1.6Z"/>
  <path class="cls-1" d="M355.45,13.23c10.9,4.99,13.06,16.39,4.68,24.84-5.87,5.91-11.85,11.7-17.61,17.72-1.85,1.93-2.92,1.84-4.63-.08-2.95-3.34-6.16-6.46-9.26-9.67,5.47-5.95,11.32-11.54,17.07-17.22,3.98-3.92,7.32-8.14,8.61-13.7,.17-.73,.53-1.39,1.14-1.89Z"/>
  <path class="cls-17" d="M17.45,102.71V48.97c6.43,6.42,12.42,12.43,18.45,18.41,.81,.8,.76,1.75,.81,2.74q.55,12.53-8.19,21.3c-3.5,3.51-6.95,7.09-11.06,11.29Z"/>
  <path class="cls-17" d="M107.16,11.91c-6.03,6.29-11.65,12.1-17.19,17.98-.97,1.03-2.01,1.21-3.3,1.24q-12.54,.38-21.53-8.61c-3.4-3.4-6.83-6.76-10.74-10.61h52.76Z"/>
  <path class="cls-17" d="M104.3,31.11c6.31-6.55,12.07-12.51,17.78-18.5,.91-.95,1.96-.89,3.08-.89,10.21,0,20.42,0,31.03,0-.87,2.05-2.5,3.16-3.77,4.52-4.18,4.44-8.42,8.83-12.66,13.22-.75,.78-1.36,1.68-2.72,1.68-10.65-.05-21.3-.03-32.74-.03Z"/>
  <path class="cls-17" d="M226.55,11.72c11.17,0,21.39,0,31.6,0,1.12,0,2.18-.07,3.08,.88,5.72,5.99,11.49,11.95,17.81,18.51-11.45,0-22.1,0-32.74,.01-.81,0-1.41-.27-1.96-.84-5.73-5.99-11.48-11.98-17.79-18.56Z"/>
  <path class="cls-17" d="M365.06,101.63c-6.25-6.24-12.1-12.12-18.01-17.93-1.01-.99-1.16-2.04-1.19-3.32q-.32-11.82,8.09-20.24c3.57-3.57,7.13-7.14,11.11-11.13v52.62Z"/>
  <path class="cls-17" d="M365.25,151.42c-6.52-6.57-12.36-12.48-18.25-18.34-.88-.87-1.14-1.8-1.14-2.98,.03-10.19,.02-20.39,.02-31.65,2.38,2.35,4.18,4.08,5.94,5.86,4.45,4.52,10.55,8.35,12.84,13.79,2.23,5.31,.57,12.26,.59,18.49,.02,4.6,0,9.2,0,14.84Z"/>
  <path class="cls-17" d="M346.7,148.44c5.86,5.92,11.71,11.85,17.6,17.75,.79,.79,.96,1.65,.96,2.69-.02,10.32-.01,20.63-.01,31.68-6.57-6.52-12.69-12.59-18.8-18.66-.59-.59-.57-1.33-.57-2.09,0-10.31,0-20.61,0-30.92,.28-.15,.55-.3,.83-.45Z"/>
  <path class="cls-17" d="M346.78,197.67c3.39,3.55,6.43,7.55,10.26,10.55,6.78,5.32,9.32,11.72,8.37,20.31-.76,6.84-.15,13.84-.15,22.01-6.73-6.86-12.7-12.93-18.66-19.01-.55-.56-.72-1.25-.72-2.04,.02-10.41,.01-20.82,.01-31.22,.3-.2,.6-.4,.9-.59Z"/>
  <path class="cls-17" d="M17.33,250.95c0-11.33,0-21.65-.01-31.97,0-1.04,.19-1.88,.98-2.67,5.87-5.9,11.7-11.84,18.4-18.64,0,3.45,0,5.73,0,8.01,0,7.73,0,15.45,0,23.18,0,1.36,.08,2.62-1.08,3.76-5.92,5.84-11.75,11.77-18.29,18.34Z"/>
  <path class="cls-17" d="M36.7,100.25c0,10.17-.02,20.35,.03,30.52,0,1.36-.45,2.31-1.39,3.24-5.8,5.77-11.56,11.59-18.01,18.07,0-2.15,0-3.55,0-4.95,0-8.7,.06-17.4-.04-26.1-.02-1.9,.56-3.22,1.89-4.54,5.62-5.55,11.13-11.21,16.69-16.82,.28,.19,.55,.38,.83,.58Z"/>
  <path class="cls-17" d="M36.7,148.39c0,11.45-.01,21.65,.02,31.84,0,1.19-.27,2.11-1.15,2.98-5.89,5.86-11.72,11.77-18.24,18.34,0-7.67,.65-14.52-.16-21.2-1.11-9.19,1.8-15.97,9.04-21.52,3.59-2.76,6.5-6.41,10.49-10.44Z"/>
  <path class="cls-17" d="M328.19,11.92c-6.44,6.39-12.37,12.23-18.25,18.14-.89,.9-1.84,1.03-3,1.08q-11.94,.46-20.14-8.13c-3.4-3.57-6.82-7.13-10.62-11.08h52Z"/>
  <path class="cls-7" d="M355.45,13.23c-.61,5.51-3.07,10.11-6.95,14-5.52,5.53-11.05,11.07-16.6,16.58-.94,.93-1.68,2.23-3.27,2.23-2.59-2.5-5.13-5.04-7.78-7.47-1.39-1.28-1.51-2.25-.08-3.65,6.38-6.26,12.57-12.72,19.04-18.88,4.48-4.26,9.71-5.87,15.64-2.81Z"/>
  <path class="cls-16" d="M18.82,21.35c7.57,1.1,12.73,5.92,17.67,11.23,4.96,5.33,10.16,10.45,15.25,15.66-2.95,3.03-5.54,7.92-8.96,8.58-3.7,.72-6.12-4.86-9.14-7.63-4.22-3.87-8.21-8.01-12.18-12.14-4.46-4.62-5.26-9.8-2.64-15.7Z"/>
  <path class="cls-12" d="M17.33,285.06c0-5.99,.02-11.32-.01-16.66,0-1.05,.22-1.88,1-2.66,5.89-5.86,11.74-11.76,17.62-17.67,1.33,1,.72,2.2,.72,3.18,.06,8.44,.06,16.89,0,25.33,0,1.17,.75,2.84-1.6,2.96-6.14,.31-11.87,2.11-17.74,5.51Z"/>
  <path class="cls-17" d="M365.25,284.58c-5.89-3.18-11.66-4.92-17.83-5.06-1.78-.04-1.54-1.19-1.54-2.3,0-9.81,0-19.61,0-29.46,1.52-.31,1.96,.98,2.67,1.67,4.96,4.88,9.83,9.86,14.82,14.72,1.34,1.31,1.99,2.61,1.93,4.53-.13,5.09-.05,10.18-.05,15.91Z"/>
  <path d="M287.21,180.81c7.1,5.94,10.59,13.23,8.44,22.62-1.19,5.18-4.32,9.07-8.28,12.41-7.64,4.47-15.47,5.3-23.32,.71-9.78-5.72-13.21-17.94-8.03-27.92,5.13-9.87,17.21-14.09,27.51-9.6,1.25,.54,2.45,1.18,3.68,1.77Z"/>
  <path d="M288.07,129.39c9.3,9.37,10.87,20.02,4.2,29.25-1.22,1.68-2.77,3.12-4.17,4.67-6.56,4.18-13.55,5.55-20.96,2.7-11.37-4.38-16.63-17.33-11.66-28.33,5-11.06,18.5-15.71,29.33-10.09,1.1,.57,2.17,1.2,3.25,1.8Z"/>
  <path d="M120.31,180.87c10.59,8.66,10.32,19.37,6.94,26.63-1.56,3.35-4.12,5.86-6.77,8.31-8.95,5.14-17.8,5.45-26.1-1.17-8.39-6.69-10.12-18.65-4.38-27.64,5.7-8.91,17.27-12.26,26.98-7.79,1.12,.52,2.21,1.11,3.32,1.67Z"/>
  <path d="M120.66,129.07c11.46,10.7,11.68,22.76,.6,34.13-8.28,5.28-16.79,6.11-25.22,.65-9.43-6.11-12.11-18.71-6.35-28.33,5.73-9.58,18.08-13.11,28.03-8.02,.99,.51,1.96,1.05,2.94,1.57Z"/>
  <path class="cls-3" d="M284.52,198.47c-.04,5.46-4.24,9.78-9.57,9.85-5.14,.07-9.96-4.96-9.78-10.21,.17-5.12,4.58-9.57,9.56-9.64,5.43-.08,9.84,4.42,9.8,9.99Z"/>
  <path class="cls-3" d="M284.52,146.25c.03,5.61-4.04,9.84-9.48,9.86-5.31,.02-9.8-4.36-9.91-9.66-.11-5.11,4.53-9.84,9.72-9.91,5.31-.07,9.64,4.28,9.67,9.71Z"/>
  <path class="cls-3" d="M117.64,198.6c-.06,5.35-4.48,9.75-9.73,9.72-4.98-.03-9.75-4.93-9.68-9.94,.08-5.26,4.58-9.88,9.67-9.91,5.27-.03,9.81,4.68,9.74,10.13Z"/>
  <path class="cls-3" d="M107.79,156.11c-5.32-.07-9.61-4.49-9.57-9.85,.05-5.31,4.46-9.71,9.74-9.71,5.48,0,9.8,4.49,9.68,10.07-.12,5.38-4.46,9.57-9.85,9.5Z"/>
</svg>