<?xml version="1.0" encoding="UTF-8"?>
<svg id="Layer_1" data-name="Layer 1" xmlns="http://www.w3.org/2000/svg" viewBox="0 0 383.16 326.7">
  <defs>
    <style>
      .cls-1 {
        fill: #5ad5fe;
      }

      .cls-2 {
        fill: #f8475e;
      }

      .cls-3 {
        fill: #fbeb77;
      }

      .cls-4 {
        fill: #fea0ab;
      }

      .cls-5 {
        fill: #fe6e7f;
      }

      .cls-6 {
        fill: #687ca9;
      }

      .cls-7 {
        fill: #fbeb78;
      }

      .cls-8 {
        fill: #00c4fc;
      }

      .cls-9 {
        fill: #fece6a;
      }

      .cls-10 {
        fill: #525252;
      }

      .cls-11 {
        fill: #4a669f;
      }

      .cls-12 {
        fill: #677ca9;
      }

      .cls-13 {
        fill: #4a659f;
      }

      .cls-14 {
        fill: #fece6b;
      }
    </style>
  </defs>
  <path d="M0,84.02c.22-.27,.57-.51,.64-.82,4.85-20.81,19.5-32.51,40.91-32.6,11.35-.05,22.7-.09,34.05,.05,2.59,.03,3.4-.59,3.33-3.27-.2-7.47-.19-14.92,2.57-22.11C87.05,10.76,100.81,.33,116.36,.18,147.91-.11,179.46,.04,211.01,.03c17.46-.01,34.92-.03,52.38,0,23.79,.05,40.44,16.46,40.88,40.24,.05,2.49,.17,5-.04,7.48-.2,2.35,.63,2.92,2.92,2.9,11.6-.12,23.2-.09,34.79-.04,16.82,.07,29.44,7.27,37.25,22.33,2.67,5.15,3.91,10.75,3.91,16.56,.02,56.74,.13,113.49-.05,170.23-.07,21.9-17.63,38.68-40.01,38.85-12.47,.1-24.94,.07-37.41-.03-2.14-.02-3.21,.52-4.04,2.67-6.07,15.7-19.71,25.34-36.54,25.39-49.01,.12-98.02,.13-147.03,0-16.8-.04-30.46-9.72-36.51-25.43-.85-2.2-1.96-2.64-4.07-2.63-12.47,.08-24.94,.12-37.41,.02-19.08-.14-34.56-12.25-38.99-30.38-.23-.96-.28-1.97-.41-2.95-.67-1.22,.25-2.7-.63-3.88,0-59.12,0-118.23,0-177.35Z"/>
  <path class="cls-10" d="M0,261.37c.96,1.17,.88,2.51,.63,3.88,0,0-.34,.04-.34,.04l-.29-.18v-3.74Z"/>
  <path class="cls-1" d="M175.84,11.43c8.6-.06,17.19-.16,25.79-.18,20.57-.03,41.14-.03,61.71,0,17.77,.03,29.67,11.64,29.68,29.4,.08,81.78,.07,163.56,0,245.34-.02,17.76-11.92,29.4-29.68,29.42-28.05,.03-56.1,.01-84.15,0-1.12,0-2.23-.12-3.35-.18-4.45-1.41-7.08-4.97-9.49-8.55-5.84-8.72-7.16-18.31-4.84-28.47,2.97-2.13,6.53-2.51,9.95-2.77,7.09-.55,14.15-.35,21.1,1.72,14.2,4.25,28.49,4.29,42.7,.04,7.44-2.23,14.99-2.22,22.59-1.76,9.19,.56,15.84-4.84,17.02-14.03,1.07-8.35-4.42-15.7-13.18-17-9.41-1.39-18.86-1.37-28.2,.86-2.91,.69-5.81,1.43-8.7,2.17-7.27,1.85-14.59,2-21.78-.1-12.63-3.68-25.42-4.62-38.43-2.9-1.17,.15-2.51,.55-3.44-.71-1.11-7.22-1.08-14.45-.03-21.68,6.49-3.4,13.48-3.88,20.61-3.35,7.13,.53,13.77,3.54,20.85,4.32,10.09,1.11,20.18,1.26,30.07-1.42,8.24-2.23,16.41-3.86,25.07-2.61,6.25,.9,11.68-1.19,14.82-7.14,3.13-5.92,3.49-11.9-.42-17.71-2.55-3.79-6.31-5.43-10.65-6.21-9.87-1.78-19.6-1.07-29.28,1.35-5.67,1.42-11.27,3.02-17.26,2.91-5.28-.1-10.42-.55-15.51-1.99-11.05-3.14-22.25-4.25-33.66-2.27-1.58,.28-3.24,.59-4.55-.84-1.25-5.73-.99-11.47-.21-17.22,1.48-2.18,3.79-1.56,5.81-1.56,17.95-.06,35.91-.04,53.86-.02,3.8,0,7.47-.58,10.86-2.33,4.21-2.18,6.92-5.64,8.16-10.21,2.91-10.72,4.93-21.63,6.78-32.57,2.34-13.89-11.35-22.57-21.28-18.12-6.22,2.79-11.3,2.49-15.75-3.3-1.69-2.2-4.23-3.83-6.32-5.8-6.74-6.34-16.2-6.46-22.92-.1-3.44,3.26-7.05,6.33-10.53,9.53-3.12,2.87-6.05,2.37-8.8-1.17-.47-1.58-.42-3.2-.41-4.81,.06-17.86-.17-35.71,.12-53.57-.08-1.1-.05-2.2-.01-3.3-.03-5.47,.27-10.86,2.35-16.06,2.03-5.07,5.18-9.25,9.07-12.99,1.13-1.09,2.57-1.41,3.87-2.08Z"/>
  <path class="cls-8" d="M161.57,169.32c.01,6.03,.02,12.06,.04,18.09,0,1.15-.92,1.4-1.72,1.66-9.51,3.11-19.18,4.11-29.06,2.06-1.22-.25-2.41-.63-3.63-.87-9.28-1.88-16.08,2.4-18.59,11.71-2.12,7.85,2.29,15.74,10.42,18.57,5.92,2.06,12.03,2.96,18.31,3.22,4,.16,7.1-.76,8.97-4.51,3.35-2.17,7.27-1.76,10.96-2.43,2.18,.9,3.47,2.64,4.36,4.73,0,7.46-.02,14.91-.03,22.37-3.69,3.22-8.5,3.07-12.87,4.14-7.11,1.74-14.07,.35-21.01-1.35-8.66-2.13-15.95,1.96-18.81,10.4-2.36,6.95,.61,14.73,6.98,18.32,3.08,1.73,6.47,2.51,9.89,3.25,10.11,2.21,20.21,2.34,30.35,.19,1.78-.38,3.61-1.14,5.43-.06,.24,6.88-.54,13.78,2.05,20.51,2.54,6.62,6.98,11.54,12.24,15.94-20.31,0-40.63,.37-60.93-.11-11.94-.29-22.8-11.25-24.37-23.17-.31-2.34-.47-4.72-.47-7.08-.02-81.03-.03-162.06-.01-243.08,0-15.66,8.31-26.81,22.26-29.99,.85-.19,1.72-.39,2.58-.39,20.31-.01,40.62,0,60.94,0-10,7.78-15.03,17.88-14.3,30.66-1.62-.08-1.36-1.51-1.74-2.46-2.33-5.92-6.44-9.76-12.88-10.42-5.98-.62-10.59,1.99-13.97,6.88-1.45,2.1-2.19,4.49-2.37,6.99-.19,2.67,.98,4.71,3.73,5.22,2.54,.47,4.27-.89,5.22-3.24,.33-.81,.42-1.69,.78-2.49,1.04-2.3,2.65-4.08,5.31-4.03,2.65,.05,4.23,1.84,5.22,4.17,.2,.46,.28,.95,.44,1.42,1.72,5.1,5.13,5.81,8.72,1.81,.42-.47,.78-.97,1.46-1.05,.03,19.99,.06,39.97,.1,59.96-1.58,1.25-3.11,.16-4.58-.22-11.4-2.91-21.48,5.02-20.4,16.72,1.14,12.26,3.87,24.29,7.44,36.07,1.57,5.19,5.63,8.3,10.85,9.9,2.23,.69,4.72,.46,6.7,1.97Z"/>
  <path class="cls-5" d="M41.14,118.32c-5.01,.27-6.28,1.43-7.02,6.34-3.6,24.04,16.44,48.38,41.2,49.76,3.03,.17,3.63,1.08,3.58,3.85-.14,7.57-.03,7.57-7.6,7.58-8.73,0-17.46-.1-26.19,.04-8.58,.15-15.68,6.35-16.7,14.28-1.13,8.84,3.89,16.54,12.26,18.9,1.84,.52,3.7,.51,5.56,.51,9.6,.02,19.21,.15,28.81-.07,3.24-.08,4.06,.99,3.85,4.01-.25,3.47-.17,6.99-.02,10.47,.1,2.18-.72,2.71-2.79,2.7-9.85-.09-19.7-.05-29.56-.04-10.85,.02-18.3,6.94-18.27,16.92,.03,9.95,7.49,16.77,18.42,16.8,9.6,.02,19.21,.09,28.81-.05,2.5-.04,3.58,.47,3.41,3.23-.24,3.73-.09,7.48-.05,11.22,.02,1.52-.1,2.67-2.13,2.63-13.83-.29-27.72,.9-41.49-.56-13.53-1.44-23.9-13.23-23.93-26.87-.12-56.87-.13-113.74,0-170.61,.03-15.33,12.04-26.95,28.27-27.45,12.21-.38,24.44-.06,36.66-.12,1.89-.01,2.68,.52,2.64,2.53-.1,5.74-.17,11.48,.03,17.21,.09,2.58-.92,3.06-3.23,3.19-10.2,.53-19.06,4.47-26.7,11.17-3.95,3.47-4.18,5.07-1.7,9.68,.56,1.37-.23,2.45-.94,3.41-2.13,2.9-2.61,6.7-5.18,9.35Z"/>
  <path class="cls-7" d="M371.9,174.35c0,27.55,0,55.1,0,82.65,0,18.62-11.72,30.36-30.31,30.37-11.34,0-22.69-.08-34.03,.06-2.63,.03-3.47-.75-3.33-3.35,.2-3.6,.19-7.23,0-10.84-.12-2.3,.59-2.95,2.91-2.92,10.47,.12,20.94,.19,31.41-.02,6.98-.14,12.12-3.68,14.9-10.07,2.71-6.22,1.86-12.22-2.47-17.51-3.34-4.09-7.79-6.07-13.09-6.06-10.1,0-20.2-.08-30.29,.06-2.5,.03-3.57-.46-3.38-3.22,.25-3.6,.22-7.24,0-10.84-.16-2.55,.79-3.13,3.18-3.1,10.47,.11,20.94,.16,31.41-.02,7.94-.13,14.7-6.2,15.86-13.81,1.28-8.4-3.36-16.3-11.18-18.92-2.26-.76-4.6-.98-7-.97-9.72,.04-19.45-.06-29.17,.07-2.43,.03-3.32-.61-3.1-3.09,.22-2.47-.73-5.43,.33-7.35,1.17-2.12,4.49-.99,6.83-1.38,21.95-3.72,38.08-22.62,37.98-44.76-.1-21.91-16.33-40.83-38.01-44.41-2.28-.38-5.5,.84-6.64-1.13-1.1-1.89-.43-4.83-.45-7.31-.04-3.99,.05-7.98-.02-11.97-.03-1.77,.28-2.74,2.42-2.72,12.59,.11,25.2-.35,37.76,.23,16.66,.76,27.44,12.61,27.45,29.32,.03,27.67,0,55.35,0,83.02Z"/>
  <path class="cls-2" d="M41.14,118.32c1.11-4.7,3.79-8.65,6.13-12.76,3.34,2.19,6.19,1.51,9.06-1.13,5.48-5.05,12-7.87,19.47-8.54,2.18-.2,3.08,.28,3.07,2.73-.09,20.69-.12,41.38,.02,62.07,.02,3.14-1.68,2.72-3.55,2.55-18.07-1.62-32.35-19.16-30.09-37.13,.48-3.78-.6-6.31-4.1-7.79Z"/>
  <path class="cls-14" d="M304.29,129.47c0-9.83,.2-19.67-.1-29.5-.12-3.91,1.25-4.6,4.66-4,13.75,2.39,23.26,10.11,27.52,23.27,4.38,13.54,.8,25.54-9.5,35.36-5.29,5.05-11.79,7.7-19.02,8.67-2.57,.34-3.72-.08-3.65-3.17,.22-10.2,.08-20.41,.08-30.62Z"/>
  <path class="cls-13" d="M60.65,208.35c-4.99,0-9.98,.05-14.96-.02-4-.06-6.1-2.01-6.14-5.48-.04-3.36,2.2-5.7,5.99-5.74,10.22-.1,20.45,0,30.68-.07,1.96-.01,2.5,.7,2.6,2.6,.43,8.72,.49,8.71-8.06,8.71-3.37,0-6.73,0-10.1,0Z"/>
  <path class="cls-12" d="M322.51,208.36c-5.1,0-10.2-.11-15.3,.05-2.34,.07-2.9-.78-2.93-3-.13-8.34-.21-8.34,8-8.34,8.08,0,16.17-.03,24.25,.01,4.65,.02,7.12,2.11,7.06,5.81-.06,3.64-2.3,5.44-6.91,5.47-4.73,.03-9.45,0-14.18,0Z"/>
  <path class="cls-11" d="M60.77,247.88c5.09,0,10.19,.09,15.28-.04,2.13-.05,2.71,.7,2.77,2.78,.25,8.54,.33,8.53-8.16,8.53-7.83,0-15.65,0-23.48,0-5.14,0-7.58-1.79-7.64-5.54-.06-3.88,2.44-5.72,7.81-5.73,4.47,0,8.95,0,13.42,0Z"/>
  <path class="cls-6" d="M322.53,259.15c-5.23,0-10.45-.07-15.68,.04-1.97,.04-2.48-.67-2.56-2.57-.37-8.74-.43-8.73,8.32-8.73,7.96,0,15.93-.01,23.89,0,4.69,.01,7.15,2.01,7.11,5.7-.05,3.66-2.49,5.54-7.26,5.56-4.6,.02-9.21,0-13.81,0Z"/>
  <path d="M161.56,278.8c-14.44,3.61-28.83,3.63-43.06-.95-7.54-2.43-11.89-9.08-11.43-16.89,.44-7.61,5.63-13.94,12.74-15.66,1.86-.45,3.8-.72,5.54-.15,12.26,4.03,24.29,2.78,36.24-1.25,12.93-2.38,25.75-2.15,38.41,1.69,9.71,2.94,19.35,2.64,29.04-.29,10.9-3.3,22.03-3.81,33.26-1.97,9.09,1.49,14.81,9.21,13.6,18.31-1.33,9.99-8.42,15.89-17.91,14.88-7.76-.83-15.32-.32-22.9,1.89-14.2,4.14-28.55,4.07-42.74-.11-10.39-3.06-20.59-2.98-30.81,.49Z"/>
  <path d="M146.67,219.28c-1.53,4.96-2.67,5.74-7.71,5.65-6.9-.11-13.63-1.21-20.18-3.3-9.12-2.91-13.68-11.85-10.96-21.12,2.64-8.98,10.8-13.63,20.15-11.05,11.51,3.18,22.62,1.8,33.64-2.06,11.42-1.86,22.8-2.14,34.13,.65,4.7,1.16,9.29,2.77,14.2,3.08,6.29,.4,12.41-.24,18.46-2.02,11.41-3.37,23-4.3,34.73-1.95,8.58,1.72,13.83,9.14,12.83,17.85-1.1,9.54-7.66,16.31-16.54,15.07-11.83-1.66-22.66,2.13-33.89,3.98-10.97,1.82-21.92,1.18-32.57-1.98-9.2-2.73-18.33-3.29-27.63-.83-1.17,.31-2.46,.19-3.69,.27-1.71-.92-2.99-2.24-3.82-4-1.34-3.82-.69-5.12,3.86-7.79,11.04-3.53,22.09-3.05,33.11,.09,12.91,3.68,25.79,3.58,38.7-.07,7.6-2.15,15.32-3.4,23.26-2.06,.49,.08,.99,.1,1.49,.1,3.19-.02,5.16-1.51,5.22-4.11,.07-2.9-1.75-4.19-4.35-4.71-7.99-1.57-16-1.2-23.69,1.08-14.16,4.21-28.08,4.36-42.29,.12-10.21-3.05-20.69-2.59-31.04-.03-11.9,3.69-23.91,4.41-36.09,1.43-3.43-.84-5.59,.31-6.28,2.94-.65,2.47,.81,4.76,4.09,5.7,4.3,1.24,8.68,2.24,13.22,2.2,2.13-.02,4.3,.01,6.18,1.1,2.14,1.24,4.37,2.59,3.46,5.74Z"/>
  <path d="M161.57,169.32c-2.46-.33-5.01-.34-7.35-1.05-6.32-1.92-10.29-6.26-11.92-12.68-2.68-10.6-4.93-21.29-6.7-32.08-2.24-13.66,9.59-23.81,22.77-19.59,1.06,.34,2.12,.64,3.18,.96,3.27,2.16,6,1.98,8.76-1.21,2.59-3,5.74-5.52,8.66-8.24,7.62-7.09,17.45-7.11,25.16-.02,3.03,2.78,6.2,5.45,8.93,8.5,2.42,2.71,4.76,2.92,7.88,1.47,3.61-1.68,7.41-2.99,11.53-2.42,10.3,1.41,16.7,9.89,15.07,20.26-1.72,10.94-4,21.77-6.77,32.49-2.21,8.57-8.8,13.4-18.3,13.42-19.19,.05-38.37,.01-57.56,.02-1.12,0-2.23,.11-3.35,.17Z"/>
  <path class="cls-4" d="M252.04,86.34c-4.99,.11-9.62-1.16-13.85-3.78-10.97-6.77-11.27-20.19-.63-27.42,8.59-5.84,21.56-5.55,29.89,.67,9.1,6.78,9.09,18.93,0,25.72-4.28,3.2-9.45,4.81-15.4,4.81Z"/>
  <path d="M201.5,69.21c-2.26,.07-5.09-.53-7.43-2.31-1.9-1.44-3.23-1.05-5.15,.1-10.36,6.19-23.94-1.08-24.47-12.97-.17-3.73,1.48-6.16,4.53-6.65,3.23-.53,5.69,1.41,6.52,5.14,.08,.36,.11,.74,.18,1.11,.54,2.87,2.29,4.38,5.18,4.33,2.73-.04,4.48-1.54,4.88-4.23,.53-3.53,1.75-6.4,5.89-6.36,3.9,.04,5.2,2.73,5.68,6.15,.41,2.87,2.19,4.46,5.09,4.44,2.89-.02,4.59-1.62,5.05-4.49,.12-.74,.22-1.49,.45-2.19,.95-2.88,3.04-4.26,6-3.87,2.96,.39,4.58,2.27,4.78,5.3,.58,8.8-7.18,16.56-17.2,16.51Z"/>
  <path d="M161.47,44.91c-1.07,2.89-2.71,5.13-6.22,4.64-3.35-.47-4.72-2.67-5.09-5.92-.3-2.67-2.09-4.32-4.83-4.23-2.54,.09-3.96,1.76-4.52,4.23-1.04,4.62-3.48,6.68-6.89,5.86-3.4-.81-4.91-3.99-4-8.4,1.56-7.51,7.67-12.74,15.21-13.01,7.3-.27,13.86,4.83,15.82,12.27,.16,.59,.39,1.16,.59,1.74-.03,.94-.05,1.88-.08,2.81Z"/>
  <path d="M253.51,43.35c-.07,3.63-2.04,6.04-5.11,6.24-3.19,.22-5.41-1.62-5.99-5.28-.45-2.82-1.77-4.84-4.67-4.9-3.12-.07-4.48,2.04-4.95,5.01-.57,3.6-2.89,5.44-6.08,5.17-3.04-.25-5-2.72-5.02-6.32-.06-7.85,7.67-15.21,15.97-15.19,8.32,.03,16.02,7.44,15.87,15.27Z"/>
  <path class="cls-4" d="M131.87,86.38c-7.52,0-13.67-2-18.54-7.02-6.11-6.29-6.04-15.12,.03-21.46,8.93-9.33,26.57-9.3,35.49,.07,6.1,6.4,6.1,15.07-.05,21.43-4.79,4.94-10.82,6.86-16.92,6.99Z"/>
  <path class="cls-14" d="M146.67,219.28c-.89-4.12-3.66-5.6-7.63-5.61-5.39,0-10.65-.92-15.81-2.43-3.94-1.15-5.61-3.67-4.73-7.1,.94-3.67,3.21-4.85,7.46-3.66,12.02,3.36,23.87,2.2,35.66-1.13,1.8,3.71,1.77,7.42,0,11.13-2.78,1.54-4.21,3.8-3.82,7.06-3.71,.58-7.43,1.16-11.14,1.74Z"/>
  <path class="cls-3" d="M161.64,255.61c11.86-3.14,23.68-2.65,35.37,.76,11.43,3.34,22.78,3.36,34.18-.08,8.44-2.55,17.06-3.36,25.84-2.4,1.36,.15,2.72,.34,4.05,.66,3.16,.77,4.06,3.14,3.67,6-.39,2.83-1.79,5.23-5.06,4.79-10.98-1.48-21.46,.61-32.05,3.3-10.53,2.68-21.25,2.09-31.71-1.08-11.11-3.36-22.27-3.49-33.53-.94-2.1-.37-1.8-2.14-1.82-3.48-.05-2.55-.63-5.22,1.08-7.53Z"/>
  <path class="cls-9" d="M161.64,255.61c.42,3.66-.93,7.44,.75,11.02-13.23,4.63-26.56,4.64-39.92,.71-3.53-1.04-4.89-3.9-3.81-7.27,1.06-3.29,3.06-4.43,6.62-3.4,12.25,3.55,24.34,2.57,36.37-1.05Z"/>
  <path class="cls-3" d="M161.63,210.48c0-3.71,0-7.42,0-11.13,11.19-3.23,22.45-2.99,33.51,.23,12.7,3.7,25.18,3.8,37.84-.09,8.68-2.66,17.63-3.05,26.63-1.66,3.71,.57,5.49,2.63,5.21,6-.31,3.74-2.32,5.66-6.26,5.1-9.85-1.38-19.26,.32-28.74,2.88-10.25,2.78-20.82,3.03-31.04,.09-12.36-3.55-24.63-4.64-37.16-1.43Z"/>
  <path class="cls-7" d="M162.59,117.56c5.88,.95,10.71-.9,14.82-5.19,2.93-3.06,6.09-5.89,9.22-8.73,3.38-3.07,6.51-3.05,9.91,.05,3.5,3.19,6.94,6.44,10.34,9.73,4.61,4.44,9.86,5.45,15.81,3.21,1.98-.74,3.93-1.57,5.96-2.15,4.46-1.28,8.38,1.62,7.8,6.13-1.47,11.23-3.93,22.28-6.87,33.22-.54,1.99-1.94,3.46-4.27,3.59-1.07,.53-2.21,.3-3.31,.3-18.94,.01-37.89,.01-56.83,0-4.19,0-4.69-.4-4.74-4.68-.1-10.34-.1-20.69,.02-31.03,.02-1.68-.47-3.87,2.12-4.44Z"/>
  <path class="cls-14" d="M162.59,117.56c-1.29,.86-.95,2.2-.95,3.4-.02,10.96,.08,21.91-.07,32.87-.04,2.84,.88,3.56,3.63,3.55,20.04-.08,40.09,0,60.13,.03-1.11,.82-2.4,.52-3.61,.52-19.66,.02-39.32,.02-58.98,0-7.48,0-8.35-.79-10.2-7.95-2.33-9.03-4.09-18.17-5.7-27.35-1.17-6.72,2.79-10,9.22-7.67,2.2,.8,4.35,1.72,6.53,2.59Z"/>
</svg>