<?xml version="1.0" encoding="UTF-8"?>
<svg id="Layer_1" data-name="Layer 1" xmlns="http://www.w3.org/2000/svg" viewBox="0 0 371.26 371.11">
  <defs>
    <style>
      .cls-1 {
        fill: #d4d5d7;
      }

      .cls-2 {
        fill: #66c1ec;
      }

      .cls-3 {
        fill: #f3ab1c;
      }

      .cls-4 {
        fill: #cfcecd;
      }

      .cls-5 {
        fill: #9fa0a1;
      }

      .cls-6 {
        fill: #2b2c2c;
      }

      .cls-7 {
        fill: #fed45d;
      }

      .cls-8 {
        fill: #f0f0f2;
      }

      .cls-9 {
        fill: #adaeb1;
      }

      .cls-10 {
        fill: #fec139;
      }

      .cls-11 {
        fill: #43b9d5;
      }

      .cls-12 {
        fill: #76d7fe;
      }
    </style>
  </defs>
  <path d="M185.24,323.24c-34.55,0-69.09,.05-103.64-.08-3.12-.01-3.95,.72-3.82,3.83,.27,6.72,.15,13.47,.06,20.2-.18,13.48-10.8,23.98-24.07,23.92-13.07-.06-23.59-10.56-23.78-23.84-.09-6.61-.29-13.23,.08-19.82,.22-3.8-1.07-4.67-4.51-4.28-2.58,.3-5.23,.11-7.85,.04-9.79-.26-17.43-7.89-17.65-17.67-.09-3.99-.09-7.98,0-11.97,.15-7.2,3.31-12.72,9.76-15.99,1.97-1,2.22-2.2,2.22-4.05-.05-13.22-.07-26.44-.02-39.66,.08-18.84,7.69-33.92,22.76-45.24,.86-.64,2.36-1.09,1.96-2.39-.43-1.42-1.94-.62-2.94-.64-5.24-.09-10.48,.02-15.71-.06C7.9,185.4,.02,177.49,.05,167.52c.04-9.93,7.97-17.76,18.23-17.84,6.61-.06,13.22,.12,19.83,.05,2.23-.02,4.55,2.8,6.3,.8,1.29-1.47,1.08-4.24,1.55-6.43,3.18-14.84,6.45-29.66,9.52-44.53,3.91-18.9,19.23-32.31,38.73-33.63,1.77-.12,2.84-.11,2.03-2.43-.88-2.5-.4-5.2-.41-7.8-.03-12.35-.04-24.69,0-37.04C95.86,7.69,103.42,.03,114.32,.02c47.52-.03,95.03-.03,142.55,0,10.92,0,18.5,7.64,18.53,18.61,.04,13.59-.06,27.19,.08,40.78,.02,2.16-1.73,4.81-.19,6.18,1.29,1.14,4.05,.56,6.13,.88,17.25,2.68,30.85,15.9,34.36,33.05,3.39,16.58,7.04,33.1,10.51,49.66,.38,1.83,.77,2.58,2.86,1.68,4.75-2.04,9.84-1.16,14.79-1.16,4.59,0,9.23-.63,13.78,.57,8.74,2.3,14.46,10.61,13.38,19.45-1.06,8.71-8.39,15.54-17.19,15.79-5.61,.16-11.22,0-16.83,.08-.87,.01-2.19-.69-2.59,.63-.36,1.19,.9,1.63,1.67,2.18,9.69,6.99,16.51,16.1,20.28,27.47,1.77,5.36,2.76,10.85,2.77,16.5,.02,13.59,.07,27.19-.03,40.78-.02,2.21,.44,3.43,2.59,4.57,5.96,3.14,9.08,8.38,9.37,15.1,.19,4.36,.16,8.73,.02,13.09-.3,9.41-7.86,16.95-17.26,17.29-2.99,.11-6.02,.29-8.97-.04-3.31-.37-3.84,.96-3.73,3.91,.23,6.48,.11,12.97,.06,19.45-.1,13.9-10.41,24.52-23.8,24.58-13.57,.06-23.99-10.6-24.08-24.67-.04-6.61-.16-13.22,.07-19.83,.1-2.8-.64-3.46-3.44-3.45-34.92,.11-69.84,.07-104.76,.07Z"/>
  <path class="cls-7" d="M41.95,198.52c6.36-4.61,13.56-6.92,21.32-6.93,81.56-.07,163.11-.12,244.67,0,21.19,.03,38.98,18.07,39.27,39.23,.1,6.85-.05,13.71-.08,20.56-1.97,1.52-4.09,1.21-6.24,.53-1.43-.99-.94-2.41-.83-3.74,.84-10.04-2.91-17.86-11.73-22.78-8.74-4.89-17.37-3.8-25.21,2.1-6.57,4.94-8.96,11.99-8.7,20.06,.05,1.51,.98,3.25-.84,4.44-4,.76-8,.98-11.97-.17-1.78-1.77-1.37-4.19-1.77-6.33-3.1-16.7-12.53-27.85-28.75-33.12-3.81-1.24-7.75-1.82-11.77-1.81-35.76,0-71.52-.03-107.29,.02-20.41,.03-37.16,14.35-40.56,34.42-.39,2.28-.05,4.79-1.73,6.76-3.99,1.27-8.02,.96-12.05,.26-1.7-.97-1.15-2.54-1.03-3.98,1.4-17-13.49-29.18-29.84-24.41-1.61,.47-3.31,1.47-4.76-.38-2.14-4.98-1.12-10.23-1.21-15.37-.05-3.13-.84-6.45,1.1-9.38Z"/>
  <path class="cls-9" d="M185.56,287.32c54.97,0,109.95,0,164.92,0,7.09,0,8.73,1.66,8.73,8.83,0,2.99,.09,5.99-.04,8.97-.16,3.74-2.41,5.9-6.17,6.12-.99,.06-1.99,.02-2.99,.02-109.57,0-219.15,0-328.72,0-7.86,0-9.29-1.45-9.29-9.4,0-2.74-.07-5.49,.03-8.23,.14-3.96,2.36-6.11,6.36-6.3,1-.05,1.99-.01,2.99-.01,54.72,0,109.45,0,164.17,0Z"/>
  <path class="cls-1" d="M249.95,65.74c-19.95,.04-39.9,.09-59.84,.11-24.69,.02-49.38,0-74.07,0-6.34,0-8.23-1.9-8.24-8.24,0-12.84-.03-25.68,.01-38.53,.02-4.86,2.24-7.09,7.11-7.09,44.64-.02,89.28,0,133.92,0,.37,0,.74,.07,1.11,.11,2.31,1.71,3.18,3.71,1.32,6.29-4.63,1.54-4.64,1.54-4.65,6.38-.01,9.41-.01,18.81,0,28.22,0,4.95,.02,4.95,4.6,6.41,1.84,2.57,1.13,4.62-1.27,6.34Z"/>
  <path class="cls-3" d="M50.33,181.14c5.8-27.24,11.4-53.91,17.2-80.54,2.91-13.35,15.05-22.72,29.22-22.75,28.31-.07,56.61-.02,84.92-.02,30.3,0,60.6,0,90.91,0,16.96,0,28.1,8.87,31.65,25.32,5.57,25.79,11.06,51.59,16.68,77.86-5.16-.78-10.13-1.46-15.19-1.46-74.45,.06-148.89,0-223.34,.08-10.54,.01-21.15-1.02-32.05,1.52Z"/>
  <path class="cls-10" d="M41.95,198.52c.26,8.5-.71,17.05,.86,25.51-.11,1.46-1.31,2.03-2.28,2.77-11.06,8.41-12.78,22.67-4.05,33.65,7.73,9.72,22.77,10.67,32.86,2.09,2.23-1.9,3.63-4.39,5.01-6.91,.82-1.5,1.2-3.32,2.9-4.22,4.16,0,8.31,0,12.47,0,1.23,.98,1.2,2.39,1.27,3.75,.1,1.74,.03,3.49,.05,5.23,.08,6.24,1.5,7.76,7.72,7.77,57.91,.04,115.81,.04,173.72,0,6.23,0,7.53-1.53,7.77-7.76,.12-3.01-.99-6.26,1.27-8.98,4.16,0,8.31,0,12.47,0,1.5,.72,1.81,2.28,2.46,3.59,4.23,8.57,11.18,13.32,20.67,13.33,9.59,0,16.8-4.52,21.07-13.32,.64-1.31,.95-2.86,2.45-3.59,2.16,0,4.32,0,6.48,0,.04,7.23,.03,14.46,.16,21.68,.03,1.81-.54,2.51-2.32,2.28-.61-.08-1.25-.01-1.87-.01-104.98,0-209.96-.02-314.94,.08-3.37,0-4.31-.78-4.25-4.21,.22-13.46-.19-26.94,.18-40.39,.38-13.69,6.38-24.6,17.87-32.3Z"/>
  <path class="cls-6" d="M65.89,337.1c0,3.48,.08,6.97-.02,10.45-.2,6.67-5.46,11.67-12.1,11.6-6.43-.06-11.66-5.05-11.79-11.52-.14-7.21,.02-14.43-.07-21.64-.03-2.12,.75-2.81,2.83-2.78,6.09,.09,12.19,.12,18.28-.01,2.39-.05,2.98,.92,2.9,3.09-.12,3.6-.03,7.21-.04,10.82Z"/>
  <path class="cls-6" d="M329.29,337.08c0,3.48,.08,6.97-.02,10.45-.19,6.67-5.44,11.68-12.07,11.63-6.44-.05-11.69-5.02-11.81-11.5-.14-7.21,.02-14.43-.07-21.64-.03-2.09,.69-2.84,2.8-2.81,6.09,.1,12.19,.12,18.28-.01,2.36-.05,3.01,.86,2.93,3.06-.13,3.6-.04,7.21-.04,10.82Z"/>
  <path class="cls-5" d="M249.95,65.74c.88-1.82,1.66-3.66,1.48-5.75,4.97-1.25,5.06-4.94,4.94-9.12-.23-7.96-.23-15.94,0-23.9,.12-4.18,.03-7.87-4.94-9.12,.18-2.09-.6-3.93-1.48-5.75,2.36-.04,4.72-.16,7.08-.09,4.13,.12,6.37,2.37,6.39,6.59,.06,13.54,.06,27.09,0,40.64-.02,4.22-2.27,6.47-6.4,6.6-2.36,.07-4.72-.05-7.08-.09Z"/>
  <path class="cls-10" d="M27.16,173.59c-2.86,0-5.71,.06-8.57-.01-4.03-.11-6.61-2.55-6.55-6.07,.06-3.4,2.54-5.8,6.37-5.86,5.71-.09,11.42-.09,17.13,0,3.47,.05,6.03,2.04,5.61,4.56-.86,5.19-.57,7.1-5.8,7.35-2.72,.13-5.46,.02-8.19,.02Z"/>
  <path class="cls-10" d="M344.62,161.63c2.73,0,5.46-.07,8.19,.02,3.82,.12,6.32,2.48,6.38,5.86,.06,3.38-2.44,5.98-6.18,6.05-5.83,.12-11.68,.23-17.5-.03-4.72-.21-4.72-1.88-5.39-7.3-.4-3.25,2.43-4.2,5.19-4.58,.24-.03,.5-.01,.74-.01,2.86,0,5.71,0,8.57,0Z"/>
  <path d="M281.52,251.4c-.04,3.36-.09,6.72-.12,10.08-.04,5.87-1.99,7.88-7.81,7.88-24.53,.01-49.07,0-73.6,0-33.87,0-67.74,0-101.62,0-6.83,0-8.52-1.74-8.55-8.63-.01-3.11-.08-6.22-.12-9.33,1.18-19.3,10.45-32.77,28.73-39.65,4.82-1.82,9.9-2.27,15.04-2.26,34.13,.03,68.27,.55,102.38-.16,25-.52,44.93,17.09,45.65,42.07Z"/>
  <path d="M340.64,251.4c-3.67,10.84-10.97,17.3-22.59,17.89-11.13,.56-19.38-5.8-24.07-17.89-2.21-14.77,5-26.39,18.16-29.29,16.86-3.72,31.82,10.81,28.64,27.82-.09,.48-.1,.98-.14,1.47Z"/>
  <path d="M77.24,251.4c-4.49,11.57-12.26,17.73-22.64,17.96-10.77,.23-20.23-6.49-23.49-16.69-3.22-10.08,.48-20.83,9.26-26.95,.81-.56,1.62-1.12,2.44-1.68,15.53-6.93,28.06,1.54,32.52,10.68,2.61,5.35,3.06,10.92,1.91,16.68Z"/>
  <path d="M170.41,53.88c-.5,0-1.02,.09-1.49-.01-3.99-.87-5.94,.98-6.49,4.79-.36,2.49-1.38,3.1-4.02,2.17-8.38-2.95-8.44-2.81-5.68-11.12,2.74-8.25,5.5-16.49,8.24-24.74,2.11-6.35,2.98-7,9.55-7,.87,0,1.74,.02,2.61,0,3.32-.09,5.4,1.58,6.42,4.63,3.67,10.95,7.26,21.92,11.01,32.84,.7,2.03,.25,3-1.73,3.49-.96,.24-1.9,.58-2.84,.89-5.83,1.92-5.89,1.94-7.92-3.78-.59-1.65-1.38-2.4-3.19-2.2-1.48,.16-2.98,.03-4.48,.03Z"/>
  <path d="M208.51,63.45c-3.52-2.6-6.5-4.64-9.26-6.94-.71-.59,.49-1.52,.95-2.18,3.13-4.49,6.23-9.02,9.54-13.38,1.22-1.61,1.1-2.61-.06-4.15-3.29-4.38-6.32-8.95-9.59-13.34-1.17-1.57-.98-2.29,.6-3.47,7.66-5.72,7.61-5.78,13.16,1.98q4.7,6.56,9.34,.08c.07-.1,.15-.2,.23-.3,5.32-7.42,5.25-7.33,12.65-2.09,2.11,1.5,1.97,2.49,.56,4.33-3.16,4.16-5.99,8.58-9.18,12.71-1.34,1.73-1.18,2.84,.06,4.48,3.3,4.37,6.35,8.93,9.61,13.33,1.06,1.44,.88,2.14-.53,3.24-7.68,5.97-7.64,6.02-13.22-1.76q-4.81-6.7-9.57-.07c-1.38,1.92-2.78,3.83-4.15,5.76-.4,.57-.76,1.17-1.13,1.76Z"/>
  <path d="M125.75,44.84c0-4.11-.13-8.22,.05-12.32,.1-2.2-.71-2.9-2.74-2.58-.12,.02-.25,0-.37,0-9.99-.12-9.94-.11-8.96-10.17,.15-1.52,.67-1.82,2.02-1.82,10.7,.04,21.41,.05,32.11,0,1.52,0,2.01,.58,1.84,1.97-.02,.12,0,.25,0,.37,.45,9.51,.45,9.63-9.05,9.59-2.59-.01-3.01,.87-2.97,3.16,.13,7.96-.01,15.93,.09,23.89,.03,2.08-.22,3.01-2.74,3.02-9.28,.03-9.28,.15-9.28-9.13,0-1.99,0-3.98,0-5.97Z"/>
  <path d="M251.43,17.85q6.02,.31,6.02,6.5c0,10.33-.2,20.67,.1,31,.11,3.8-.92,5.22-4.64,4.54-.47-.09-.99,.06-1.48,.1q-5.95-.3-5.95-6.51c0-10.33,.18-20.66-.1-30.99-.1-3.68,.75-5.29,4.56-4.54,.47,.09,.99-.06,1.48-.1Z"/>
  <path d="M185.22,173.59c-38.9,0-77.8,0-116.71,0-7.37,0-9.51-2.58-7.9-9.64,4.73-20.62,9.47-41.23,14.27-61.83,2.61-11.19,11.44-18.29,22.85-18.3,58.6-.03,117.2-.04,175.81,0,11.4,0,20.2,7.12,22.82,18.35,4.83,20.72,9.58,41.46,14.34,62.2,1.47,6.38-.77,9.22-7.28,9.22-39.4,0-78.8,0-118.2,0Z"/>
  <path class="cls-9" d="M185.62,257.4c-26.79,0-53.58-.04-80.36,.06-2.72,.01-3.52-.55-3.52-3.43,.01-19.88,12.47-32.55,32.3-32.55,34.39,0,68.78,0,103.16,0,19.84,0,32.3,12.67,32.31,32.55,0,2.87-.8,3.44-3.52,3.43-26.79-.11-53.57-.06-80.36-.06Z"/>
  <path class="cls-8" d="M329.27,245.43c0,6.49-5.3,11.86-11.78,11.95-6.65,.09-12.12-5.3-12.13-11.97-.02-6.49,5.29-11.87,11.77-11.94,6.68-.07,12.14,5.32,12.14,11.96Z"/>
  <path class="cls-8" d="M53.96,257.38c-6.55,0-11.93-5.3-11.99-11.83-.07-6.68,5.43-12.17,12.11-12.08,6.54,.09,11.82,5.46,11.81,12.01,0,6.49-5.43,11.9-11.92,11.9Z"/>
  <path class="cls-4" d="M168.01,41.79c.9-2.59,1.6-4.61,2.68-7.71,1.05,3.21,1.75,5.35,2.52,7.71h-5.2Z"/>
  <path class="cls-12" d="M103.32,95.91c.87-.04,1.74-.13,2.61-.13,53.61,0,107.23,0,160.84,0,.87,0,1.74,.09,2.61,.13,3.05,1.92,3.72,5.2,4.45,8.29,2.14,9.05,4.26,18.1,6.27,27.18,1.44,6.54,3.04,13.04,4.47,19.58,.37,1.71,1.29,3.64-.54,5.19-1.65,.78-3.41,.63-5.15,.63-53.67,.01-107.34,.03-161.01,0-12.44,0-21.07-6.62-23.45-17.76-.53-2.47-.61-4.94-.11-7.42,2.19-10.86,4.88-21.62,7.35-32.42,.28-1.22,.67-2.41,1.66-3.28Z"/>
  <path class="cls-2" d="M103.32,95.91c-1.84,8.33-3.69,16.67-5.5,25.01-.95,4.35-2.31,8.67-2.65,13.07-.89,11.73,8.93,21.64,21.08,21.64,56.04,.01,112.09,0,168.13,0,2.11,1.55,2.62,3.5,1.49,5.87-.99,.04-1.99,.12-2.98,.12-68.67,0-137.35,0-206.02,0h-3.41c2.08-9.16,4.09-18.05,6.13-26.95,1.94-8.49,3.92-16.96,5.87-25.45,2.72-11.86,5.59-14,17.86-13.32Z"/>
  <path class="cls-11" d="M285.87,161.5c-.26-2.02-.65-4-1.49-5.87-2.81-12.58-5.62-25.16-8.44-37.74-.95-4.23-1.89-8.47-2.84-12.7-.74-3.29-2.15-6.32-3.72-9.28,10.33-.61,13.63,1.82,15.96,11.84,3.94,16.94,7.81,33.89,11.83,50.81,.56,2.35,.39,3.33-2.34,3.1-2.97-.25-5.97-.13-8.95-.17Z"/>
  <path d="M185.65,251.41c-20.8,0-41.61-.05-62.41,.06-2.68,.01-3.61-.48-3.55-3.4,.17-8.63,.02-8.63,8.72-8.63,39.74,0,79.48,.03,119.22-.07,3,0,4.02,.55,3.93,3.79-.24,8.25-.06,8.26-8.35,8.26h-57.55Z"/>
</svg>