<?xml version="1.0" encoding="UTF-8"?>
<svg id="Layer_1" data-name="Layer 1" xmlns="http://www.w3.org/2000/svg" viewBox="0 0 371.35 371.24">
  <defs>
    <style>
      .cls-1 {
        fill: #e6e3dc;
      }

      .cls-2 {
        fill: #f3ce87;
      }

      .cls-3 {
        fill: #966947;
      }

      .cls-4 {
        fill: #f1efea;
      }

      .cls-5 {
        fill: #d4cdc1;
      }

      .cls-6 {
        fill: #f9deb1;
      }

      .cls-7 {
        fill: #2d4d82;
      }
    </style>
  </defs>
  <path d="M128.4,209.63c-5.48-10.28-9.83-20.53-13.04-31.25-.39-1.3-1.56-1.89-2.52-2.65-6.32-5.07-12.6-10.19-18.98-15.18-7.63-5.96-11.42-13.48-9.25-23.18,2.19-9.79,8.66-15.34,18.4-17.23,.24-.05,.46-.17,.85-.32,.16-1.26-.74-2.21-1.24-3.23-4.37-8.79-8.77-17.57-13.21-26.33-3.81-7.5-4.31-15.17-1.6-23.14,3.3-9.72-.62-17.58-10.34-20.96-4.11-1.43-8.24-2.78-12.39-4.09-2.72-.86-4.67-2.41-4.99-5.38-.33-2.98,1.3-4.85,3.73-6.33C95.21,11.19,129.28,.98,166.06,.23c18.45-.37,36.91-.21,55.37-.07,42.59,.32,72.05,41.78,58.3,82.11-4.25,12.46-8.95,24.77-13.51,37.3,2.07,.49,4.03,.79,5.87,1.42,8.06,2.77,13.18,8.3,14.89,16.7,1.69,8.27-.77,15.41-7.08,20.86-6.98,6.02-14.32,11.62-21.5,17.41-.86,.69-1.91,1.21-2.26,2.39-3.21,10.72-7.56,20.97-13.04,31.28,15.92,0,31.34,0,46.75,0,3.11,0,6.21-.03,9.31,.58,13.74,2.7,23.88,14.42,24.21,28.4,.18,7.35,.11,14.71,.02,22.07-.03,1.95,.4,3.03,2.35,3.97,24.76,11.88,39.56,31.46,44.55,58.42,.7,3.78,.91,7.68,.96,11.53,.14,9.85,.08,19.7,.05,29.55-.02,4.86-2.22,7-7.1,7.09-.62,.01-1.25,0-1.87,0-117.73,0-235.45,0-353.18,0-7.4,0-9.09-1.58-8.96-8.95,.22-12.08-.95-24.22,.68-36.24,3.76-27.7,18.31-47.9,43.2-60.53,2.93-1.49,4.14-2.89,4.1-6.32-.1-8.21-.96-16.5,.44-24.64,2.54-14.81,14.57-24.82,29.63-24.91,15.34-.09,30.68-.02,46.02-.02,1.21,0,2.41,0,4.12,0Z"/>
  <path class="cls-5" d="M185.77,359.27c-40.65,0-81.3-.04-121.95,.08-3.08,0-3.87-.69-3.86-3.83,.12-38.03,.07-76.06,.08-114.08,0-12.64,7.27-19.84,20.01-19.84,70.45,0,140.9,0,211.35,0,12.93,0,20.05,7.16,20.05,20.18,0,37.9-.04,75.81,.08,113.71,0,3.08-.67,3.87-3.82,3.86-40.65-.12-81.3-.08-121.95-.08Z"/>
  <path class="cls-3" d="M263.01,92.38c-2.39-18.8-14.64-32.46-24.28-47.45-2.29-3.56-5.92-3.87-9.36-1.17-5.1,3.99-10.07,8.16-15.22,12.09-8.58,6.56-18.35,9.96-29.14,10.08-13.09,.14-24.97,3.86-35.81,11.2-12.28,8.31-24.71,16.4-36.97,24.75-2.34,1.59-3.17,1.15-4.26-1.19-2.58-5.53-5.41-10.94-8.14-16.4-2.05-4.11-2.53-8.42-.83-12.67,6.45-16.19-3.32-32.45-16.61-36.41-.32-.1-.57-.41-1.27-.92,8.78-4.68,17.61-8.49,26.73-11.63,20.78-7.16,42.17-10.69,64.17-10.57,16.21,.09,32.42-.03,48.63,.03,30.1,.1,52.66,24.54,50.34,54.6-.7,9.06-4.65,17.2-7.96,25.68Z"/>
  <path class="cls-6" d="M185.65,209.63c-13.46,0-26.92-.06-40.38,.06-2.29,.02-3.5-.69-4.64-2.7-12.65-22.27-19.34-46.21-20.66-71.74-.14-2.79,.49-3.56,3.35-3.51,8.54,.16,8.54,.02,8.54,8.39,0,3.36-.07,6.73,.03,10.09,.27,9.57,7.86,17.19,17.45,17.47,3.98,.12,7.98,.07,11.96,.02,10.71-.11,18.31-7.7,18.45-18.39q.08-5.55,5.7-5.55,6.14,0,6.28,6.1c.23,9.99,7.86,17.63,17.87,17.83,4.11,.08,8.23,.09,12.34,0,9.79-.24,17.43-7.86,17.64-17.66,.11-5.23,.1-10.47,0-15.7-.04-1.84,.32-2.54,2.4-2.6,9.69-.27,9.7-.35,9,9.26-1.69,23.46-8.55,45.33-20.03,65.82-1.21,2.16-2.49,2.88-4.93,2.86-13.46-.13-26.92-.06-40.38-.06Z"/>
  <path class="cls-6" d="M223.54,119.84c-7.98,0-15.95-.01-23.93,0-5.89,.01-8.04,1.97-7.79,7.81,.15,3.34-.73,4.82-4.18,4.17-.48-.09-.99-.01-1.49-.01q-5.9,0-6.39-5.99c-.32-3.92-2.66-5.96-7.08-5.97-16.2-.03-32.41,.02-48.61-.08-1.35,0-3.89,1.27-3.98-1.05-.12-2.77-1.82-6.44,1.07-8.36,13.67-9.1,26.97-18.77,41.16-27.06,5.87-3.43,12.5-5.27,19.28-5.21,17.69,.16,32.8-5.96,45.97-17.52,4.55-3.99,4.72-3.86,8.01,1.16,5.45,8.3,11.46,16.24,14.11,26.12,2.71,10.08,1.61,20.3,1.9,30.48,.06,2.18-1.57,1.48-2.63,1.49-8.48,.04-16.95,.03-25.43,.03Z"/>
  <path class="cls-7" d="M323.82,277.04c9.31,4.66,16.79,11.2,22.78,19.45,8.45,11.63,12.64,24.69,12.73,39.05,.05,6.85-.07,13.7,.06,20.55,.04,2.35-.52,3.27-3.08,3.24-9.96-.14-19.93-.08-29.89-.04-1.78,0-3.05-.03-3.04-2.48,.08-26.15,.06-52.3,.08-78.45,0-.33,.17-.66,.36-1.32Z"/>
  <path class="cls-7" d="M47.93,277.46c.05,.98,.13,1.94,.13,2.89,0,25.06-.03,50.11,.06,75.17,.01,2.81-.55,3.89-3.65,3.82-9.72-.21-19.45-.08-29.17-.08-1.64,0-3.27,.28-3.18-2.32,.42-11.8-1.1-23.7,1.53-35.39,4.19-18.56,14.45-32.83,30.7-42.75,1.01-.62,2.01-1.48,3.57-1.36Z"/>
  <path class="cls-4" d="M155.92,131.81c3.12,0,6.24,.09,9.35-.03,1.82-.07,2.65,.28,2.58,2.4-.17,4.98,0,9.97-.07,14.96-.07,4.21-2.31,6.49-6.44,6.6-3.74,.09-7.48,.11-11.22,0-3.93-.12-6.16-2.41-6.23-6.41-.09-5.11,.06-10.23-.07-15.34-.05-1.93,.71-2.26,2.39-2.2,3.24,.11,6.48,.03,9.73,.03Z"/>
  <path class="cls-4" d="M215.71,131.81c3.24,0,6.49,.11,9.73-.04,1.86-.08,2.29,.58,2.26,2.33-.11,5.11,.04,10.23-.07,15.34-.09,3.94-2.39,6.18-6.36,6.29-3.74,.1-7.48,.1-11.22,0-3.96-.11-6.22-2.37-6.3-6.34-.1-5.11,.05-10.23-.07-15.34-.04-1.83,.54-2.35,2.32-2.27,3.24,.13,6.48,.04,9.73,.04Z"/>
  <path class="cls-2" d="M110.48,158.52c-4.29-3.47-7.96-6.21-11.36-9.25-3.26-2.92-4.08-7.42-2.33-11.28,1.75-3.83,4.8-5.91,9.03-6.17,1.16-.07,2.16-.16,2.22,1.58,.15,4.1,.37,8.2,.76,12.28,.38,3.95,1.01,7.87,1.67,12.83Z"/>
  <path class="cls-2" d="M260.99,158.62c1.27-9.07,2.24-17.2,2.47-25.38,.05-1.88,1.35-1.45,2.37-1.38,4.07,.28,7.08,2.32,8.77,5.98,1.77,3.85,1.36,7.79-1.63,10.74-3.49,3.44-7.51,6.34-11.98,10.04Z"/>
  <path d="M209.68,317.52c-.05,13.19-10.95,23.91-24.18,23.79-13.22-.13-23.8-10.97-23.69-24.28,.11-13.01,10.89-23.61,23.99-23.59,13.22,.01,23.93,10.82,23.88,24.09Z"/>
  <path d="M119.91,257.52c-.07-1.88,.78-3.34,2.06-4.62,7.31-7.31,14.64-14.59,21.89-21.96,1.37-1.4,2.17-1.3,3.56,.02,6.97,6.6,7.01,6.55,.26,13.3-3.79,3.79-7.5,7.64-11.39,11.33-1.52,1.44-1.61,2.3-.04,3.81,5.37,5.19,10.53,10.6,15.92,15.78,1.65,1.59,1.8,2.57,0,4.08-2.27,1.91-4.22,5.53-6.53,5.72-2.43,.2-4.35-3.62-6.47-5.69-5.6-5.49-11.11-11.08-16.67-16.61-1.45-1.44-2.68-2.96-2.59-5.15Z"/>
  <path d="M251.58,257.53c.05,1.87-.81,3.34-2.08,4.62-7.3,7.31-14.64,14.59-21.88,21.96-1.44,1.47-2.23,1.13-3.55-.13-6.89-6.59-6.92-6.55-.2-13.27,3.79-3.79,7.49-7.65,11.39-11.32,1.59-1.5,1.44-2.36-.05-3.81-5.36-5.2-10.52-10.61-15.91-15.78-1.7-1.63-1.69-2.6,.05-4.07,2.27-1.91,4.23-5.51,6.53-5.69,2.43-.18,4.35,3.62,6.47,5.7,5.6,5.49,11.11,11.08,16.66,16.61,1.44,1.44,2.65,2.98,2.57,5.17Z"/>
  <path d="M172.52,285.05c-1.64-1.22-3.13-2.33-4.62-3.45q-4.94-3.68-1.23-8.65c10.01-13.36,20.06-26.68,30-40.1,1.6-2.16,2.63-2.85,5.09-.89,6.72,5.35,6.82,5.22,1.6,12.16-9.65,12.85-19.28,25.71-28.93,38.56-.57,.76-1.2,1.49-1.91,2.36Z"/>
  <path class="cls-1" d="M197.7,317.35c0,6.49-5.28,11.87-11.76,11.96-6.65,.1-12.12-5.28-12.15-11.95-.03-6.49,5.28-11.88,11.75-11.96,6.67-.08,12.15,5.3,12.16,11.95Z"/>
</svg>