<?xml version="1.0" encoding="UTF-8"?>
<svg id="Layer_1" data-name="Layer 1" xmlns="http://www.w3.org/2000/svg" viewBox="0 0 323 511.84">
  <defs>
    <style>
      .cls-1 {
        fill: #405872;
      }

      .cls-2 {
        fill: #f75f64;
      }

      .cls-3 {
        fill: #adf3e8;
      }

      .cls-4 {
        fill: #e33a46;
      }

      .cls-5 {
        fill: #27425b;
      }

      .cls-6 {
        fill: #405871;
      }

      .cls-7 {
        fill: #f86065;
      }

      .cls-8 {
        fill: #75cdbf;
      }
    </style>
  </defs>
  <path d="M219.93,0c11.67,4.01,16.49,12.24,16.01,24.45-.45,11.31-.09,22.65-.1,33.98,0,2-.3,3.46,2.85,3.82,18.95,2.19,29.94,14.81,29.96,34.06,.05,29.98,.07,59.97-.06,89.95-.01,3.66,.68,5.64,4.48,7.41,15.23,7.08,23.07,19.43,23.84,36.24,.05,1,.14,2.02,0,2.99-.89,6.01,.75,9.19,7.3,11.73,12.2,4.72,18.32,14.97,18.64,28.17,.25,10.49,.14,20.99,.03,31.48-.14,14.11-8.58,25.64-22.14,29.87-3.12,.97-3.94,2.27-3.9,5.44,.18,16.49,.05,32.98,.11,49.47,.01,4.42-1.17,7.87-6,8.97-5.55,1.7-9.17-.32-10.27-5.82-.53-2.63-.35-5.31-.35-7.97,0-49.95-.03-99.89,.02-149.84,0-6.3-.79-12.32-4.66-17.51-5.25-7.04-12.35-10.37-21.11-10.36-15.31,0-30.63,0-45.94,0-39.45,0-78.9,0-118.36,0-5.44,0-10.45-.57-12.24-6.94-.08-1.03,.24-1.93,.8-2.77,.67-5.07,3.83-6.97,8.64-6.96,11.32,.04,22.65-.13,33.97,.1,3.52,.07,4.42-.92,4.41-4.42-.14-29.64-.1-59.28-.08-88.93,.02-19.81,10.33-31.78,29.97-34.38,3.17-.42,2.76-2.04,2.76-4,0-10.99,.43-22-.12-32.97-.62-12.27,3.76-20.91,15.55-25.26h45.98Z"/>
  <path d="M290.03,413.7c4.96,.83,6.93,3.95,6.91,8.77-.05,16.47,.12,32.94-.07,49.4-.23,19.49-14.09,35.63-33.29,39.19-.58,.11-1.11,.51-1.67,.77H33.01c-1-1.67-2.9-1.36-4.38-1.84C11.54,504.43,.1,489.38,.08,471.41c-.09-80.43-.12-160.86,.02-241.3,.04-22.28,17.75-39.8,39.94-40.21,4.99-.09,9.99-.03,14.98-.03,4.62,0,7.61,2,8.23,6.83,1.25,5.32-1.18,8.83-6.92,9.46-4.94,.55-9.94,.15-14.91,.22-8.77,.13-15.63,3.88-20.7,10.93-1.24,1.72-2.89,3.74-1.87,5.88,1.01,2.12,3.54,1.26,5.42,1.27,10.11,.09,20.22,.02,30.33,.03,47.78-.25,95.56-.26,143.34,0,19.6,.1,34.44,11.37,40.82,29.6,1.52,4.35,1.71,8.78,1.7,13.29-.01,72.6-.01,145.19,0,217.79q0,10.13,10.18,10.13c1.17,0,2.33,.01,3.5-.02,15.96-.39,25.84-10.09,26.12-26.06,.26-14.48,.04-28.97,.07-43.46,0-2.16-.1-4.35,.46-6.46,1.23-4.64,4.65-6.69,9.22-5.59Z"/>
  <path class="cls-5" d="M54,225.93c-11.31,.02-22.62-.07-33.93,.14-4.06,.08-4.37-1.31-3.13-4.7,3.38-9.19,12.86-16.13,22.98-16.38,4.66-.11,9.32-.01,13.97-.04,6.65-.04,8.59-1.76,9.35-8.25,5.19,1.14,10.39,.92,15.59,.11,0,.73-.01,1.45-.02,2.18-4.87,2.42-9.87,4.37-14.04,8.24-5.63,5.22-8.29,11.84-10.78,18.7Z"/>
  <path class="cls-1" d="M54,225.93c.28-12.5,12.88-26.18,24.82-26.94,1.63,4.98,5.33,6.04,10.16,6.03,54.77-.1,109.53-.06,164.3-.06,18.13,0,28.55,10.37,28.56,28.42,0,51.78,0,103.55,.01,155.33,0,7.15,2.05,9.19,9.09,9.31-2.51,5.1-.86,10.44-.92,15.68-6.05,.73-8.16,2.97-8.17,9.01-.04,15.49,.01,30.98-.02,46.47-.04,16.75-10.79,27.51-27.49,27.58-3.83,.02-7.66-.11-11.49,.04-2.86,.11-3.93-1.15-3.76-3.86,.08-1.33,.01-2.66,.01-4,0-73.62-.22-147.24,.15-220.85,.09-19.02-12.67-36.12-30.05-40.47-4.37-1.09-8.8-1.6-13.32-1.6-47.29,0-94.59-.05-141.88-.09Z"/>
  <path class="cls-7" d="M166.91,172.86c14.42-7.52,20.63-19.59,19.82-35.6-.14-2.66-.12-5.33,0-7.99,.69-15.85-5.64-27.69-19.9-35.03-2.83-8.84,2.57-16.74,11.45-16.74,18.64,0,37.28,0,55.92,.01,1.65,0,3.33-.26,4.95,.29,6.93,.72,11.01,4.88,13.38,11.09,.76,1.99,.41,3.12-2.1,3.04-3.66-.12-7.33-.08-10.99,.02-17.39,.47-31.16,14.17-31.63,31.6-.18,6.66-.18,13.33,0,19.98,.46,17.46,14.2,31.13,31.62,31.56,3.5,.09,7,.16,10.49-.01,2.67-.13,3.56,.95,3.4,3.5-.21,3.48-.22,6.97-.32,10.46-1.26,.63-2.61,.38-3.92,.38-25.88,.01-51.76,.02-77.64,0-5.36,0-5.98-.5-6.06-5.95-.05-3.58-.87-7.35,1.51-10.61Z"/>
  <path class="cls-8" d="M140.93,133.46c0-7.48,.18-14.96-.08-22.43-.12-3.42,1.1-4.33,4.24-4.03,2.47,.23,4.98,.03,7.47,.05,11.34,.08,18.48,6.9,18.76,18.1,.15,5.81,.18,11.64-.03,17.45-.37,10.41-7.5,17.23-17.89,17.39q-12.48,.19-12.48-12.07c0-4.82,0-9.64,0-14.46Z"/>
  <path class="cls-3" d="M253.34,133.44c0,7.81-.07,15.63,.04,23.44,.03,2.29-.49,3.32-3.02,3.16-3.48-.21-6.98,.03-10.47-.08-9.36-.29-16.69-7.48-16.96-16.82-.18-6.31-.15-12.63-.01-18.95,.19-8.61,6.23-15.71,14.75-16.86,4.41-.6,8.96-.18,13.44-.29,2.73-.06,2.2,1.9,2.21,3.46,.03,7.65,.02,15.29,.01,22.94Z"/>
  <path class="cls-6" d="M217.97,15.96c2.45,1.26,2.79,3.53,2.79,5.91,.02,12.1-.08,24.2,.07,36.29,.04,3.1-1.05,3.99-4.03,3.92-8.94-.19-17.89-.14-26.84-.18-1.53-1.58-1.6-3.61-1.62-5.61-.07-11.49-.12-22.97,.01-34.46,.07-5.96,.58-6.42,6.72-6.3,7.63,.16,15.28-.58,22.89,.42Z"/>
  <path class="cls-5" d="M217.97,15.96c-7.94,0-15.89,.14-23.83-.03-3.25-.07-4.3,1.04-4.27,4.27,.15,13.9,.08,27.8,.09,41.7-4.16,.04-8.33,0-12.49,.14-2.42,.08-3.66-.57-3.64-3.32,.1-12.83,.08-25.66,.03-38.49-.01-3.41,1.96-5.04,4.91-5.08,12.49-.16,24.98-.1,37.48-.06,.57,0,1.14,.56,1.72,.86Z"/>
  <path class="cls-2" d="M296.93,257.74c7.29,3.17,10.63,8.35,10.8,15.35,.25,10.31,.15,20.63,.03,30.94-.06,5.66-2.49,10.27-7.14,13.59-.89,.63-1.85,1.73-3.1,1.07-1.06-.56-.57-1.78-.57-2.7-.03-19.13-.02-38.26-.02-58.26Z"/>
  <path class="cls-4" d="M166.91,172.86c.02,3.99,.26,7.99-.02,11.96-.27,3.91,1.79,4.2,4.86,4.19,21.1-.08,42.21-.05,63.31-.04,5.98,0,11.96,.04,17.95,.06-1.26,1.69-3.07,.86-4.6,.87-34.23,.03-68.46-.08-102.68,.07-4.01,.02-4.98-1.14-4.9-4.99,.22-9.86,.04-10,9.92-9.81,5.55,.11,10.89-.69,16.16-2.3Z"/>
  <path class="cls-4" d="M239.16,77.79c-19.73,.07-39.45,.15-59.18,.2-7.8,.02-10.06,1.74-11.93,9.42-.55,2.24-.81,4.54-1.21,6.81-7.18-2.67-14.68-2.59-22.14-2.26-3.78,.17-3.79-1.37-2.63-4.04,2.94-6.77,8.22-10.58,15.48-10.63,26.58-.2,53.16-.11,79.74-.09,.62,0,1.25,.38,1.87,.59Z"/>
  <path class="cls-1" d="M201.08,241.81c12.7,.82,22.83,11.42,22.87,24.44,.12,33.77,.07,67.54,.05,101.32-.02,42.75-.08,85.51-.12,128.26-1.55,.91-3.26,.48-4.89,.48-49.96,.03-99.91-.06-149.87,.14-5.59,.02-9.19-2.08-11.94-6.5-4.46-7.18-5.82-15.12-5.82-23.43,.02-46.8,.01-93.6,0-140.39,0-24.81,0-49.63,0-74.44,0-2,0-4,.13-5.99,.2-2.99,1.51-4.44,4.76-4.3,4.82,.21,9.66,.05,14.48,.05,41.63,0,83.26,0,124.89,.02,1.81,0,3.66-.34,5.44,.35Z"/>
  <path class="cls-5" d="M201.08,241.81c-41.14,.05-82.27,.1-123.41,.14-6.83,0-13.66,.15-20.48-.06-3.34-.1-4.33,1.12-4.23,4.34,.2,6.16,.06,12.32,.06,18.49,0,68.13-.04,136.26,.05,204.39,.01,8.63,2.08,16.75,8.09,23.45,2.16,2.41,4.53,3.37,7.83,3.36,51.63-.11,103.26-.09,154.9-.09-1.22,1.74-3.05,.99-4.59,.99-59.1,.02-118.19,.01-177.29-.05-15.57-.02-26.89-11.22-26.9-26.69-.05-74.59,.01-149.17-.1-223.76,0-4.26,1.47-5.33,5.49-5.32,58.6,.08,117.19,.03,175.79,.03,1.63,0,3.36-.4,4.81,.79Z"/>
</svg>